<svg xmlns="http://www.w3.org/2000/svg" width="200" height="200" shape-rendering="geometricPrecision" image-rendering="optimizeQuality" fill-rule="evenodd" xmlns:v="https://vecta.io/nano"><path d="M18 0h164c9.9 0 18 8.1 18 18v164c0 9.9-8.1 18-18 18H18c-9.9 0-18-8.1-18-18V18C0 8.1 8.1 0 18 0z" fill="#274c77"/><g fill-rule="nonzero"><path d="M110.23 64.73h27.2c6.32 0 11.94.86 16.88 2.57s9.1 4.12 12.5 7.21c3.39 3.09 5.97 6.77 7.76 11.03 1.78 4.27 2.67 8.95 2.67 14.06v.2c0 5.1-.91 9.82-2.72 14.16-1.82 4.33-4.44 8.07-7.86 11.23-3.43 3.16-7.65 5.63-12.65 7.41s-10.66 2.67-16.98 2.67h-26.8V64.73zm27.54 53.21c5.86 0 10.58-1.55 14.16-4.64s5.36-7.49 5.36-13.2v-.2c0-5.64-1.78-10.03-5.36-13.15s-8.3-4.69-14.16-4.69h-7.99v35.88h7.99z" fill="#a7c4d2"/><path d="M22.76 64.73h20.66l16.83 27.31 16.83-27.31h20.65v70.54H78.29V94.76L60.3 122.37h-.4L42.01 94.96v40.31H22.76z" fill="#fff"/></g></svg>