<?xml version="1.0" encoding="UTF-8"?>
<!DOCTYPE svg PUBLIC "-//W3C//DTD SVG 1.1//EN" "http://www.w3.org/Graphics/SVG/1.1/DTD/svg11.dtd">
<svg xmlns="http://www.w3.org/2000/svg" xml:space="preserve" width="200px" height="200px" version="1.1" style="shape-rendering:geometricPrecision; text-rendering:geometricPrecision; image-rendering:optimizeQuality; fill-rule:evenodd; clip-rule:evenodd"
viewBox="0 0 200 200"
 xmlns:xlink="http://www.w3.org/1999/xlink">
 <defs>
  <style type="text/css">
   <![CDATA[
    .fil1 {fill:#3C4B58}
    .fil0 {fill:#274C77}
    .fil3 {fill:#A7C4D2;fill-rule:nonzero}
    .fil2 {fill:white;fill-rule:nonzero}
   ]]>
  </style>
 </defs>
 <g id="Arte">
  <path class="fil0" d="M18 0l164 0c9.9,0 18,8.1 18,18l0 164c0,9.9 -8.1,18 -18,18l-164 0c-9.9,0 -18,-8.1 -18,-18l0 -164c0,-9.9 8.1,-18 18,-18z"/>
  <path class="fil1" d="M200 157.91l0 24.09c0,9.9 -8.1,18 -18,18l-164 0c-9.9,0 -18,-8.1 -18,-18l0 -24.09 200 0z"/>
  <path class="fil2" d="M64.59 169.09l7.88 0c1.57,0 2.73,0.07 3.5,0.19 0.77,0.14 1.45,0.41 2.06,0.82 0.61,0.41 1.11,0.96 1.51,1.64 0.41,0.69 0.61,1.46 0.61,2.31 0,0.91 -0.25,1.77 -0.74,2.53 -0.5,0.77 -1.17,1.35 -2.02,1.73 1.2,0.36 2.11,0.95 2.76,1.8 0.64,0.84 0.97,1.83 0.97,2.98 0,0.9 -0.21,1.77 -0.63,2.62 -0.42,0.85 -0.99,1.53 -1.71,2.04 -0.72,0.5 -1.61,0.82 -2.67,0.94 -0.67,0.06 -2.27,0.11 -4.81,0.13l-6.71 0 0 -19.73zm3.99 3.28l0 4.55 2.61 0c1.55,0 2.51,-0.03 2.89,-0.07 0.68,-0.08 1.21,-0.32 1.6,-0.71 0.39,-0.38 0.59,-0.89 0.59,-1.53 0,-0.61 -0.17,-1.1 -0.51,-1.48 -0.33,-0.38 -0.84,-0.61 -1.49,-0.69 -0.4,-0.05 -1.53,-0.07 -3.4,-0.07l-2.29 0zm0 7.83l0 5.28 3.69 0c1.43,0 2.35,-0.04 2.73,-0.12 0.6,-0.11 1.08,-0.37 1.45,-0.78 0.37,-0.43 0.56,-0.98 0.56,-1.68 0,-0.6 -0.14,-1.1 -0.43,-1.52 -0.28,-0.41 -0.7,-0.71 -1.25,-0.9 -0.54,-0.19 -1.72,-0.28 -3.53,-0.28l-3.22 0zm15.9 8.62l0 -19.73 14.6 0 0 3.34 -10.6 0 0 4.38 9.86 0 0 3.33 -9.86 0 0 5.34 10.99 0 0 3.34 -14.99 0zm22.81 0l0 -16.39 -5.84 0 0 -3.34 15.65 0 0 3.34 -5.81 0 0 16.39 -4 0zm28.12 0l-4.3 0 -1.7 -4.49 -7.91 0 -1.64 4.49 -4.23 0 7.66 -19.73 4.22 0 7.9 19.73zm-7.3 -7.83l-2.74 -7.3 -2.66 7.3 5.4 0z"/>
  <g id="_1312799560928">
   <path class="fil3" d="M110.23 49.73l27.2 0c6.32,0 11.94,0.86 16.88,2.57 4.94,1.71 9.1,4.12 12.5,7.21 3.39,3.09 5.97,6.76 7.76,11.03 1.78,4.27 2.67,8.95 2.67,14.06l0 0.2c0,5.1 -0.91,9.82 -2.72,14.15 -1.82,4.34 -4.44,8.08 -7.86,11.24 -3.43,3.16 -7.65,5.63 -12.65,7.41 -5,1.78 -10.66,2.67 -16.98,2.67l-26.8 0 0 -70.54zm27.54 53.21c5.86,0 10.58,-1.55 14.16,-4.64 3.58,-3.09 5.36,-7.49 5.36,-13.2l0 -0.2c0,-5.64 -1.78,-10.03 -5.36,-13.15 -3.58,-3.13 -8.3,-4.69 -14.16,-4.69l-7.99 0 0 35.88 7.99 0z"/>
   <polygon class="fil2" points="22.76,49.73 43.42,49.73 60.25,77.04 77.08,49.73 97.73,49.73 97.73,120.27 78.29,120.27 78.29,79.76 60.3,107.37 59.9,107.37 42.01,79.96 42.01,120.27 22.76,120.27 "/>
  </g>
 </g>
</svg>
