<svg xmlns="http://www.w3.org/2000/svg" width="940" height="280" shape-rendering="geometricPrecision" image-rendering="optimizeQuality" fill-rule="evenodd" xmlns:v="https://vecta.io/nano"><path d="M0 0h940v280H0z" fill="#e8f5fc"/><path d="M295 108.78h1.94v24.25h15.26v1.75H295v-26zm40.6 16.97l-6.84-15.04-6.87 15.04h13.71zm-7.73-17.15h1.86l12.1 26.18h-2.11l-3.31-7.28h-15.34l-3.3 7.28h-2.01l12.11-26.18zm30.83 24.43c2.23 0 4-.47 5.31-1.43s1.97-2.26 1.97-3.9v-.07c0-1.62-.68-2.87-2.03-3.75s-3.31-1.32-5.89-1.32h-8.8v10.47h9.44zm-.86-12.21c.97 0 1.86-.12 2.68-.36.81-.24 1.52-.58 2.11-1.03.6-.45 1.06-1.01 1.4-1.68.33-.67.5-1.45.5-2.32v-.07c0-1.45-.56-2.62-1.67-3.5-1.12-.89-2.73-1.33-4.83-1.33h-8.77v10.29h8.58zm-10.51-12.04h10.72c1.48 0 2.79.21 3.94.61 1.15.41 2.09.98 2.8 1.7 1.11 1.11 1.67 2.48 1.67 4.09v.08c0 .89-.13 1.67-.39 2.34s-.6 1.25-1.02 1.75c-.42.49-.89.91-1.43 1.25-.53.33-1.05.61-1.57.83.76.2 1.51.47 2.22.8.72.34 1.35.75 1.88 1.26.52.51.95 1.1 1.27 1.78.33.68.49 1.46.49 2.35v.08c0 1.09-.23 2.07-.67 2.94-.45.88-1.07 1.63-1.89 2.23s-1.79 1.07-2.93 1.41c-1.14.33-2.41.5-3.82.5h-11.27v-26zm38.78 24.7c1.6 0 3.08-.3 4.43-.91s2.52-1.44 3.49-2.49c.98-1.05 1.74-2.28 2.29-3.69.54-1.42.82-2.93.82-4.54v-.07c0-1.61-.28-3.13-.84-4.55s-1.32-2.66-2.3-3.71c-.98-1.06-2.15-1.89-3.51-2.51s-2.85-.93-4.46-.93-3.09.31-4.44.91c-1.35.61-2.51 1.44-3.49 2.49s-1.74 2.28-2.28 3.7c-.55 1.41-.82 2.92-.82 4.53v.07c0 1.61.28 3.13.84 4.55.55 1.42 1.32 2.66 2.3 3.71.98 1.06 2.15 1.89 3.51 2.51s2.85.93 4.46.93zm-.08 1.74c-1.98 0-3.77-.36-5.37-1.09-1.59-.73-2.96-1.71-4.1-2.93-1.14-1.23-2.02-2.65-2.64-4.26s-.93-3.3-.93-5.09v-.07c0-1.78.32-3.48.95-5.11a13.52 13.52 0 0 1 2.66-4.29c1.14-1.23 2.51-2.22 4.12-2.95s3.4-1.09 5.39-1.09c1.95 0 3.73.36 5.34 1.09s2.99 1.71 4.13 2.94a13.15 13.15 0 0 1 2.63 4.25c.62 1.61.93 3.3.93 5.09.03.02.03.05 0 .07 0 1.78-.31 3.49-.95 5.11-.63 1.62-1.51 3.05-2.65 4.29-1.14 1.23-2.52 2.22-4.14 2.95s-3.41 1.09-5.37 1.09zm30.38-12.96c1.09 0 2.1-.13 3.03-.41.93-.27 1.72-.66 2.39-1.17a5.53 5.53 0 0 0 1.58-1.86c.38-.73.58-1.58.58-2.52v-.07c0-1.77-.65-3.16-1.95-4.17-1.3-1.02-3.14-1.53-5.52-1.53h-8.88v11.73h8.77zm-10.7-13.48h10.92c1.61 0 3.04.23 4.27.69 1.24.46 2.26 1.08 3.05 1.87.62.62 1.1 1.35 1.45 2.18.34.83.52 1.71.52 2.65v.08c0 1.09-.19 2.06-.58 2.91-.38.86-.91 1.59-1.6 2.21-.68.62-1.48 1.12-2.41 1.51-.93.38-1.94.65-3.03.79l8.58 11.11h-2.45l-8.28-10.77h-.07-8.44v10.77h-1.93v-26zm44.46 16.97l-6.84-15.04-6.87 15.04h13.71zm-7.73-17.15h1.86l12.11 26.18h-2.12l-3.31-7.28h-15.33l-3.31 7.28h-2l12.1-26.18zm26.67 1.93h-9.06v-1.75h20.05v1.75h-9.06v24.25h-1.93v-24.25zm31.46-9.1l2.26 1.11-3.97 3.83h-1.56l3.27-4.94zm-2.64 32.05c1.61 0 3.09-.3 4.44-.91s2.51-1.44 3.49-2.49 1.74-2.28 2.28-3.69c.55-1.42.82-2.93.82-4.54v-.07c0-1.61-.28-3.13-.84-4.55-.55-1.42-1.32-2.66-2.3-3.71-.98-1.06-2.15-1.89-3.51-2.51s-2.85-.93-4.46-.93c-1.6 0-3.08.31-4.43.91-1.35.61-2.52 1.44-3.49 2.49-.98 1.05-1.74 2.28-2.29 3.7-.54 1.41-.82 2.92-.82 4.53v.07c0 1.61.28 3.13.84 4.55s1.32 2.66 2.3 3.71c.98 1.06 2.15 1.89 3.51 2.51s2.85.93 4.46.93zm-.08 1.74c-1.98 0-3.76-.36-5.36-1.09s-2.97-1.71-4.11-2.93c-1.13-1.23-2.01-2.65-2.63-4.26s-.93-3.3-.93-5.09v-.07c0-1.78.31-3.48.95-5.11.63-1.62 1.51-3.05 2.65-4.29 1.14-1.23 2.51-2.22 4.12-2.95s3.41-1.09 5.39-1.09c1.95 0 3.74.36 5.35 1.09s2.98 1.71 4.12 2.94c1.14 1.22 2.02 2.64 2.64 4.25a14.22 14.22 0 0 1 .92 5.09c.03.02.03.05 0 .07 0 1.78-.31 3.49-.94 5.11a13.52 13.52 0 0 1-2.66 4.29c-1.14 1.23-2.52 2.22-4.14 2.95s-3.41 1.09-5.37 1.09zm30.38-12.96c1.09 0 2.1-.13 3.03-.41.93-.27 1.73-.66 2.4-1.17.66-.51 1.19-1.13 1.57-1.86.39-.73.58-1.58.58-2.52v-.07c0-1.77-.65-3.16-1.95-4.17-1.3-1.02-3.14-1.53-5.52-1.53h-8.87v11.73h8.76zm-10.69-13.48h10.92c1.61 0 3.03.23 4.27.69s2.25 1.08 3.04 1.87c.62.62 1.1 1.35 1.45 2.18s.52 1.71.52 2.65v.08c0 1.09-.19 2.06-.58 2.91a6.51 6.51 0 0 1-1.59 2.21c-.68.62-1.49 1.12-2.42 1.51-.92.38-1.93.65-3.02.79l8.58 11.11h-2.45l-8.29-10.77h-.07-8.43v10.77h-1.93v-26zm27.11 0h1.93v26h-1.93v-26zm21.87 24.7c1.61 0 3.09-.3 4.44-.91s2.51-1.44 3.49-2.49 1.74-2.28 2.29-3.69c.54-1.42.81-2.93.81-4.54v-.07c0-1.61-.28-3.13-.83-4.55-.56-1.42-1.33-2.66-2.31-3.71-.97-1.06-2.14-1.89-3.5-2.51-1.37-.62-2.85-.93-4.46-.93s-3.09.31-4.44.91c-1.35.61-2.51 1.44-3.49 2.49s-1.74 2.28-2.28 3.7c-.55 1.41-.82 2.92-.82 4.53v.07c0 1.61.28 3.13.83 4.55.56 1.42 1.33 2.66 2.31 3.71.97 1.06 2.14 1.89 3.51 2.51 1.36.62 2.84.93 4.45.93zm-.07 1.74c-1.98 0-3.77-.36-5.37-1.09-1.59-.73-2.96-1.71-4.1-2.93-1.14-1.23-2.02-2.65-2.64-4.26s-.93-3.3-.93-5.09v-.07c0-1.78.32-3.48.95-5.11.63-1.62 1.52-3.05 2.65-4.29 1.14-1.23 2.52-2.22 4.13-2.95s3.4-1.09 5.38-1.09c1.96 0 3.74.36 5.35 1.09s2.98 1.71 4.12 2.94c1.14 1.22 2.02 2.64 2.64 4.25s.93 3.3.93 5.09c.02.02.02.05 0 .07 0 1.78-.32 3.49-.95 5.11s-1.52 3.05-2.65 4.29c-1.14 1.23-2.52 2.22-4.15 2.95-1.62.73-3.41 1.09-5.36 1.09zm39.48-2.19c1.8 0 3.44-.29 4.9-.87 1.46-.59 2.7-1.38 3.71-2.39 1.02-1 1.8-2.18 2.36-3.54.56-1.35.84-2.81.84-4.38v-.07c0-1.54-.28-3-.84-4.36s-1.34-2.56-2.36-3.57c-1.01-1.03-2.25-1.83-3.71-2.43-1.46-.59-3.1-.89-4.9-.89h-6.73v22.5h6.73zm-8.66-24.25h8.66c2.03 0 3.89.33 5.59.99 1.69.65 3.15 1.56 4.38 2.73 1.22 1.16 2.17 2.53 2.84 4.1s1 3.27 1 5.11v.07c0 1.83-.33 3.54-1 5.13-.67 1.58-1.62 2.95-2.84 4.12-1.23 1.16-2.69 2.08-4.38 2.75-1.7.66-3.56 1-5.59 1h-8.66v-26zm29.04 0h18.5v1.75h-16.56v10.29h14.89v1.74h-14.89v10.47H645v1.75h-18.69v-26zM376.57 144.8h24.99v6.5h-17.78v6.73h15.65v6.5h-15.65v6.97h18.02v6.5h-25.23v-33.2zm31.77 0h6.74l15.55 20.44V144.8h7.21V178h-6.21l-16.08-21.11V178h-7.21v-33.2zm49.33 33.67a21.97 21.97 0 0 1-7.45-1.3c-2.44-.87-4.65-2.21-6.64-4.01l4.32-5.17c1.51 1.23 3.07 2.21 4.67 2.94 1.59.73 3.34 1.09 5.24 1.09 1.52 0 2.69-.27 3.53-.83.84-.55 1.26-1.32 1.26-2.3v-.09c0-.48-.09-.9-.26-1.26-.18-.36-.51-.7-1-1.02-.5-.32-1.18-.63-2.05-.95-.87-.31-2-.65-3.39-.99-1.69-.41-3.21-.87-4.57-1.38s-2.53-1.13-3.47-1.87a7.63 7.63 0 0 1-2.22-2.78c-.52-1.1-.78-2.48-.78-4.12v-.1c0-1.52.28-2.88.85-4.1a9.42 9.42 0 0 1 2.37-3.15c1.03-.89 2.25-1.57 3.66-2.04 1.42-.48 2.98-.72 4.69-.72 2.44 0 4.67.37 6.71 1.1 2.04.72 3.92 1.77 5.62 3.13l-3.79 5.5c-1.49-1.01-2.94-1.81-4.36-2.4-1.43-.58-2.85-.88-4.27-.88-1.43 0-2.49.28-3.2.84-.71.55-1.07 1.24-1.07 2.06v.09c0 .54.1 1.01.31 1.4.2.4.57.75 1.11 1.07.55.32 1.28.62 2.22.9l3.54 1c1.68.44 3.18.94 4.49 1.49 1.32.55 2.43 1.22 3.33 1.99.9.78 1.59 1.69 2.05 2.73s.69 2.29.69 3.75v.09c0 1.64-.3 3.11-.9 4.39a9.1 9.1 0 0 1-2.49 3.22c-1.07.87-2.35 1.54-3.83 1.99-1.48.46-3.12.69-4.92.69zm18.82-33.67h7.31V178h-7.31v-33.2zm15.61 0h6.73l15.56 20.44V144.8h7.21V178h-6.22l-16.07-21.11V178h-7.21v-33.2zm53.68 27.03c1.46 0 2.8-.27 4.04-.8a9.25 9.25 0 0 0 3.15-2.23 10.52 10.52 0 0 0 2.04-3.3c.49-1.25.73-2.58.73-4.01v-.09c0-1.42-.24-2.77-.73-4.03a10.01 10.01 0 0 0-2.09-3.32c-.9-.95-1.97-1.7-3.2-2.26-1.23-.55-2.58-.82-4.03-.82-1.49 0-2.84.26-4.06.8-1.21.54-2.26 1.28-3.13 2.23s-1.54 2.05-2.03 3.3-.74 2.58-.74 4v.1c0 1.42.25 2.77.74 4.03.49 1.27 1.18 2.37 2.08 3.32s1.96 1.7 3.18 2.25c1.22.56 2.57.83 4.05.83zm-.09 6.74c-2.56 0-4.92-.45-7.07-1.35-2.15-.91-4-2.12-5.57-3.66-1.57-1.53-2.78-3.33-3.65-5.4s-1.31-4.29-1.31-6.67v-.09c0-2.37.45-4.59 1.33-6.66a17.18 17.18 0 0 1 3.68-5.46c1.56-1.56 3.43-2.8 5.59-3.7 2.17-.9 4.53-1.35 7.09-1.35s4.92.45 7.07 1.35 4.01 2.12 5.57 3.65c1.57 1.54 2.78 3.34 3.65 5.41s1.31 4.29 1.31 6.66v.1c0 2.37-.44 4.59-1.33 6.66a17.13 17.13 0 0 1-3.68 5.46c-1.56 1.56-3.42 2.79-5.59 3.7-2.17.9-4.53 1.35-7.09 1.35z" fill="#a3cce4" fill-rule="nonzero"/></svg>