<?xml version="1.0" encoding="UTF-8"?>
<!DOCTYPE svg PUBLIC "-//W3C//DTD SVG 1.1//EN" "http://www.w3.org/Graphics/SVG/1.1/DTD/svg11.dtd">
<!-- Creator: CorelDRAW -->
<svg xmlns="http://www.w3.org/2000/svg" xml:space="preserve" width="940px" height="280px" version="1.1" style="shape-rendering:geometricPrecision; text-rendering:geometricPrecision; image-rendering:optimizeQuality; fill-rule:evenodd; clip-rule:evenodd"
viewBox="0 0 940 280"
 xmlns:xlink="http://www.w3.org/1999/xlink"
 xmlns:xodm="http://www.corel.com/coreldraw/odm/2003">
 <defs>
  <style type="text/css">
   <![CDATA[
    .fil0 {fill:#C5E6FA}
    .fil1 {fill:#6693AE;fill-rule:nonzero}
   ]]>
  </style>
 </defs>
 <g id="Fundo">
  <metadata id="CorelCorpID_0Corel-Layer"/>
  <polygon class="fil0" points="0,0 940,0 940,280 0,280 "/>
 </g>
 <g id="Arte">
  <metadata id="CorelCorpID_1Corel-Layer"/>
  <path class="fil1" d="M295 108.57l1.93 0 0 24.25 15.27 0 0 1.75 -17.2 0 0 -26zm40.6 16.97l-6.84 -15.04 -6.87 15.04 13.71 0zm-7.73 -17.16l1.86 0 12.1 26.19 -2.11 0 -3.31 -7.28 -15.34 0 -3.3 7.28 -2.01 0 12.11 -26.19zm30.83 24.44c2.23,0 4,-0.48 5.31,-1.44 1.31,-0.95 1.97,-2.25 1.97,-3.89l0 -0.07c0,-1.62 -0.68,-2.87 -2.03,-3.75 -1.35,-0.88 -3.31,-1.32 -5.89,-1.32l-8.8 0 0 10.47 9.44 0zm-0.86 -12.22c0.97,0 1.86,-0.12 2.68,-0.35 0.81,-0.24 1.52,-0.58 2.11,-1.03 0.6,-0.45 1.06,-1.01 1.4,-1.69 0.33,-0.67 0.5,-1.44 0.5,-2.31l0 -0.08c0,-1.45 -0.56,-2.61 -1.67,-3.49 -1.12,-0.89 -2.73,-1.33 -4.83,-1.33l-8.77 0 0 10.28 8.58 0zm-10.51 -12.03l10.72 0c1.48,0 2.79,0.2 3.94,0.61 1.15,0.41 2.09,0.97 2.8,1.7 1.11,1.11 1.67,2.47 1.67,4.09l0 0.07c0,0.9 -0.13,1.68 -0.39,2.35 -0.26,0.67 -0.6,1.25 -1.02,1.75 -0.42,0.49 -0.89,0.91 -1.43,1.25 -0.53,0.33 -1.05,0.61 -1.57,0.83 0.76,0.2 1.51,0.47 2.22,0.8 0.72,0.33 1.35,0.75 1.88,1.26 0.52,0.5 0.95,1.1 1.27,1.78 0.33,0.68 0.49,1.46 0.49,2.35l0 0.08c0,1.08 -0.23,2.06 -0.67,2.94 -0.45,0.88 -1.07,1.62 -1.89,2.23 -0.82,0.6 -1.79,1.07 -2.93,1.41 -1.14,0.33 -2.41,0.5 -3.82,0.5l-11.27 0 0 -26zm38.78 24.7c1.6,0 3.08,-0.31 4.43,-0.91 1.35,-0.61 2.52,-1.44 3.49,-2.49 0.98,-1.05 1.74,-2.28 2.29,-3.7 0.54,-1.41 0.82,-2.92 0.82,-4.53l0 -0.07c0,-1.61 -0.28,-3.13 -0.84,-4.55 -0.56,-1.43 -1.32,-2.66 -2.3,-3.72 -0.98,-1.05 -2.15,-1.88 -3.51,-2.5 -1.36,-0.62 -2.85,-0.93 -4.46,-0.93 -1.61,0 -3.09,0.3 -4.44,0.91 -1.35,0.61 -2.51,1.44 -3.49,2.49 -0.98,1.05 -1.74,2.28 -2.28,3.69 -0.55,1.41 -0.82,2.92 -0.82,4.53l0 0.08c0,1.61 0.28,3.12 0.84,4.55 0.55,1.42 1.32,2.66 2.3,3.71 0.98,1.05 2.15,1.89 3.51,2.51 1.36,0.62 2.85,0.93 4.46,0.93zm-0.08 1.74c-1.98,0 -3.77,-0.36 -5.37,-1.09 -1.59,-0.73 -2.96,-1.71 -4.1,-2.94 -1.14,-1.22 -2.02,-2.64 -2.64,-4.25 -0.62,-1.61 -0.93,-3.3 -0.93,-5.09l0 -0.07c0,-1.78 0.32,-3.49 0.95,-5.11 0.63,-1.62 1.52,-3.05 2.66,-4.29 1.14,-1.24 2.51,-2.22 4.12,-2.95 1.61,-0.73 3.4,-1.1 5.39,-1.1 1.95,0 3.73,0.37 5.34,1.1 1.61,0.73 2.99,1.71 4.13,2.93 1.13,1.23 2.01,2.65 2.63,4.26 0.62,1.6 0.93,3.3 0.93,5.08 0.03,0.03 0.03,0.05 0,0.08 0,1.78 -0.31,3.48 -0.95,5.1 -0.63,1.63 -1.51,3.06 -2.65,4.29 -1.14,1.24 -2.52,2.23 -4.14,2.96 -1.62,0.73 -3.41,1.09 -5.37,1.09zm30.38 -12.96c1.09,0 2.1,-0.14 3.03,-0.41 0.92,-0.27 1.72,-0.67 2.39,-1.17 0.67,-0.51 1.2,-1.13 1.58,-1.87 0.38,-0.73 0.58,-1.57 0.58,-2.51l0 -0.07c0,-1.77 -0.66,-3.16 -1.95,-4.18 -1.31,-1.02 -3.14,-1.52 -5.52,-1.52l-8.88 0 0 11.73 8.77 0zm-10.7 -13.48l10.92 0c1.61,0 3.04,0.23 4.27,0.69 1.24,0.46 2.26,1.08 3.05,1.87 0.62,0.62 1.1,1.35 1.45,2.17 0.34,0.83 0.52,1.72 0.52,2.66l0 0.07c0,1.09 -0.2,2.07 -0.58,2.92 -0.38,0.85 -0.92,1.59 -1.6,2.21 -0.68,0.62 -1.48,1.12 -2.41,1.5 -0.93,0.39 -1.94,0.65 -3.03,0.8l8.58 11.11 -2.45 0 -8.28 -10.77 -0.07 0 -8.44 0 0 10.77 -1.93 0 0 -26zm44.46 16.97l-6.84 -15.04 -6.87 15.04 13.71 0zm-7.73 -17.16l1.86 0 12.11 26.19 -2.12 0 -3.31 -7.28 -15.33 0 -3.31 7.28 -2 0 12.1 -26.19zm26.67 1.94l-9.06 0 0 -1.75 20.05 0 0 1.75 -9.06 0 0 24.25 -1.93 0 0 -24.25zm31.46 -9.1l2.26 1.11 -3.97 3.83 -1.56 0 3.27 -4.94zm-2.64 32.05c1.61,0 3.09,-0.31 4.44,-0.91 1.35,-0.61 2.51,-1.44 3.49,-2.49 0.98,-1.05 1.74,-2.28 2.28,-3.7 0.55,-1.41 0.82,-2.92 0.82,-4.53l0 -0.07c0,-1.61 -0.28,-3.13 -0.84,-4.55 -0.55,-1.43 -1.32,-2.66 -2.3,-3.72 -0.98,-1.05 -2.15,-1.88 -3.51,-2.5 -1.36,-0.62 -2.85,-0.93 -4.46,-0.93 -1.6,0 -3.08,0.3 -4.43,0.91 -1.35,0.61 -2.52,1.44 -3.49,2.49 -0.98,1.05 -1.74,2.28 -2.29,3.69 -0.54,1.41 -0.82,2.92 -0.82,4.53l0 0.08c0,1.61 0.28,3.12 0.84,4.55 0.56,1.42 1.32,2.66 2.3,3.71 0.98,1.05 2.15,1.89 3.51,2.51 1.36,0.62 2.85,0.93 4.46,0.93zm-0.08 1.74c-1.98,0 -3.76,-0.36 -5.36,-1.09 -1.6,-0.73 -2.97,-1.71 -4.11,-2.94 -1.13,-1.22 -2.01,-2.64 -2.63,-4.25 -0.62,-1.61 -0.93,-3.3 -0.93,-5.09l0 -0.07c0,-1.78 0.31,-3.49 0.95,-5.11 0.63,-1.62 1.51,-3.05 2.65,-4.29 1.14,-1.24 2.51,-2.22 4.12,-2.95 1.61,-0.73 3.41,-1.1 5.39,-1.1 1.95,0 3.74,0.37 5.35,1.1 1.61,0.73 2.98,1.71 4.12,2.93 1.14,1.23 2.02,2.65 2.64,4.26 0.61,1.6 0.92,3.3 0.92,5.08 0.03,0.03 0.03,0.05 0,0.08 0,1.78 -0.31,3.48 -0.94,5.1 -0.63,1.63 -1.52,3.06 -2.66,4.29 -1.14,1.24 -2.52,2.23 -4.14,2.96 -1.62,0.73 -3.41,1.09 -5.37,1.09zm30.38 -12.96c1.09,0 2.1,-0.14 3.03,-0.41 0.93,-0.27 1.73,-0.67 2.4,-1.17 0.66,-0.51 1.19,-1.13 1.57,-1.87 0.39,-0.73 0.58,-1.57 0.58,-2.51l0 -0.07c0,-1.77 -0.65,-3.16 -1.95,-4.18 -1.3,-1.02 -3.14,-1.52 -5.52,-1.52l-8.87 0 0 11.73 8.76 0zm-10.69 -13.48l10.92 0c1.61,0 3.03,0.23 4.27,0.69 1.24,0.46 2.25,1.08 3.04,1.87 0.62,0.62 1.1,1.35 1.45,2.17 0.35,0.83 0.52,1.72 0.52,2.66l0 0.07c0,1.09 -0.19,2.07 -0.58,2.92 -0.38,0.85 -0.91,1.59 -1.59,2.21 -0.68,0.62 -1.49,1.12 -2.42,1.5 -0.92,0.39 -1.93,0.65 -3.02,0.8l8.58 11.11 -2.45 0 -8.29 -10.77 -0.07 0 -8.43 0 0 10.77 -1.93 0 0 -26zm27.11 0l1.93 0 0 26 -1.93 0 0 -26zm21.87 24.7c1.61,0 3.09,-0.31 4.44,-0.91 1.35,-0.61 2.51,-1.44 3.49,-2.49 0.98,-1.05 1.74,-2.28 2.29,-3.7 0.54,-1.41 0.81,-2.92 0.81,-4.53l0 -0.07c0,-1.61 -0.28,-3.13 -0.83,-4.55 -0.56,-1.43 -1.33,-2.66 -2.31,-3.72 -0.97,-1.05 -2.14,-1.88 -3.5,-2.5 -1.37,-0.62 -2.85,-0.93 -4.46,-0.93 -1.61,0 -3.09,0.3 -4.44,0.91 -1.35,0.61 -2.51,1.44 -3.49,2.49 -0.98,1.05 -1.74,2.28 -2.28,3.69 -0.55,1.41 -0.82,2.92 -0.82,4.53l0 0.08c0,1.61 0.28,3.12 0.83,4.55 0.56,1.42 1.33,2.66 2.31,3.71 0.97,1.05 2.14,1.89 3.51,2.51 1.36,0.62 2.84,0.93 4.45,0.93zm-0.07 1.74c-1.98,0 -3.77,-0.36 -5.37,-1.09 -1.59,-0.73 -2.96,-1.71 -4.1,-2.94 -1.14,-1.22 -2.02,-2.64 -2.64,-4.25 -0.62,-1.61 -0.93,-3.3 -0.93,-5.09l0 -0.07c0,-1.78 0.32,-3.49 0.95,-5.11 0.63,-1.62 1.52,-3.05 2.66,-4.29 1.13,-1.24 2.51,-2.22 4.12,-2.95 1.61,-0.73 3.4,-1.1 5.38,-1.1 1.96,0 3.74,0.37 5.35,1.1 1.61,0.73 2.98,1.71 4.12,2.93 1.14,1.23 2.02,2.65 2.64,4.26 0.62,1.6 0.93,3.3 0.93,5.08 0.02,0.03 0.02,0.05 0,0.08 0,1.78 -0.32,3.48 -0.95,5.1 -0.63,1.63 -1.52,3.06 -2.65,4.29 -1.14,1.24 -2.52,2.23 -4.15,2.96 -1.62,0.73 -3.41,1.09 -5.36,1.09zm39.48 -2.19c1.8,0 3.44,-0.29 4.9,-0.87 1.46,-0.59 2.7,-1.38 3.71,-2.39 1.02,-1 1.8,-2.19 2.36,-3.54 0.56,-1.35 0.84,-2.81 0.84,-4.38l0 -0.07c0,-1.54 -0.28,-3 -0.84,-4.36 -0.56,-1.37 -1.34,-2.56 -2.36,-3.58 -1.01,-1.02 -2.25,-1.82 -3.71,-2.42 -1.46,-0.6 -3.1,-0.89 -4.9,-0.89l-6.73 0 0 22.5 6.73 0zm-8.66 -24.25l8.66 0c2.03,0 3.89,0.33 5.59,0.98 1.69,0.66 3.15,1.57 4.38,2.73 1.22,1.17 2.17,2.54 2.84,4.11 0.67,1.57 1,3.27 1,5.1l0 0.08c0,1.83 -0.33,3.54 -1,5.12 -0.67,1.59 -1.62,2.96 -2.84,4.13 -1.23,1.16 -2.69,2.08 -4.38,2.74 -1.7,0.67 -3.56,1.01 -5.59,1.01l-8.66 0 0 -26zm29.04 0l18.5 0 0 1.75 -16.56 0 0 10.28 14.89 0 0 1.75 -14.89 0 0 10.47 16.75 0 0 1.75 -18.69 0 0 -26zm-266.87 52.76c1.84,0 3.26,-0.48 4.27,-1.45 1.01,-0.96 1.52,-2.16 1.52,-3.58l0 -0.09c0,-1.65 -0.53,-2.9 -1.59,-3.75 -1.06,-0.85 -2.51,-1.28 -4.34,-1.28l-5.64 0 0 10.15 5.78 0zm-13.09 -16.74l13.57 0c1.99,0 3.77,0.27 5.33,0.83 1.57,0.55 2.9,1.33 3.99,2.34 1.09,1.02 1.92,2.23 2.51,3.63 0.58,1.41 0.88,2.97 0.88,4.68l0 0.09c0,1.93 -0.35,3.62 -1.05,5.07 -0.69,1.46 -1.65,2.68 -2.87,3.66 -1.21,0.98 -2.64,1.71 -4.26,2.2 -1.63,0.49 -3.38,0.74 -5.25,0.74l-5.54 0 0 9.96 -7.31 0 0 -33.2zm31.68 0l25 0 0 6.49 -17.79 0 0 6.74 15.65 0 0 6.5 -15.65 0 0 6.97 18.03 0 0 6.5 -25.24 0 0 -33.2zm43.64 33.67c-2.53,0 -5.01,-0.43 -7.45,-1.3 -2.43,-0.87 -4.65,-2.21 -6.64,-4.01l4.32 -5.17c1.52,1.23 3.07,2.21 4.67,2.94 1.6,0.73 3.34,1.09 5.24,1.09 1.52,0 2.7,-0.28 3.53,-0.83 0.84,-0.55 1.26,-1.32 1.26,-2.3l0 -0.09c0,-0.48 -0.09,-0.9 -0.26,-1.26 -0.18,-0.36 -0.51,-0.7 -1,-1.02 -0.49,-0.32 -1.18,-0.63 -2.04,-0.95 -0.87,-0.32 -2.01,-0.65 -3.4,-1 -1.69,-0.41 -3.2,-0.86 -4.57,-1.37 -1.36,-0.51 -2.52,-1.13 -3.47,-1.87 -0.95,-0.75 -1.69,-1.67 -2.21,-2.78 -0.53,-1.11 -0.79,-2.48 -0.79,-4.13l0 -0.09c0,-1.52 0.29,-2.89 0.85,-4.1 0.57,-1.22 1.36,-2.27 2.38,-3.16 1.02,-0.88 2.24,-1.56 3.66,-2.04 1.41,-0.47 2.98,-0.71 4.68,-0.71 2.44,0 4.68,0.37 6.71,1.09 2.04,0.73 3.92,1.77 5.63,3.13l-3.8 5.51c-1.48,-1.02 -2.94,-1.81 -4.36,-2.4 -1.43,-0.58 -2.85,-0.88 -4.27,-0.88 -1.42,0 -2.49,0.28 -3.2,0.83 -0.71,0.56 -1.07,1.24 -1.07,2.07l0 0.09c0,0.54 0.1,1 0.31,1.4 0.21,0.4 0.58,0.75 1.11,1.07 0.55,0.31 1.29,0.61 2.22,0.9 0.94,0.28 2.12,0.61 3.54,0.99 1.68,0.45 3.18,0.94 4.5,1.5 1.31,0.55 2.42,1.22 3.32,1.99 0.9,0.77 1.59,1.68 2.05,2.73 0.46,1.04 0.69,2.29 0.69,3.74l0 0.1c0,1.64 -0.3,3.11 -0.89,4.39 -0.61,1.28 -1.44,2.35 -2.5,3.22 -1.07,0.87 -2.35,1.53 -3.83,1.99 -1.48,0.46 -3.12,0.69 -4.92,0.69zm34.71 -6.64c1.55,0 3.01,-0.3 4.37,-0.9l-5.41 -4.6 4.65 -5.22 5.45 4.94c0.6,-1.33 0.9,-2.85 0.9,-4.56l0 -0.09c0,-1.43 -0.24,-2.77 -0.73,-4.03 -0.49,-1.27 -1.19,-2.38 -2.09,-3.32 -0.9,-0.95 -1.97,-1.7 -3.2,-2.26 -1.23,-0.55 -2.58,-0.83 -4.03,-0.83 -1.49,0 -2.84,0.27 -4.05,0.81 -1.22,0.54 -2.27,1.28 -3.13,2.23 -0.88,0.95 -1.55,2.04 -2.04,3.29 -0.49,1.25 -0.74,2.59 -0.74,4.01l0 0.1c0,1.42 0.25,2.76 0.74,4.03 0.49,1.26 1.18,2.37 2.08,3.32 0.9,0.95 1.96,1.7 3.18,2.25 1.22,0.55 2.57,0.83 4.05,0.83zm9.78 3.89c-1.43,0.92 -2.96,1.62 -4.61,2.11 -1.64,0.49 -3.39,0.74 -5.26,0.74 -2.56,0 -4.92,-0.46 -7.07,-1.36 -2.15,-0.9 -4,-2.11 -5.57,-3.65 -1.57,-1.53 -2.78,-3.33 -3.65,-5.4 -0.87,-2.08 -1.31,-4.3 -1.31,-6.67l0 -0.09c0,-2.37 0.45,-4.6 1.33,-6.67 0.89,-2.07 2.11,-3.89 3.68,-5.45 1.56,-1.57 3.43,-2.8 5.59,-3.7 2.17,-0.9 4.53,-1.35 7.09,-1.35 2.57,0 4.92,0.45 7.07,1.35 2.15,0.9 4.01,2.12 5.57,3.65 1.57,1.54 2.79,3.34 3.66,5.41 0.87,2.07 1.3,4.29 1.3,6.66l0 0.1c0,1.74 -0.25,3.41 -0.76,5.02 -0.5,1.62 -1.23,3.12 -2.18,4.51l3.42 2.89 -4.65 5.17 -3.65 -3.27zm28.17 2.8c-4.46,0 -7.97,-1.23 -10.53,-3.7 -2.56,-2.47 -3.84,-6.15 -3.84,-11.05l0 -18.97 7.3 0 0 18.78c0,2.72 0.63,4.76 1.9,6.14 1.26,1.38 3.02,2.06 5.26,2.06 2.25,0 4,-0.66 5.27,-1.99 1.26,-1.33 1.9,-3.32 1.9,-5.97l0 -19.02 7.3 0 0 18.73c0,2.53 -0.34,4.73 -1.02,6.59 -0.68,1.87 -1.65,3.43 -2.92,4.67 -1.26,1.25 -2.8,2.19 -4.6,2.8 -1.8,0.62 -3.81,0.93 -6.02,0.93zm22.34 -33.72l7.3 0 0 33.2 -7.3 0 0 -33.2zm27.46 33.67c-2.53,0 -5.01,-0.43 -7.45,-1.3 -2.43,-0.87 -4.65,-2.21 -6.64,-4.01l4.32 -5.17c1.51,1.23 3.07,2.21 4.67,2.94 1.6,0.73 3.34,1.09 5.24,1.09 1.52,0 2.7,-0.28 3.53,-0.83 0.84,-0.55 1.26,-1.32 1.26,-2.3l0 -0.09c0,-0.48 -0.09,-0.9 -0.26,-1.26 -0.18,-0.36 -0.51,-0.7 -1,-1.02 -0.49,-0.32 -1.17,-0.63 -2.04,-0.95 -0.87,-0.32 -2.01,-0.65 -3.4,-1 -1.69,-0.41 -3.21,-0.86 -4.57,-1.37 -1.36,-0.51 -2.52,-1.13 -3.47,-1.87 -0.95,-0.75 -1.69,-1.67 -2.22,-2.78 -0.52,-1.11 -0.78,-2.48 -0.78,-4.13l0 -0.09c0,-1.52 0.29,-2.89 0.85,-4.1 0.57,-1.22 1.36,-2.27 2.38,-3.16 1.02,-0.88 2.24,-1.56 3.66,-2.04 1.41,-0.47 2.98,-0.71 4.68,-0.71 2.44,0 4.68,0.37 6.72,1.09 2.03,0.73 3.91,1.77 5.62,3.13l-3.8 5.51c-1.48,-1.02 -2.94,-1.81 -4.36,-2.4 -1.43,-0.58 -2.85,-0.88 -4.27,-0.88 -1.42,0 -2.49,0.28 -3.2,0.83 -0.71,0.56 -1.07,1.24 -1.07,2.07l0 0.09c0,0.54 0.1,1 0.31,1.4 0.2,0.4 0.58,0.75 1.11,1.07 0.55,0.31 1.28,0.61 2.22,0.9 0.94,0.28 2.12,0.61 3.54,0.99 1.68,0.45 3.18,0.94 4.5,1.5 1.31,0.55 2.42,1.22 3.32,1.99 0.9,0.77 1.59,1.68 2.05,2.73 0.46,1.04 0.69,2.29 0.69,3.74l0 0.1c0,1.64 -0.3,3.11 -0.89,4.39 -0.61,1.28 -1.44,2.35 -2.5,3.22 -1.07,0.87 -2.35,1.53 -3.83,1.99 -1.48,0.46 -3.12,0.69 -4.92,0.69zm37.56 -14.37l-4.41 -10.77 -4.41 10.77 8.82 0zm-7.68 -19.54l6.73 0 14.23 33.44 -7.64 0 -3.03 -7.45 -14.04 0 -3.04 7.45 -7.44 0 14.23 -33.44z"/>
 </g>
</svg>
