<?xml version="1.0" encoding="UTF-8"?>
<!DOCTYPE svg PUBLIC "-//W3C//DTD SVG 1.1//EN" "http://www.w3.org/Graphics/SVG/1.1/DTD/svg11.dtd">
<!-- Creator: CorelDRAW -->
<svg xmlns="http://www.w3.org/2000/svg" xml:space="preserve" width="940px" height="280px" version="1.1" style="shape-rendering:geometricPrecision; text-rendering:geometricPrecision; image-rendering:optimizeQuality; fill-rule:evenodd; clip-rule:evenodd"
viewBox="0 0 940 280"
 xmlns:xlink="http://www.w3.org/1999/xlink"
 xmlns:xodm="http://www.corel.com/coreldraw/odm/2003">
 <defs>
  <style type="text/css">
   <![CDATA[
    .fil0 {fill:#F1F9FD}
    .fil1 {fill:#A7C4D2;fill-rule:nonzero}
   ]]>
  </style>
 </defs>
 <g id="Fundo">
  <metadata id="CorelCorpID_0Corel-Layer"/>
  <polygon class="fil0" points="0,0 940,0 940,280 0,280 "/>
 </g>
 <g id="Arte">
  <metadata id="CorelCorpID_1Corel-Layer"/>
  <path class="fil1" d="M295 108.78l1.94 0 0 24.25 15.26 0 0 1.75 -17.2 0 0 -26zm40.6 16.97l-6.84 -15.04 -6.87 15.04 13.71 0zm-7.73 -17.15l1.86 0 12.1 26.18 -2.11 0 -3.31 -7.28 -15.34 0 -3.3 7.28 -2.01 0 12.11 -26.18zm30.83 24.43c2.23,0 4,-0.47 5.31,-1.43 1.31,-0.96 1.97,-2.26 1.97,-3.9l0 -0.07c0,-1.62 -0.68,-2.87 -2.03,-3.75 -1.35,-0.88 -3.31,-1.32 -5.89,-1.32l-8.8 0 0 10.47 9.44 0zm-0.86 -12.21c0.97,0 1.86,-0.12 2.68,-0.36 0.81,-0.24 1.52,-0.58 2.11,-1.03 0.6,-0.45 1.06,-1.01 1.4,-1.68 0.33,-0.67 0.5,-1.45 0.5,-2.32l0 -0.07c0,-1.45 -0.56,-2.62 -1.67,-3.5 -1.12,-0.89 -2.73,-1.33 -4.83,-1.33l-8.77 0 0 10.29 8.58 0zm-10.51 -12.04l10.72 0c1.48,0 2.79,0.21 3.94,0.61 1.15,0.41 2.09,0.98 2.8,1.7 1.11,1.11 1.67,2.48 1.67,4.09l0 0.08c0,0.89 -0.13,1.67 -0.39,2.34 -0.26,0.67 -0.6,1.25 -1.02,1.75 -0.42,0.49 -0.89,0.91 -1.43,1.25 -0.53,0.33 -1.05,0.61 -1.57,0.83 0.76,0.2 1.51,0.47 2.22,0.8 0.72,0.34 1.35,0.75 1.88,1.26 0.52,0.51 0.95,1.1 1.27,1.78 0.33,0.68 0.49,1.46 0.49,2.35l0 0.08c0,1.09 -0.23,2.07 -0.67,2.94 -0.45,0.88 -1.07,1.63 -1.89,2.23 -0.82,0.6 -1.79,1.07 -2.93,1.41 -1.14,0.33 -2.41,0.5 -3.82,0.5l-11.27 0 0 -26zm38.78 24.7c1.6,0 3.08,-0.3 4.43,-0.91 1.35,-0.61 2.52,-1.44 3.49,-2.49 0.98,-1.05 1.74,-2.28 2.29,-3.69 0.54,-1.42 0.82,-2.93 0.82,-4.54l0 -0.07c0,-1.61 -0.28,-3.13 -0.84,-4.55 -0.56,-1.42 -1.32,-2.66 -2.3,-3.71 -0.98,-1.06 -2.15,-1.89 -3.51,-2.51 -1.36,-0.62 -2.85,-0.93 -4.46,-0.93 -1.61,0 -3.09,0.31 -4.44,0.91 -1.35,0.61 -2.51,1.44 -3.49,2.49 -0.98,1.05 -1.74,2.28 -2.28,3.7 -0.55,1.41 -0.82,2.92 -0.82,4.53l0 0.07c0,1.61 0.28,3.13 0.84,4.55 0.55,1.42 1.32,2.66 2.3,3.71 0.98,1.06 2.15,1.89 3.51,2.51 1.36,0.62 2.85,0.93 4.46,0.93zm-0.08 1.74c-1.98,0 -3.77,-0.36 -5.37,-1.09 -1.59,-0.73 -2.96,-1.71 -4.1,-2.93 -1.14,-1.23 -2.02,-2.65 -2.64,-4.26 -0.62,-1.61 -0.93,-3.3 -0.93,-5.09l0 -0.07c0,-1.78 0.32,-3.48 0.95,-5.11 0.63,-1.62 1.52,-3.05 2.66,-4.29 1.14,-1.23 2.51,-2.22 4.12,-2.95 1.61,-0.73 3.4,-1.09 5.39,-1.09 1.95,0 3.73,0.36 5.34,1.09 1.61,0.73 2.99,1.71 4.13,2.94 1.13,1.22 2.01,2.64 2.63,4.25 0.62,1.61 0.93,3.3 0.93,5.09 0.03,0.02 0.03,0.05 0,0.07 0,1.78 -0.31,3.49 -0.95,5.11 -0.63,1.62 -1.51,3.05 -2.65,4.29 -1.14,1.23 -2.52,2.22 -4.14,2.95 -1.62,0.73 -3.41,1.09 -5.37,1.09zm30.38 -12.96c1.09,0 2.1,-0.13 3.03,-0.41 0.93,-0.27 1.72,-0.66 2.39,-1.17 0.67,-0.51 1.2,-1.13 1.58,-1.86 0.38,-0.73 0.58,-1.58 0.58,-2.52l0 -0.07c0,-1.77 -0.65,-3.16 -1.95,-4.17 -1.3,-1.02 -3.14,-1.53 -5.52,-1.53l-8.88 0 0 11.73 8.77 0zm-10.7 -13.48l10.92 0c1.61,0 3.04,0.23 4.27,0.69 1.24,0.46 2.26,1.08 3.05,1.87 0.62,0.62 1.1,1.35 1.45,2.18 0.34,0.83 0.52,1.71 0.52,2.65l0 0.08c0,1.09 -0.19,2.06 -0.58,2.91 -0.38,0.86 -0.91,1.59 -1.6,2.21 -0.68,0.62 -1.48,1.12 -2.41,1.51 -0.93,0.38 -1.94,0.65 -3.03,0.79l8.58 11.11 -2.45 0 -8.28 -10.77 -0.07 0 -8.44 0 0 10.77 -1.93 0 0 -26zm44.46 16.97l-6.84 -15.04 -6.87 15.04 13.71 0zm-7.73 -17.15l1.86 0 12.11 26.18 -2.12 0 -3.31 -7.28 -15.33 0 -3.31 7.28 -2 0 12.1 -26.18zm26.67 1.93l-9.06 0 0 -1.75 20.05 0 0 1.75 -9.06 0 0 24.25 -1.93 0 0 -24.25zm31.46 -9.1l2.26 1.11 -3.97 3.83 -1.56 0 3.27 -4.94zm-2.64 32.05c1.61,0 3.09,-0.3 4.44,-0.91 1.35,-0.61 2.51,-1.44 3.49,-2.49 0.98,-1.05 1.74,-2.28 2.28,-3.69 0.55,-1.42 0.82,-2.93 0.82,-4.54l0 -0.07c0,-1.61 -0.28,-3.13 -0.84,-4.55 -0.55,-1.42 -1.32,-2.66 -2.3,-3.71 -0.98,-1.06 -2.15,-1.89 -3.51,-2.51 -1.36,-0.62 -2.85,-0.93 -4.46,-0.93 -1.6,0 -3.08,0.31 -4.43,0.91 -1.35,0.61 -2.52,1.44 -3.49,2.49 -0.98,1.05 -1.74,2.28 -2.29,3.7 -0.54,1.41 -0.82,2.92 -0.82,4.53l0 0.07c0,1.61 0.28,3.13 0.84,4.55 0.56,1.42 1.32,2.66 2.3,3.71 0.98,1.06 2.15,1.89 3.51,2.51 1.36,0.62 2.85,0.93 4.46,0.93zm-0.08 1.74c-1.98,0 -3.76,-0.36 -5.36,-1.09 -1.6,-0.73 -2.97,-1.71 -4.11,-2.93 -1.13,-1.23 -2.01,-2.65 -2.63,-4.26 -0.62,-1.61 -0.93,-3.3 -0.93,-5.09l0 -0.07c0,-1.78 0.31,-3.48 0.95,-5.11 0.63,-1.62 1.51,-3.05 2.65,-4.29 1.14,-1.23 2.51,-2.22 4.12,-2.95 1.61,-0.73 3.41,-1.09 5.39,-1.09 1.95,0 3.74,0.36 5.35,1.09 1.61,0.73 2.98,1.71 4.12,2.94 1.14,1.22 2.02,2.64 2.64,4.25 0.61,1.61 0.92,3.3 0.92,5.09 0.03,0.02 0.03,0.05 0,0.07 0,1.78 -0.31,3.49 -0.94,5.11 -0.63,1.62 -1.52,3.05 -2.66,4.29 -1.14,1.23 -2.52,2.22 -4.14,2.95 -1.62,0.73 -3.41,1.09 -5.37,1.09zm30.38 -12.96c1.09,0 2.1,-0.13 3.03,-0.41 0.93,-0.27 1.73,-0.66 2.4,-1.17 0.66,-0.51 1.19,-1.13 1.57,-1.86 0.39,-0.73 0.58,-1.58 0.58,-2.52l0 -0.07c0,-1.77 -0.65,-3.16 -1.95,-4.17 -1.3,-1.02 -3.14,-1.53 -5.52,-1.53l-8.87 0 0 11.73 8.76 0zm-10.69 -13.48l10.92 0c1.61,0 3.03,0.23 4.27,0.69 1.24,0.46 2.25,1.08 3.04,1.87 0.62,0.62 1.1,1.35 1.45,2.18 0.35,0.83 0.52,1.71 0.52,2.65l0 0.08c0,1.09 -0.19,2.06 -0.58,2.91 -0.38,0.86 -0.91,1.59 -1.59,2.21 -0.68,0.62 -1.49,1.12 -2.42,1.51 -0.92,0.38 -1.93,0.65 -3.02,0.79l8.58 11.11 -2.45 0 -8.29 -10.77 -0.07 0 -8.43 0 0 10.77 -1.93 0 0 -26zm27.11 0l1.93 0 0 26 -1.93 0 0 -26zm21.87 24.7c1.61,0 3.09,-0.3 4.44,-0.91 1.35,-0.61 2.51,-1.44 3.49,-2.49 0.98,-1.05 1.74,-2.28 2.29,-3.69 0.54,-1.42 0.81,-2.93 0.81,-4.54l0 -0.07c0,-1.61 -0.28,-3.13 -0.83,-4.55 -0.56,-1.42 -1.33,-2.66 -2.31,-3.71 -0.97,-1.06 -2.14,-1.89 -3.5,-2.51 -1.37,-0.62 -2.85,-0.93 -4.46,-0.93 -1.61,0 -3.09,0.31 -4.44,0.91 -1.35,0.61 -2.51,1.44 -3.49,2.49 -0.98,1.05 -1.74,2.28 -2.28,3.7 -0.55,1.41 -0.82,2.92 -0.82,4.53l0 0.07c0,1.61 0.28,3.13 0.83,4.55 0.56,1.42 1.33,2.66 2.31,3.71 0.97,1.06 2.14,1.89 3.51,2.51 1.36,0.62 2.84,0.93 4.45,0.93zm-0.07 1.74c-1.98,0 -3.77,-0.36 -5.37,-1.09 -1.59,-0.73 -2.96,-1.71 -4.1,-2.93 -1.14,-1.23 -2.02,-2.65 -2.64,-4.26 -0.62,-1.61 -0.93,-3.3 -0.93,-5.09l0 -0.07c0,-1.78 0.32,-3.48 0.95,-5.11 0.63,-1.62 1.52,-3.05 2.65,-4.29 1.14,-1.23 2.52,-2.22 4.13,-2.95 1.61,-0.73 3.4,-1.09 5.38,-1.09 1.96,0 3.74,0.36 5.35,1.09 1.61,0.73 2.98,1.71 4.12,2.94 1.14,1.22 2.02,2.64 2.64,4.25 0.62,1.61 0.93,3.3 0.93,5.09 0.02,0.02 0.02,0.05 0,0.07 0,1.78 -0.32,3.49 -0.95,5.11 -0.63,1.62 -1.52,3.05 -2.65,4.29 -1.14,1.23 -2.52,2.22 -4.15,2.95 -1.62,0.73 -3.41,1.09 -5.36,1.09zm39.48 -2.19c1.8,0 3.44,-0.29 4.9,-0.87 1.46,-0.59 2.7,-1.38 3.71,-2.39 1.02,-1 1.8,-2.18 2.36,-3.54 0.56,-1.35 0.84,-2.81 0.84,-4.38l0 -0.07c0,-1.54 -0.28,-3 -0.84,-4.36 -0.56,-1.36 -1.34,-2.56 -2.36,-3.57 -1.01,-1.03 -2.25,-1.83 -3.71,-2.43 -1.46,-0.59 -3.1,-0.89 -4.9,-0.89l-6.73 0 0 22.5 6.73 0zm-8.66 -24.25l8.66 0c2.03,0 3.89,0.33 5.59,0.99 1.69,0.65 3.15,1.56 4.38,2.73 1.22,1.16 2.17,2.53 2.84,4.1 0.67,1.57 1,3.27 1,5.11l0 0.07c0,1.83 -0.33,3.54 -1,5.13 -0.67,1.58 -1.62,2.95 -2.84,4.12 -1.23,1.16 -2.69,2.08 -4.38,2.75 -1.7,0.66 -3.56,1 -5.59,1l-8.66 0 0 -26zm29.04 0l18.5 0 0 1.75 -16.56 0 0 10.29 14.89 0 0 1.74 -14.89 0 0 10.47 16.75 0 0 1.75 -18.69 0 0 -26zm-249.74 36.02l24.99 0 0 6.5 -17.78 0 0 6.73 15.65 0 0 6.5 -15.65 0 0 6.97 18.02 0 0 6.5 -25.23 0 0 -33.2zm31.77 0l6.74 0 15.55 20.44 0 -20.44 7.21 0 0 33.2 -6.21 0 -16.08 -21.11 0 21.11 -7.21 0 0 -33.2zm49.33 33.67c-2.53,0 -5.02,-0.43 -7.45,-1.3 -2.44,-0.87 -4.65,-2.21 -6.64,-4.01l4.32 -5.17c1.51,1.23 3.07,2.21 4.67,2.94 1.59,0.73 3.34,1.09 5.24,1.09 1.52,0 2.69,-0.27 3.53,-0.83 0.84,-0.55 1.26,-1.32 1.26,-2.3l0 -0.09c0,-0.48 -0.09,-0.9 -0.26,-1.26 -0.18,-0.36 -0.51,-0.7 -1,-1.02 -0.5,-0.32 -1.18,-0.63 -2.05,-0.95 -0.87,-0.31 -2,-0.65 -3.39,-0.99 -1.69,-0.41 -3.21,-0.87 -4.57,-1.38 -1.36,-0.51 -2.53,-1.13 -3.47,-1.87 -0.95,-0.75 -1.7,-1.67 -2.22,-2.78 -0.52,-1.1 -0.78,-2.48 -0.78,-4.12l0 -0.1c0,-1.52 0.28,-2.88 0.85,-4.1 0.57,-1.22 1.36,-2.27 2.37,-3.15 1.03,-0.89 2.25,-1.57 3.66,-2.04 1.42,-0.48 2.98,-0.72 4.69,-0.72 2.44,0 4.67,0.37 6.71,1.1 2.04,0.72 3.92,1.77 5.62,3.13l-3.79 5.5c-1.49,-1.01 -2.94,-1.81 -4.36,-2.4 -1.43,-0.58 -2.85,-0.88 -4.27,-0.88 -1.43,0 -2.49,0.28 -3.2,0.84 -0.71,0.55 -1.07,1.24 -1.07,2.06l0 0.09c0,0.54 0.1,1.01 0.31,1.4 0.2,0.4 0.57,0.75 1.11,1.07 0.55,0.32 1.28,0.62 2.22,0.9 0.94,0.29 2.11,0.62 3.54,1 1.68,0.44 3.18,0.94 4.49,1.49 1.32,0.55 2.43,1.22 3.33,1.99 0.9,0.78 1.59,1.69 2.05,2.73 0.46,1.04 0.69,2.29 0.69,3.75l0 0.09c0,1.64 -0.3,3.11 -0.9,4.39 -0.6,1.28 -1.43,2.35 -2.49,3.22 -1.07,0.87 -2.35,1.54 -3.83,1.99 -1.48,0.46 -3.12,0.69 -4.92,0.69zm18.82 -33.67l7.31 0 0 33.2 -7.31 0 0 -33.2zm15.61 0l6.73 0 15.56 20.44 0 -20.44 7.21 0 0 33.2 -6.22 0 -16.07 -21.11 0 21.11 -7.21 0 0 -33.2zm53.68 27.03c1.46,0 2.8,-0.27 4.04,-0.8 1.23,-0.54 2.28,-1.28 3.15,-2.23 0.87,-0.95 1.55,-2.05 2.04,-3.3 0.49,-1.25 0.73,-2.58 0.73,-4.01l0 -0.09c0,-1.42 -0.24,-2.77 -0.73,-4.03 -0.49,-1.27 -1.19,-2.37 -2.09,-3.32 -0.9,-0.95 -1.97,-1.7 -3.2,-2.26 -1.23,-0.55 -2.58,-0.82 -4.03,-0.82 -1.49,0 -2.84,0.26 -4.06,0.8 -1.21,0.54 -2.26,1.28 -3.13,2.23 -0.87,0.95 -1.54,2.05 -2.03,3.3 -0.49,1.25 -0.74,2.58 -0.74,4l0 0.1c0,1.42 0.25,2.77 0.74,4.03 0.49,1.27 1.18,2.37 2.08,3.32 0.9,0.95 1.96,1.7 3.18,2.25 1.22,0.56 2.57,0.83 4.05,0.83zm-0.09 6.74c-2.56,0 -4.92,-0.45 -7.07,-1.35 -2.15,-0.91 -4,-2.12 -5.57,-3.66 -1.57,-1.53 -2.78,-3.33 -3.65,-5.4 -0.87,-2.07 -1.31,-4.29 -1.31,-6.67l0 -0.09c0,-2.37 0.45,-4.59 1.33,-6.66 0.89,-2.08 2.11,-3.89 3.68,-5.46 1.56,-1.56 3.43,-2.8 5.59,-3.7 2.17,-0.9 4.53,-1.35 7.09,-1.35 2.56,0 4.92,0.45 7.07,1.35 2.15,0.9 4.01,2.12 5.57,3.65 1.57,1.54 2.78,3.34 3.65,5.41 0.87,2.07 1.31,4.29 1.31,6.66l0 0.1c0,2.37 -0.44,4.59 -1.33,6.66 -0.88,2.07 -2.11,3.89 -3.68,5.46 -1.56,1.56 -3.42,2.79 -5.59,3.7 -2.17,0.9 -4.53,1.35 -7.09,1.35z"/>
 </g>
</svg>
