<svg xmlns="http://www.w3.org/2000/svg" width="940" height="280" shape-rendering="geometricPrecision" image-rendering="optimizeQuality" fill-rule="evenodd" xmlns:v="https://vecta.io/nano"><path d="M0 0h940v280H0z" fill="#c5e6fa"/><path d="M295 108.57h1.93v24.25h15.27v1.75H295v-26zm40.6 16.97l-6.84-15.04-6.87 15.04h13.71zm-7.73-17.16h1.86l12.1 26.19h-2.11l-3.31-7.28h-15.34l-3.3 7.28h-2.01l12.11-26.19zm30.83 24.44c2.23 0 4-.48 5.31-1.44 1.31-.95 1.97-2.25 1.97-3.89v-.07c0-1.62-.68-2.87-2.03-3.75s-3.31-1.32-5.89-1.32h-8.8v10.47h9.44zm-.86-12.22c.97 0 1.86-.12 2.68-.35.81-.24 1.52-.58 2.11-1.03a4.69 4.69 0 0 0 1.4-1.69c.33-.67.5-1.44.5-2.31v-.08a4.23 4.23 0 0 0-1.67-3.49c-1.12-.89-2.73-1.33-4.83-1.33h-8.77v10.28h8.58zm-10.51-12.03h10.72c1.48 0 2.79.2 3.94.61s2.09.97 2.8 1.7c1.11 1.11 1.67 2.47 1.67 4.09v.07c0 .9-.13 1.68-.39 2.35s-.6 1.25-1.02 1.75c-.42.49-.89.91-1.43 1.25-.53.33-1.05.61-1.57.83.76.2 1.51.47 2.22.8.72.33 1.35.75 1.88 1.26a6.01 6.01 0 0 1 1.27 1.78c.33.68.49 1.46.49 2.35v.08c0 1.08-.23 2.06-.67 2.94a6.32 6.32 0 0 1-1.89 2.23c-.82.6-1.79 1.07-2.93 1.41-1.14.33-2.41.5-3.82.5h-11.27v-26zm38.78 24.7c1.6 0 3.08-.31 4.43-.91 1.35-.61 2.52-1.44 3.49-2.49.98-1.05 1.74-2.28 2.29-3.7.54-1.41.82-2.92.82-4.53v-.07c0-1.61-.28-3.13-.84-4.55-.56-1.43-1.32-2.66-2.3-3.72-.98-1.05-2.15-1.88-3.51-2.5s-2.85-.93-4.46-.93-3.09.3-4.44.91-2.51 1.44-3.49 2.49-1.74 2.28-2.28 3.69c-.55 1.41-.82 2.92-.82 4.53v.08a12.34 12.34 0 0 0 .84 4.55c.55 1.42 1.32 2.66 2.3 3.71a10.98 10.98 0 0 0 3.51 2.51c1.36.62 2.85.93 4.46.93zm-.08 1.74c-1.98 0-3.77-.36-5.37-1.09-1.59-.73-2.96-1.71-4.1-2.94-1.14-1.22-2.02-2.64-2.64-4.25s-.93-3.3-.93-5.09v-.07c0-1.78.32-3.49.95-5.11a13.52 13.52 0 0 1 2.66-4.29c1.14-1.24 2.51-2.22 4.12-2.95s3.4-1.1 5.39-1.1c1.95 0 3.73.37 5.34 1.1s2.99 1.71 4.13 2.93c1.13 1.23 2.01 2.65 2.63 4.26.62 1.6.93 3.3.93 5.08.03.03.03.05 0 .08 0 1.78-.31 3.48-.95 5.1-.63 1.63-1.51 3.06-2.65 4.29-1.14 1.24-2.52 2.23-4.14 2.96s-3.41 1.09-5.37 1.09zm30.38-12.96c1.09 0 2.1-.14 3.03-.41.92-.27 1.72-.67 2.39-1.17a5.47 5.47 0 0 0 1.58-1.87c.38-.73.58-1.57.58-2.51v-.07c0-1.77-.66-3.16-1.95-4.18-1.31-1.02-3.14-1.52-5.52-1.52h-8.88v11.73h8.77zm-10.7-13.48h10.92c1.61 0 3.04.23 4.27.69 1.24.46 2.26 1.08 3.05 1.87.62.62 1.1 1.35 1.45 2.17.34.83.52 1.72.52 2.66v.07c0 1.09-.2 2.07-.58 2.92s-.92 1.59-1.6 2.21-1.48 1.12-2.41 1.5c-.93.39-1.94.65-3.03.8l8.58 11.11h-2.45l-8.28-10.77h-.07-8.44v10.77h-1.93v-26zm44.46 16.97l-6.84-15.04-6.87 15.04h13.71zm-7.73-17.16h1.86l12.11 26.19h-2.12l-3.31-7.28h-15.33l-3.31 7.28h-2l12.1-26.19zm26.67 1.94h-9.06v-1.75h20.05v1.75h-9.06v24.25h-1.93v-24.25zm31.46-9.1l2.26 1.11-3.97 3.83h-1.56l3.27-4.94zm-2.64 32.05c1.61 0 3.09-.31 4.44-.91 1.35-.61 2.51-1.44 3.49-2.49s1.74-2.28 2.28-3.7c.55-1.41.82-2.92.82-4.53v-.07c0-1.61-.28-3.13-.84-4.55-.55-1.43-1.32-2.66-2.3-3.72-.98-1.05-2.15-1.88-3.51-2.5s-2.85-.93-4.46-.93c-1.6 0-3.08.3-4.43.91s-2.52 1.44-3.49 2.49c-.98 1.05-1.74 2.28-2.29 3.69-.54 1.41-.82 2.92-.82 4.53v.08a12.34 12.34 0 0 0 .84 4.55c.56 1.42 1.32 2.66 2.3 3.71a10.98 10.98 0 0 0 3.51 2.51c1.36.62 2.85.93 4.46.93zm-.08 1.74c-1.98 0-3.76-.36-5.36-1.09s-2.97-1.71-4.11-2.94a13.15 13.15 0 0 1-2.63-4.25c-.62-1.61-.93-3.3-.93-5.09v-.07c0-1.78.31-3.49.95-5.11.63-1.62 1.51-3.05 2.65-4.29s2.51-2.22 4.12-2.95 3.41-1.1 5.39-1.1c1.95 0 3.74.37 5.35 1.1s2.98 1.71 4.12 2.93c1.14 1.23 2.02 2.65 2.64 4.26.61 1.6.92 3.3.92 5.08.03.03.03.05 0 .08 0 1.78-.31 3.48-.94 5.1-.63 1.63-1.52 3.06-2.66 4.29-1.14 1.24-2.52 2.23-4.14 2.96s-3.41 1.09-5.37 1.09zm30.38-12.96c1.09 0 2.1-.14 3.03-.41a7.46 7.46 0 0 0 2.4-1.17c.66-.51 1.19-1.13 1.57-1.87.39-.73.58-1.57.58-2.51v-.07c0-1.77-.65-3.16-1.95-4.18s-3.14-1.52-5.52-1.52h-8.87v11.73h8.76zm-10.69-13.48h10.92c1.61 0 3.03.23 4.27.69s2.25 1.08 3.04 1.87c.62.62 1.1 1.35 1.45 2.17.35.83.52 1.72.52 2.66v.07c0 1.09-.19 2.07-.58 2.92a6.61 6.61 0 0 1-1.59 2.21c-.68.62-1.49 1.12-2.42 1.5-.92.39-1.93.65-3.02.8l8.58 11.11h-2.45l-8.29-10.77h-.07-8.43v10.77h-1.93v-26zm27.11 0h1.93v26h-1.93v-26zm21.87 24.7c1.61 0 3.09-.31 4.44-.91 1.35-.61 2.51-1.44 3.49-2.49s1.74-2.28 2.29-3.7c.54-1.41.81-2.92.81-4.53v-.07c0-1.61-.28-3.13-.83-4.55-.56-1.43-1.33-2.66-2.31-3.72-.97-1.05-2.14-1.88-3.5-2.5-1.37-.62-2.85-.93-4.46-.93s-3.09.3-4.44.91-2.51 1.44-3.49 2.49-1.74 2.28-2.28 3.69c-.55 1.41-.82 2.92-.82 4.53v.08a12.54 12.54 0 0 0 .83 4.55c.56 1.42 1.33 2.66 2.31 3.71.97 1.05 2.14 1.89 3.51 2.51 1.36.62 2.84.93 4.45.93zm-.07 1.74c-1.98 0-3.77-.36-5.37-1.09-1.59-.73-2.96-1.71-4.1-2.94-1.14-1.22-2.02-2.64-2.64-4.25s-.93-3.3-.93-5.09v-.07c0-1.78.32-3.49.95-5.11a13.52 13.52 0 0 1 2.66-4.29c1.13-1.24 2.51-2.22 4.12-2.95s3.4-1.1 5.38-1.1c1.96 0 3.74.37 5.35 1.1s2.98 1.71 4.12 2.93c1.14 1.23 2.02 2.65 2.64 4.26.62 1.6.93 3.3.93 5.08a.06.06 0 0 1 0 .08 13.95 13.95 0 0 1-.95 5.1c-.63 1.63-1.52 3.06-2.65 4.29-1.14 1.24-2.52 2.23-4.15 2.96-1.62.73-3.41 1.09-5.36 1.09zm39.48-2.19c1.8 0 3.44-.29 4.9-.87 1.46-.59 2.7-1.38 3.71-2.39 1.02-1 1.8-2.19 2.36-3.54s.84-2.81.84-4.38v-.07c0-1.54-.28-3-.84-4.36-.56-1.37-1.34-2.56-2.36-3.58-1.01-1.02-2.25-1.82-3.71-2.42s-3.1-.89-4.9-.89h-6.73v22.5h6.73zm-8.66-24.25h8.66c2.03 0 3.89.33 5.59.98 1.69.66 3.15 1.57 4.38 2.73 1.22 1.17 2.17 2.54 2.84 4.11s1 3.27 1 5.1v.08c0 1.83-.33 3.54-1 5.12-.67 1.59-1.62 2.96-2.84 4.13-1.23 1.16-2.69 2.08-4.38 2.74-1.7.67-3.56 1.01-5.59 1.01h-8.66v-26zm29.04 0h18.5v1.75h-16.56v10.28h14.89v1.75h-14.89v10.47H645v1.75h-18.69v-26zm-266.87 52.76c1.84 0 3.26-.48 4.27-1.45a4.75 4.75 0 0 0 1.52-3.58v-.09c0-1.65-.53-2.9-1.59-3.75s-2.51-1.28-4.34-1.28h-5.64v10.15h5.78zm-13.09-16.74h13.57c1.99 0 3.77.27 5.33.83 1.57.55 2.9 1.33 3.99 2.34 1.09 1.02 1.92 2.23 2.51 3.63.58 1.41.88 2.97.88 4.68v.09c0 1.93-.35 3.62-1.05 5.07-.69 1.46-1.65 2.68-2.87 3.66-1.21.98-2.64 1.71-4.26 2.2-1.63.49-3.38.74-5.25.74h-5.54v9.96h-7.31v-33.2zm31.68 0h25v6.49h-17.79v6.74h15.65v6.5h-15.65v6.97h18.03v6.5h-25.24v-33.2zm43.64 33.67c-2.53 0-5.01-.43-7.45-1.3-2.43-.87-4.65-2.21-6.64-4.01l4.32-5.17c1.52 1.23 3.07 2.21 4.67 2.94s3.34 1.09 5.24 1.09c1.52 0 2.7-.28 3.53-.83.84-.55 1.26-1.32 1.26-2.3v-.09c0-.48-.09-.9-.26-1.26-.18-.36-.51-.7-1-1.02s-1.18-.63-2.04-.95c-.87-.32-2.01-.65-3.4-1-1.69-.41-3.2-.86-4.57-1.37-1.36-.51-2.52-1.13-3.47-1.87-.95-.75-1.69-1.67-2.21-2.78-.53-1.11-.79-2.48-.79-4.13v-.09c0-1.52.29-2.89.85-4.1.57-1.22 1.36-2.27 2.38-3.16 1.02-.88 2.24-1.56 3.66-2.04 1.41-.47 2.98-.71 4.68-.71 2.44 0 4.68.37 6.71 1.09 2.04.73 3.92 1.77 5.63 3.13l-3.8 5.51c-1.48-1.02-2.94-1.81-4.36-2.4-1.43-.58-2.85-.88-4.27-.88s-2.49.28-3.2.83c-.71.56-1.07 1.24-1.07 2.07v.09c0 .54.1 1 .31 1.4s.58.75 1.11 1.07c.55.31 1.29.61 2.22.9l3.54.99c1.68.45 3.18.94 4.5 1.5 1.31.55 2.42 1.22 3.32 1.99s1.59 1.68 2.05 2.73c.46 1.04.69 2.29.69 3.74v.1c0 1.64-.3 3.11-.89 4.39a9.24 9.24 0 0 1-2.5 3.22c-1.07.87-2.35 1.53-3.83 1.99s-3.12.69-4.92.69zm34.71-6.64c1.55 0 3.01-.3 4.37-.9l-5.41-4.6 4.65-5.22 5.45 4.94c.6-1.33.9-2.85.9-4.56v-.09c0-1.43-.24-2.77-.73-4.03a9.91 9.91 0 0 0-2.09-3.32c-.9-.95-1.97-1.7-3.2-2.26-1.23-.55-2.58-.83-4.03-.83-1.49 0-2.84.27-4.05.81-1.22.54-2.27 1.28-3.13 2.23-.88.95-1.55 2.04-2.04 3.29s-.74 2.59-.74 4.01v.1c0 1.42.25 2.76.74 4.03.49 1.26 1.18 2.37 2.08 3.32s1.96 1.7 3.18 2.25 2.57.83 4.05.83zm9.78 3.89c-1.43.92-2.96 1.62-4.61 2.11-1.64.49-3.39.74-5.26.74-2.56 0-4.92-.46-7.07-1.36s-4-2.11-5.57-3.65c-1.57-1.53-2.78-3.33-3.65-5.4-.87-2.08-1.31-4.3-1.31-6.67v-.09c0-2.37.45-4.6 1.33-6.67.89-2.07 2.11-3.89 3.68-5.45 1.56-1.57 3.43-2.8 5.59-3.7 2.17-.9 4.53-1.35 7.09-1.35 2.57 0 4.92.45 7.07 1.35s4.01 2.12 5.57 3.65c1.57 1.54 2.79 3.34 3.66 5.41s1.3 4.29 1.3 6.66v.1c0 1.74-.25 3.41-.76 5.02a16.65 16.65 0 0 1-2.18 4.51l3.42 2.89-4.65 5.17-3.65-3.27zm28.17 2.8c-4.46 0-7.97-1.23-10.53-3.7s-3.84-6.15-3.84-11.05v-18.97h7.3v18.78c0 2.72.63 4.76 1.9 6.14 1.26 1.38 3.02 2.06 5.26 2.06 2.25 0 4-.66 5.27-1.99 1.26-1.33 1.9-3.32 1.9-5.97v-19.02h7.3v18.73c0 2.53-.34 4.73-1.02 6.59-.68 1.87-1.65 3.43-2.92 4.67-1.26 1.25-2.8 2.19-4.6 2.8-1.8.62-3.81.93-6.02.93zm22.34-33.72h7.3v33.2h-7.3v-33.2zm27.46 33.67c-2.53 0-5.01-.43-7.45-1.3-2.43-.87-4.65-2.21-6.64-4.01l4.32-5.17c1.51 1.23 3.07 2.21 4.67 2.94s3.34 1.09 5.24 1.09c1.52 0 2.7-.28 3.53-.83.84-.55 1.26-1.32 1.26-2.3v-.09c0-.48-.09-.9-.26-1.26-.18-.36-.51-.7-1-1.02s-1.17-.63-2.04-.95-2.01-.65-3.4-1c-1.69-.41-3.21-.86-4.57-1.37s-2.52-1.13-3.47-1.87c-.95-.75-1.69-1.67-2.22-2.78-.52-1.11-.78-2.48-.78-4.13v-.09c0-1.52.29-2.89.85-4.1.57-1.22 1.36-2.27 2.38-3.16 1.02-.88 2.24-1.56 3.66-2.04 1.41-.47 2.98-.71 4.68-.71 2.44 0 4.68.37 6.72 1.09 2.03.73 3.91 1.77 5.62 3.13l-3.8 5.51c-1.48-1.02-2.94-1.81-4.36-2.4-1.43-.58-2.85-.88-4.27-.88s-2.49.28-3.2.83c-.71.56-1.07 1.24-1.07 2.07v.09c0 .54.1 1 .31 1.4.2.4.58.75 1.11 1.07.55.31 1.28.61 2.22.9.94.28 2.12.61 3.54.99 1.68.45 3.18.94 4.5 1.5 1.31.55 2.42 1.22 3.32 1.99s1.59 1.68 2.05 2.73c.46 1.04.69 2.29.69 3.74v.1c0 1.64-.3 3.11-.89 4.39a9.24 9.24 0 0 1-2.5 3.22c-1.07.87-2.35 1.53-3.83 1.99s-3.12.69-4.92.69zm37.56-14.37l-4.41-10.77-4.41 10.77h8.82zm-7.68-19.54h6.73l14.23 33.44h-7.64l-3.03-7.45h-14.04l-3.04 7.45h-7.44l14.23-33.44z" fill="#6693ae" fill-rule="nonzero"/></svg>