<svg xmlns="http://www.w3.org/2000/svg" width="730" height="60" shape-rendering="geometricPrecision" image-rendering="optimizeQuality" fill-rule="evenodd" xmlns:v="https://vecta.io/nano"><g fill-rule="nonzero"><path d="M247.2 18.62h6.47v17.67h11.3v5.66H247.2V18.62zm-18.43-.17h6.24l9.93 23.5h-6.93l-1.7-4.16h-9l-1.67 4.16h-6.8l9.93-23.5zm5.67 14.34l-2.6-6.64-2.64 6.64h5.24zm-30.03-8.5h-7.01v-5.67h20.47v5.67h-7v17.66h-6.46V24.29zm-16.47-5.67h6.5v23.33h-6.5V18.62zm-13.87 23.8c-1.82 0-3.5-.29-5.05-.88-1.54-.59-2.88-1.42-4.02-2.49-1.13-1.06-2.02-2.34-2.66-3.81-.65-1.48-.97-3.11-.97-4.89v-.06c0-1.69.32-3.28.95-4.75.63-1.48 1.5-2.77 2.6-3.87 1.11-1.1 2.43-1.96 3.97-2.58 1.54-.63 3.21-.94 5.01-.94 2.07 0 3.85.3 5.35.9s2.88 1.44 4.12 2.5l-3.8 4.57c-.84-.71-1.7-1.26-2.58-1.63-.88-.38-1.9-.57-3.05-.57-.85 0-1.63.17-2.35.5s-1.35.79-1.89 1.37c-.53.57-.95 1.25-1.26 2.03s-.47 1.61-.47 2.5v.07c0 .93.16 1.8.47 2.6s.75 1.48 1.32 2.05c.57.56 1.24 1.01 2.01 1.33s1.62.48 2.56.48c1.51 0 2.76-.32 3.74-.96v-2.84h-4.6v-4.73h10.73v10.5c-1.24 1.02-2.71 1.88-4.4 2.57-1.68.68-3.6 1.03-5.73 1.03zm-22.67-23.8h6.5v23.33h-6.5V18.62zm-25.63 0h9c2.09 0 3.95.28 5.58.85 1.64.57 3.01 1.36 4.14 2.38 1.12 1.03 1.98 2.24 2.56 3.65.59 1.41.89 2.96.89 4.65v.07c0 1.69-.3 3.25-.9 4.68a10.47 10.47 0 0 1-2.6 3.72c-1.14 1.04-2.53 1.86-4.19 2.45-1.65.59-3.52.88-5.61.88h-8.87V18.62zm9.11 17.6c1.94 0 3.5-.51 4.69-1.53 1.18-1.03 1.77-2.48 1.77-4.37v-.07c0-1.86-.59-3.31-1.77-4.35-1.19-1.03-2.75-1.55-4.69-1.55h-2.64v11.87h2.64z" fill="#a7c4d2"/><path d="M98.1 18.45h6.24l9.93 23.5h-6.93l-1.7-4.16h-9l-1.67 4.16h-6.8l9.93-23.5zm5.67 14.34l-2.6-6.64-2.63 6.64h5.23zM67.61 18.62h10c1.46 0 2.8.18 4 .55s2.22.9 3.06 1.6c.85.7 1.5 1.56 1.95 2.58.46 1.03.69 2.18.69 3.47v.07c0 1.37-.25 2.59-.75 3.63a7.46 7.46 0 0 1-2.09 2.63c-.89.71-1.95 1.25-3.18 1.6-1.23.36-2.57.54-4.02.54h-3.2v6.66h-6.46V18.62zm9.53 11.6c1.16 0 2.06-.27 2.72-.82.65-.55.98-1.29.98-2.23v-.07c0-1-.33-1.77-.98-2.29-.66-.53-1.58-.79-2.75-.79h-3.04v6.2h3.07zM49.17 18.45h6.24l9.93 23.5h-6.93l-1.7-4.16h-9l-1.67 4.16h-6.8l9.93-23.5zm5.67 14.34l-2.6-6.64-2.63 6.64h5.23zM12.17 18.62h6.84l5.56 9.03 5.57-9.03h6.83v23.33h-6.43v-13.4l-5.95 9.14h-.13l-5.92-9.07v13.33h-6.37V18.62z" fill="#fff"/><path d="M336.4 37.47c1.11 0 2.12-.17 3.02-.53.91-.35 1.68-.83 2.31-1.45a6.63 6.63 0 0 0 1.45-2.21 7.06 7.06 0 0 0 .52-2.73v-.05c0-.97-.17-1.88-.52-2.73a6.63 6.63 0 0 0-1.45-2.21c-.63-.63-1.4-1.13-2.31-1.49-.9-.36-1.91-.54-3.02-.54h-4.13v13.94h4.13zm-6.11-15.78h6.11c1.38 0 2.64.23 3.79.67s2.14 1.06 2.97 1.85a8.25 8.25 0 0 1 1.92 2.78c.46 1.07.68 2.22.68 3.46v.05c0 1.24-.22 2.4-.68 3.47-.45 1.08-1.09 2.01-1.92 2.8a9.02 9.02 0 0 1-2.97 1.86c-1.15.45-2.41.68-3.79.68h-6.11V21.69zm19.68 0h12.73v1.79h-10.74v6.07h9.61v1.78h-9.61v6.19h10.87v1.79h-12.86V21.69zm23.22 9.62c.72 0 1.38-.09 1.97-.28.6-.18 1.12-.45 1.54-.8.43-.34.76-.75.99-1.22s.34-1 .34-1.59v-.05c0-1.26-.43-2.22-1.3-2.87-.86-.65-2.01-.97-3.44-.97h-4.47v7.78h4.37zm-6.36-9.62h6.59c.99 0 1.9.13 2.71.39s1.51.63 2.09 1.11a4.77 4.77 0 0 1 1.33 1.75c.31.69.47 1.47.47 2.34v.05c0 .96-.19 1.79-.56 2.5a5.11 5.11 0 0 1-1.49 1.8c-.63.49-1.37.86-2.21 1.1-.83.24-1.72.36-2.66.36h-4.28v6.22h-1.99V21.69zm28.24 11.18l-4-8.99-4.03 8.99h8.03zm-4.91-11.3h1.86l8.03 17.74h-2.14l-2.06-4.66h-9.59l-2.09 4.66h-2.04l8.03-17.74zm20.78 9.11c.66 0 1.26-.09 1.81-.25.56-.17 1.04-.41 1.44-.72a3.32 3.32 0 0 0 .95-1.13c.23-.45.34-.96.34-1.53V27c0-1.09-.39-1.94-1.19-2.55-.79-.61-1.9-.92-3.33-.92h-5.45v7.15h5.43zm-7.41-8.99h7.57c1.09 0 2.06.16 2.91.47.84.31 1.54.74 2.1 1.29.43.44.77.95 1.01 1.54.23.59.35 1.23.35 1.94v.05c0 .74-.12 1.39-.35 1.97-.24.58-.57 1.09-1 1.51-.43.43-.93.78-1.52 1.06s-1.23.47-1.91.59l5.41 7.2h-2.44l-5.11-6.85h-.05-4.99v6.85h-1.98V21.69zm22.85 1.84h-5.92v-1.84h13.82v1.84h-5.91v15.78h-1.99V23.53zm23.08 9.34l-4.01-8.99-4.02 8.99h8.03zm-4.91-11.3h1.86l8.03 17.74h-2.14l-2.06-4.66h-9.59l-2.09 4.66h-2.04l8.03-17.74zm13.36.12h2.02l6.41 9.62 6.42-9.62h2.02v17.62h-1.99V25.04l-6.42 9.44h-.1l-6.42-9.41v14.24h-1.94V21.69zm21.85 0h12.73v1.79h-10.74v6.07h9.61v1.78h-9.61v6.19h10.87v1.79h-12.86V21.69zm16.86 0h1.86l11.1 14.12V21.69h1.94v17.62h-1.59l-11.37-14.45v14.45h-1.94V21.69zm24.54 1.84h-5.92v-1.84h13.82v1.84h-5.91v15.78h-1.99V23.53zm19.88 14.25c1.01 0 1.94-.19 2.78-.57.85-.38 1.58-.89 2.18-1.55.6-.65 1.08-1.42 1.42-2.29.35-.87.52-1.81.52-2.82v-.05c0-1.01-.17-1.95-.52-2.83-.34-.88-.82-1.65-1.45-2.3-.62-.66-1.35-1.18-2.2-1.56-.85-.39-1.77-.58-2.78-.58-1 0-1.93.19-2.78.56-.85.38-1.57.9-2.18 1.55a7.36 7.36 0 0 0-1.42 2.29c-.34.87-.51 1.81-.51 2.82v.05c0 1.01.17 1.95.51 2.83s.83 1.65 1.45 2.31a7.09 7.09 0 0 0 2.2 1.56c.85.38 1.77.58 2.78.58zm-.05 1.83c-1.34 0-2.56-.24-3.66-.73a8.62 8.62 0 0 1-2.83-1.97c-.79-.83-1.4-1.8-1.83-2.9a9.61 9.61 0 0 1-.64-3.46v-.05c0-1.21.22-2.36.66-3.47.43-1.11 1.04-2.08 1.83-2.91s1.74-1.49 2.85-1.99c1.1-.49 2.33-.74 3.67-.74s2.57.24 3.66.73c1.1.49 2.05 1.15 2.83 1.98.79.83 1.4 1.79 1.83 2.89s.64 2.25.64 3.46c.02.02.02.04 0 .05 0 1.21-.22 2.37-.65 3.47-.44 1.11-1.05 2.08-1.84 2.91s-1.74 1.5-2.84 1.99c-1.11.5-2.34.74-3.68.74zm26.88-2.14c1.11 0 2.12-.17 3.02-.53.91-.35 1.68-.83 2.31-1.45a6.63 6.63 0 0 0 1.45-2.21 7.06 7.06 0 0 0 .52-2.73v-.05c0-.97-.17-1.88-.52-2.73a6.63 6.63 0 0 0-1.45-2.21c-.63-.63-1.4-1.13-2.31-1.49-.9-.36-1.91-.54-3.02-.54h-4.13v13.94h4.13zm-6.11-15.78h6.11c1.38 0 2.64.23 3.79.67s2.14 1.06 2.97 1.85a8.25 8.25 0 0 1 1.92 2.78c.46 1.07.68 2.22.68 3.46v.05c0 1.24-.22 2.4-.68 3.47-.45 1.08-1.09 2.01-1.92 2.8a9.02 9.02 0 0 1-2.97 1.86c-1.15.45-2.41.68-3.79.68h-6.11V21.69zm19.68 0h12.73v1.79h-10.74v6.07h9.61v1.78h-9.61v6.19h10.87v1.79h-12.86V21.69zm32.64 16.09a6.71 6.71 0 0 0 2.22-.36 6.07 6.07 0 0 0 1.83-.98l-3.27-2.79 1.34-1.49 3.24 2.95c.49-.62.87-1.32 1.13-2.09.27-.77.41-1.6.41-2.47v-.05c0-1.01-.17-1.95-.52-2.83-.34-.88-.82-1.65-1.45-2.3-.62-.66-1.35-1.18-2.2-1.56-.85-.39-1.77-.58-2.78-.58s-1.93.19-2.78.56c-.85.38-1.57.9-2.18 1.55a7.36 7.36 0 0 0-1.42 2.29c-.34.87-.52 1.81-.52 2.82v.05c0 1.01.18 1.95.52 2.83s.83 1.65 1.45 2.31a7.09 7.09 0 0 0 2.2 1.56c.85.38 1.77.58 2.78.58zm5.51-.05c-.75.58-1.59 1.04-2.51 1.38-.93.34-1.94.5-3.05.5-1.34 0-2.56-.24-3.66-.73a8.62 8.62 0 0 1-2.83-1.97c-.79-.83-1.4-1.8-1.83-2.9s-.64-2.25-.64-3.46v-.05c0-1.21.22-2.36.66-3.47.43-1.11 1.04-2.08 1.83-2.91s1.74-1.49 2.85-1.99c1.1-.49 2.33-.74 3.67-.74s2.56.24 3.66.73 2.05 1.15 2.83 1.98c.79.83 1.4 1.79 1.83 2.89s.64 2.25.64 3.46c.02.02.02.04 0 .05a9.5 9.5 0 0 1-.54 3.19c-.36 1.01-.89 1.92-1.57 2.73l2.34 1.93-1.36 1.49-2.32-2.11zm14.7 1.86c-1.09 0-2.08-.17-2.98-.49-.9-.33-1.67-.82-2.32-1.46-.64-.65-1.14-1.45-1.49-2.41-.36-.95-.53-2.05-.53-3.29V21.69h1.99v10.12c0 1.91.47 3.38 1.42 4.4.95 1.03 2.27 1.54 3.96 1.54 1.63 0 2.92-.49 3.88-1.46.95-.97 1.43-2.42 1.43-4.35V21.69h1.99v10.1c0 1.29-.18 2.42-.53 3.39-.35.98-.85 1.79-1.5 2.44-.64.66-1.41 1.15-2.31 1.48-.9.32-1.9.49-3.01.49zm14.83-23.11l2.01.93-2.84 2.7h-1.56l2.39-3.63zm-2.6 5.21h1.99v17.62h-1.99V21.69zm7.15 0h2.01l6.42 9.62 6.42-9.62h2.01v17.62h-1.98V25.04l-6.42 9.44h-.1l-6.42-9.41v14.24h-1.94V21.69zm22.02 0h1.99v17.62h-1.99V21.69zm15.2 17.92c-1.27 0-2.44-.23-3.52-.7-1.07-.47-2-1.11-2.79-1.93-.79-.81-1.41-1.77-1.85-2.88-.45-1.11-.67-2.29-.67-3.55v-.05c0-1.24.22-2.41.67-3.52.44-1.11 1.06-2.08 1.85-2.91s1.73-1.48 2.82-1.96 2.28-.72 3.57-.72c.81 0 1.53.07 2.18.2.64.14 1.24.33 1.8.57.55.24 1.06.54 1.53.88a12.08 12.08 0 0 1 1.36 1.14l-1.36 1.46c-.75-.7-1.56-1.28-2.43-1.73-.86-.46-1.9-.68-3.1-.68-.98 0-1.88.18-2.71.55s-1.55.88-2.16 1.54c-.62.65-1.1 1.42-1.44 2.3s-.52 1.82-.52 2.83v.05c0 1.02.18 1.98.52 2.86s.82 1.65 1.44 2.3a6.69 6.69 0 0 0 2.16 1.55 6.42 6.42 0 0 0 2.71.57c1.2 0 2.24-.23 3.12-.67.87-.45 1.73-1.07 2.56-1.88l1.31 1.29c-.45.47-.92.89-1.42 1.27-.49.38-1.03.7-1.6.97-.57.26-1.18.48-1.84.63-.65.15-1.38.22-2.19.22zm21.95-6.74l-4-8.99-4.03 8.99h8.03zm-4.91-11.3h1.87l8.03 17.74h-2.14l-2.07-4.66h-9.59l-2.09 4.66h-2.03l8.02-17.74z" fill="#a7c4d2"/></g><path d="M281.56 18.15h19.89a6.48 6.48 0 0 1 6.46 6.46h0a6.48 6.48 0 0 1-6.46 6.46h-19.89a6.48 6.48 0 0 1-6.46-6.46h0a6.48 6.48 0 0 1 6.46-6.46z" fill="#fff"/><path d="M280.26 21.48h2.51c.49 0 .86.02 1.11.06a1.62 1.62 0 0 1 .65.26c.19.13.35.3.48.52s.19.46.19.73c0 .29-.07.56-.23.81a1.56 1.56 0 0 1-.64.55c.38.11.67.3.87.57.21.26.31.58.31.94 0 .29-.07.57-.2.83-.13.27-.31.49-.54.65s-.51.26-.85.3c-.21.02-.72.04-1.53.04h-2.13v-6.26zm1.27 1.04v1.44h.83l.92-.02a.8.8 0 0 0 .5-.22c.13-.13.19-.29.19-.49 0-.19-.05-.35-.16-.47s-.26-.19-.48-.22c-.12-.01-.48-.02-1.07-.02h-.73zm0 2.48v1.68h1.17l.87-.04c.19-.03.34-.11.46-.25.12-.13.18-.31.18-.53 0-.19-.05-.35-.14-.48s-.22-.23-.39-.29c-.18-.06-.55-.09-1.13-.09h-1.02zm5.05 2.74v-6.26h4.63v1.06h-3.36v1.39h3.13v1.06h-3.13v1.69h3.49v1.06h-4.76zm7.24 0v-5.2h-1.85v-1.06h4.96v1.06h-1.84v5.2h-1.27zm8.93 0h-1.37l-.54-1.42h-2.51l-.52 1.42h-1.34l2.43-6.26h1.34l2.51 6.26zm-2.32-2.48l-.87-2.32-.85 2.32h1.72z" fill="#a7c4d2" fill-rule="nonzero"/></svg>