<svg xmlns="http://www.w3.org/2000/svg" width="430" height="70" shape-rendering="geometricPrecision" image-rendering="optimizeQuality" fill-rule="evenodd" xmlns:v="https://vecta.io/nano"><g fill-rule="nonzero"><path d="M323.2 5.88h6.47v17.66h11.3v5.67H323.2V5.88zm-18.43-.17H311l9.94 23.5H314l-1.69-4.17h-9l-1.67 4.17h-6.8l9.93-23.5zm5.67 14.33l-2.6-6.63-2.64 6.63h5.24zm-30.04-8.5h-7V5.88h20.47v5.66h-7v17.67h-6.47V11.54zm-16.46-5.66h6.5v23.33h-6.5V5.88zm-13.87 23.8c-1.82 0-3.5-.3-5.05-.89-1.54-.58-2.88-1.41-4.02-2.48-1.13-1.07-2.02-2.34-2.66-3.82-.65-1.47-.97-3.1-.97-4.88v-.07c0-1.68.32-3.27.95-4.75.63-1.47 1.5-2.76 2.6-3.86 1.11-1.1 2.43-1.96 3.97-2.59 1.54-.62 3.21-.93 5.01-.93 2.07 0 3.85.3 5.35.9s2.88 1.43 4.12 2.5l-3.8 4.57c-.84-.71-1.7-1.26-2.58-1.64-.88-.37-1.9-.56-3.05-.56-.85 0-1.63.16-2.35.5a6.08 6.08 0 0 0-1.89 1.36 6.61 6.61 0 0 0-1.26 2.04c-.31.78-.47 1.61-.47 2.5v.06a7.11 7.11 0 0 0 .47 2.6c.31.8.75 1.49 1.32 2.05a6.16 6.16 0 0 0 2.01 1.34c.77.32 1.62.48 2.56.48 1.51 0 2.76-.32 3.74-.97v-2.83h-4.6v-4.73h10.73v10.5c-1.24 1.02-2.71 1.88-4.4 2.56-1.69.69-3.6 1.04-5.73 1.04zM227.4 5.88h6.5v23.33h-6.5V5.88zm-25.63 0h9c2.09 0 3.95.28 5.58.85 1.64.56 3.01 1.36 4.14 2.38 1.12 1.02 1.97 2.24 2.56 3.65s.89 2.96.89 4.65v.07c0 1.69-.3 3.25-.9 4.68a10.65 10.65 0 0 1-2.6 3.72c-1.14 1.04-2.53 1.86-4.19 2.45-1.65.59-3.52.88-5.61.88h-8.87V5.88zm9.11 17.6c1.94 0 3.5-.51 4.68-1.54 1.19-1.02 1.78-2.47 1.78-4.36v-.07c0-1.87-.59-3.32-1.78-4.35-1.18-1.03-2.74-1.55-4.68-1.55h-2.64v11.87h2.64z" fill="#a7c4d2"/><path d="M174.1 5.71h6.24l9.93 23.5h-6.93l-1.7-4.17h-9l-1.67 4.17h-6.8l9.93-23.5zm5.67 14.33l-2.6-6.63-2.63 6.63h5.23zM143.61 5.88h10c1.46 0 2.8.18 4 .55 1.2.36 2.22.9 3.06 1.6.85.7 1.5 1.56 1.95 2.58.46 1.02.69 2.18.69 3.47v.06c0 1.38-.25 2.59-.75 3.64a7.46 7.46 0 0 1-2.09 2.63c-.89.71-1.95 1.25-3.18 1.6-1.23.36-2.57.53-4.02.53h-3.2v6.67h-6.46V5.88zm9.53 11.6c1.15 0 2.06-.27 2.72-.82.65-.55.98-1.29.98-2.23v-.07c0-1-.33-1.77-.98-2.29-.66-.53-1.58-.79-2.75-.79h-3.04v6.2h3.07zM125.17 5.71h6.24l9.93 23.5h-6.93l-1.7-4.17h-9l-1.67 4.17h-6.8l9.93-23.5zm5.67 14.33l-2.6-6.63-2.63 6.63h5.23zM88.17 5.88h6.84l5.56 9.03 5.57-9.03h6.83v23.33h-6.43v-13.4l-5.95 9.13h-.13l-5.92-9.06v13.33h-6.37V5.88z" fill="#fff"/><path d="M27.35 62.22c1.1 0 2.11-.17 3.02-.52.9-.36 1.67-.84 2.3-1.46s1.11-1.36 1.46-2.21c.34-.84.51-1.75.51-2.73v-.05c0-.97-.17-1.88-.51-2.73-.35-.85-.83-1.58-1.46-2.21s-1.4-1.13-2.3-1.49c-.91-.36-1.92-.54-3.02-.54h-4.13v13.94h4.13zm-6.12-15.78h6.12c1.37 0 2.63.23 3.78.67 1.15.45 2.14 1.06 2.97 1.85s1.48 1.72 1.93 2.78c.45 1.07.68 2.22.68 3.46v.05a8.96 8.96 0 0 1-.68 3.48 8.22 8.22 0 0 1-1.93 2.79 9.02 9.02 0 0 1-2.97 1.86c-1.15.46-2.41.68-3.78.68h-6.12V46.44zm19.68 0h12.74v1.79H42.9v6.07h9.61v1.78H42.9v6.19h10.87v1.79H40.91V46.44zm23.22 9.62c.72 0 1.38-.09 1.98-.28.6-.18 1.11-.45 1.54-.79.43-.35.76-.76.98-1.23.23-.47.34-1 .34-1.59v-.05c0-1.26-.43-2.22-1.3-2.87-.86-.65-2.01-.97-3.44-.97h-4.47v7.78h4.37zm-6.36-9.62h6.6c.99 0 1.89.13 2.7.39.82.26 1.51.63 2.09 1.11a4.8 4.8 0 0 1 1.34 1.75c.31.69.46 1.47.46 2.34v.05c0 .96-.18 1.79-.55 2.51-.37.71-.87 1.31-1.5 1.8-.63.48-1.36.85-2.2 1.09s-1.73.37-2.67.37h-4.28v6.21h-1.99V46.44zm28.24 11.18l-4-8.99-4.03 8.99h8.03zm-4.9-11.3h1.86L91 64.06h-2.14l-2.07-4.65H77.2l-2.09 4.65h-2.03l8.03-17.74zm20.77 9.11c.66 0 1.26-.08 1.82-.25.55-.17 1.03-.41 1.44-.72.4-.31.72-.69.94-1.13.23-.45.34-.95.34-1.52v-.06c0-1.09-.39-1.94-1.18-2.55s-1.9-.92-3.33-.92h-5.45v7.15h5.42zm-7.41-8.99h7.58c1.09 0 2.05.16 2.9.47s1.55.74 2.1 1.3a4.3 4.3 0 0 1 1.01 1.53c.23.59.35 1.23.35 1.94v.05c0 .74-.12 1.4-.35 1.97-.23.58-.57 1.09-.99 1.52a5.61 5.61 0 0 1-1.53 1.05 6.87 6.87 0 0 1-1.91.59l5.41 7.2h-2.44l-5.11-6.84h-.05-4.98v6.84h-1.99V46.44zm22.85 1.84h-5.91v-1.84h13.81v1.84h-5.91v15.78h-1.99V48.28zm23.08 9.34l-4-8.99-4.03 8.99h8.03zm-4.91-11.3h1.86l8.03 17.74h-2.14l-2.06-4.65h-9.59l-2.09 4.65h-2.04l8.03-17.74zm13.37.12h2.01l6.42 9.62 6.42-9.62h2.01v17.62h-1.99V49.79l-6.42 9.44h-.1l-6.42-9.41v14.24h-1.93V46.44zm21.84 0h12.74v1.79h-10.75v6.07h9.61v1.78h-9.61v6.19h10.87v1.79H170.7V46.44zm16.87 0h1.86l11.1 14.12V46.44h1.93v17.62h-1.58L189.5 49.62v14.44h-1.93V46.44zm24.53 1.84h-5.91v-1.84h13.82v1.84h-5.92v15.78h-1.99V48.28zm19.89 14.25c1 0 1.93-.19 2.78-.57.84-.38 1.57-.89 2.17-1.55.61-.65 1.08-1.42 1.43-2.29.34-.87.51-1.81.51-2.82v-.05a7.81 7.81 0 0 0-.51-2.83c-.35-.88-.83-1.65-1.45-2.3-.62-.66-1.36-1.18-2.2-1.56-.85-.39-1.78-.58-2.78-.58-1.01 0-1.94.19-2.79.57-.84.37-1.57.89-2.17 1.54-.61.66-1.08 1.42-1.42 2.29-.35.88-.52 1.82-.52 2.82v.05c0 1.01.17 1.95.52 2.83a6.94 6.94 0 0 0 1.44 2.31c.62.65 1.36 1.17 2.21 1.56.84.38 1.77.58 2.78.58zm-.05 1.83c-1.35 0-2.57-.24-3.67-.73a8.62 8.62 0 0 1-2.83-1.97c-.79-.83-1.39-1.8-1.82-2.9-.43-1.09-.64-2.25-.64-3.46v-.05c0-1.21.21-2.36.65-3.47s1.05-2.08 1.84-2.91 1.73-1.49 2.84-1.98c1.11-.5 2.33-.75 3.68-.75 1.34 0 2.56.25 3.66.73 1.1.49 2.04 1.15 2.83 1.98s1.4 1.79 1.82 2.89a9.41 9.41 0 0 1 .65 3.46c.01.02.01.04 0 .05a9.36 9.36 0 0 1-.66 3.48c-.43 1.1-1.05 2.07-1.84 2.9-.78.83-1.73 1.5-2.84 1.99-1.11.5-2.33.74-3.67.74zm26.88-2.14c1.1 0 2.11-.17 3.02-.52.9-.36 1.67-.84 2.3-1.46s1.11-1.36 1.46-2.21c.34-.84.51-1.75.51-2.73v-.05c0-.97-.17-1.88-.51-2.73-.35-.85-.83-1.58-1.46-2.21s-1.4-1.13-2.3-1.49c-.91-.36-1.92-.54-3.02-.54h-4.13v13.94h4.13zm-6.12-15.78h6.12c1.37 0 2.64.23 3.78.67 1.15.45 2.14 1.06 2.97 1.85s1.48 1.72 1.93 2.78c.45 1.07.68 2.22.68 3.46v.05a8.96 8.96 0 0 1-.68 3.48 8.22 8.22 0 0 1-1.93 2.79 9.02 9.02 0 0 1-2.97 1.86c-1.14.46-2.41.68-3.78.68h-6.12V46.44zm19.68 0h12.74v1.79h-10.75v6.07h9.61v1.78h-9.61v6.19h10.87v1.79h-12.86V46.44zm32.65 16.09c.78 0 1.52-.12 2.21-.36.69-.23 1.3-.56 1.84-.98l-3.27-2.79 1.33-1.49 3.25 2.95c.48-.62.86-1.32 1.13-2.09s.4-1.59.4-2.47v-.05a7.81 7.81 0 0 0-.51-2.83c-.35-.88-.83-1.65-1.45-2.3-.62-.66-1.36-1.18-2.2-1.56-.85-.39-1.78-.58-2.78-.58-1.01 0-1.94.19-2.79.57-.84.37-1.57.89-2.17 1.54-.61.66-1.08 1.42-1.42 2.29-.35.88-.52 1.82-.52 2.82v.05c0 1.01.17 1.95.52 2.83a6.94 6.94 0 0 0 1.44 2.31c.62.65 1.36 1.17 2.2 1.56.85.38 1.78.58 2.79.58zm5.51-.05a9.63 9.63 0 0 1-2.52 1.38c-.92.34-1.94.5-3.04.5-1.35 0-2.57-.24-3.67-.73a8.62 8.62 0 0 1-2.83-1.97c-.79-.83-1.39-1.8-1.82-2.9-.43-1.09-.64-2.25-.64-3.46v-.05c0-1.21.21-2.36.65-3.47s1.05-2.08 1.84-2.91 1.73-1.49 2.84-1.98c1.11-.5 2.33-.75 3.68-.75 1.34 0 2.56.25 3.66.73 1.1.49 2.04 1.15 2.83 1.98s1.4 1.79 1.82 2.89a9.41 9.41 0 0 1 .65 3.46c.01.02.01.04 0 .05 0 1.11-.18 2.17-.55 3.19a8.64 8.64 0 0 1-1.57 2.73l2.34 1.94-1.36 1.48-2.31-2.11zm14.7 1.86c-1.09 0-2.09-.16-2.99-.49-.89-.33-1.67-.82-2.31-1.46-.65-.65-1.15-1.45-1.5-2.41-.35-.95-.53-2.05-.53-3.29V46.44h1.99v10.12c0 1.91.47 3.38 1.42 4.41.95 1.02 2.27 1.53 3.97 1.53 1.62 0 2.92-.48 3.87-1.46.96-.97 1.44-2.42 1.44-4.35V46.44h1.98v10.1c0 1.29-.17 2.42-.52 3.39-.36.98-.85 1.79-1.5 2.45-.65.65-1.42 1.14-2.32 1.47-.89.33-1.9.49-3 .49zm14.82-23.11l2.01.94-2.84 2.69h-1.56l2.39-3.63zm-2.59 5.21h1.99v17.62h-1.99V46.44zm7.15 0h2.01l6.42 9.62 6.42-9.62h2.01v17.62h-1.99V49.79l-6.42 9.44h-.1l-6.42-9.41v14.24h-1.93V46.44zm22.02 0h1.99v17.62h-1.99V46.44zm15.2 17.92c-1.28 0-2.45-.23-3.52-.7-1.08-.47-2.01-1.11-2.8-1.93-.79-.81-1.4-1.77-1.85-2.88-.44-1.11-.66-2.29-.66-3.55v-.05c0-1.24.22-2.41.66-3.52.45-1.11 1.06-2.08 1.85-2.91s1.73-1.48 2.82-1.96 2.28-.72 3.57-.72c.81 0 1.54.07 2.18.2.65.14 1.25.33 1.8.57a8 8 0 0 1 1.54.88c.47.34.92.73 1.36 1.15l-1.36 1.46a11.09 11.09 0 0 0-2.43-1.74c-.87-.45-1.9-.68-3.11-.68-.97 0-1.87.18-2.71.55-.83.37-1.55.88-2.16 1.54-.61.65-1.09 1.42-1.43 2.3-.35.88-.52 1.83-.52 2.83v.05c0 1.03.17 1.98.52 2.86.34.88.82 1.65 1.43 2.3a6.69 6.69 0 0 0 2.16 1.55c.84.38 1.74.57 2.71.57 1.21 0 2.25-.23 3.12-.67s1.73-1.07 2.57-1.88l1.31 1.29c-.46.47-.93.89-1.43 1.27-.49.38-1.02.7-1.59.97s-1.19.48-1.84.63c-.66.15-1.39.22-2.19.22zm21.95-6.74l-4.01-8.99-4.02 8.99h8.03zm-4.91-11.3h1.86l8.03 17.74h-2.14l-2.06-4.65h-9.59l-2.09 4.65h-2.04l8.03-17.74z" fill="#a7c4d2"/></g><path d="M357.49 5.41h19.9a6.48 6.48 0 0 1 6.46 6.46h0a6.48 6.48 0 0 1-6.46 6.46h-19.9c-3.55 0-6.45-2.91-6.45-6.46h0c0-3.55 2.9-6.46 6.45-6.46z" fill="#fff"/><path d="M356.2 8.74h2.51c.49 0 .86.02 1.11.06a1.62 1.62 0 0 1 .65.26c.19.13.35.3.48.52s.19.46.19.73a1.55 1.55 0 0 1-.23.81c-.16.24-.37.42-.64.54.38.12.67.31.87.57.21.27.31.59.31.95 0 .29-.07.56-.2.83s-.31.49-.54.65-.51.26-.85.3c-.21.02-.72.03-1.53.04h-2.13V8.74zm1.27 1.04v1.44h.83l.92-.02c.21-.03.38-.1.5-.22.13-.13.19-.29.19-.49 0-.19-.05-.35-.16-.47s-.27-.2-.48-.22c-.12-.01-.48-.02-1.07-.02h-.73zm0 2.48v1.68h1.17l.87-.04c.19-.03.34-.11.46-.25.12-.13.18-.31.18-.53 0-.19-.05-.35-.14-.48s-.22-.23-.4-.29c-.17-.06-.54-.09-1.12-.09h-1.02zm5.05 2.74V8.74h4.63V9.8h-3.36v1.39h3.13v1.05h-3.13v1.7h3.49V15h-4.76zm7.24 0V9.8h-1.85V8.74h4.96V9.8h-1.84V15h-1.27zm8.93 0h-1.37l-.54-1.43h-2.51l-.52 1.43h-1.34l2.43-6.26h1.34l2.51 6.26zm-2.32-2.48l-.87-2.32-.85 2.32h1.72z" fill="#a7c4d2" fill-rule="nonzero"/></svg>