<?xml version="1.0" encoding="UTF-8"?>
<!DOCTYPE svg PUBLIC "-//W3C//DTD SVG 1.1//EN" "http://www.w3.org/Graphics/SVG/1.1/DTD/svg11.dtd">
<!-- Creator: CorelDRAW -->
<svg xmlns="http://www.w3.org/2000/svg" xml:space="preserve" width="940px" height="280px" version="1.1" style="shape-rendering:geometricPrecision; text-rendering:geometricPrecision; image-rendering:optimizeQuality; fill-rule:evenodd; clip-rule:evenodd"
viewBox="0 0 940 280"
 xmlns:xlink="http://www.w3.org/1999/xlink"
 xmlns:xodm="http://www.corel.com/coreldraw/odm/2003">
 <defs>
  <style type="text/css">
   <![CDATA[
    .fil0 {fill:#F1F9FD}
    .fil1 {fill:#A7C4D2;fill-rule:nonzero}
   ]]>
  </style>
 </defs>
 <g id="Fundo">
  <metadata id="CorelCorpID_0Corel-Layer"/>
  <polygon class="fil0" points="0,0 940,0 940,280 0,280 "/>
  <path class="fil1" d="M394.86 97.4l2.53 0 14.52 21.39 14.53 -21.39 2.53 0 0 36.17 -2.69 0 0 -31.42 -14.32 20.83 -0.2 0 -14.32 -20.83 0 31.42 -2.58 0 0 -36.17zm69.35 23.62l-9.51 -20.93 -9.56 20.93 19.07 0zm-10.75 -23.88l2.59 0 16.84 36.43 -2.94 0 -4.6 -10.13 -21.34 0 -4.6 10.13 -2.8 0 16.85 -36.43zm39.69 20.52c1.69,0 3.22,-0.21 4.6,-0.62 1.38,-0.43 2.56,-1.02 3.54,-1.8 0.98,-0.78 1.75,-1.73 2.3,-2.84 0.55,-1.1 0.83,-2.33 0.83,-3.68l0 -0.11c0,-1.45 -0.27,-2.73 -0.8,-3.82 -0.54,-1.09 -1.29,-2 -2.25,-2.73 -0.97,-0.73 -2.12,-1.28 -3.46,-1.67 -1.35,-0.37 -2.83,-0.56 -4.45,-0.56l-10.23 0 0 17.83 9.92 0zm-12.61 -20.26l13.13 0c2,0 3.81,0.25 5.45,0.75 1.64,0.5 3.05,1.22 4.24,2.17 1.19,0.95 2.11,2.1 2.76,3.46 0.66,1.36 0.99,2.92 0.99,4.68l0 0.1c0,1.9 -0.38,3.57 -1.14,5.01 -0.76,1.45 -1.79,2.66 -3.08,3.62 -1.29,0.97 -2.79,1.69 -4.49,2.17 -1.71,0.48 -3.51,0.73 -5.4,0.73l-9.77 0 0 13.48 -2.69 0 0 -36.17zm59.02 23.62l-9.51 -20.93 -9.56 20.93 19.07 0zm-10.75 -23.88l2.58 0 16.85 36.43 -2.94 0 -4.6 -10.13 -21.35 0 -4.6 10.13 -2.79 0 16.85 -36.43zm-190.26 85.72c-2.65,0 -5.11,-0.48 -7.39,-1.45 -2.27,-0.96 -4.23,-2.28 -5.89,-3.95 -1.65,-1.67 -2.94,-3.64 -3.87,-5.92 -0.93,-2.27 -1.4,-4.7 -1.4,-7.29l0 -0.1c0,-2.58 0.47,-5 1.4,-7.26 0.93,-2.26 2.22,-4.24 3.87,-5.94 1.66,-1.71 3.64,-3.05 5.95,-4.03 2.3,-0.99 4.85,-1.48 7.64,-1.48 1.69,0 3.23,0.14 4.63,0.42 1.39,0.27 2.66,0.65 3.8,1.13 1.13,0.49 2.19,1.07 3.15,1.76 0.96,0.69 1.86,1.45 2.69,2.28l-5.07 5.83c-1.41,-1.27 -2.85,-2.27 -4.31,-2.99 -1.47,-0.73 -3.11,-1.09 -4.94,-1.09 -1.51,0 -2.92,0.3 -4.21,0.88 -1.29,0.59 -2.4,1.4 -3.33,2.43 -0.93,1.03 -1.66,2.23 -2.17,3.59 -0.52,1.36 -0.78,2.82 -0.78,4.37l0 0.1c0,1.55 0.26,3.02 0.78,4.39 0.51,1.38 1.23,2.59 2.14,3.62 0.91,1.04 2.02,1.85 3.31,2.46 1.29,0.6 2.71,0.9 4.26,0.9 2.07,0 3.82,-0.38 5.25,-1.14 1.43,-0.75 2.85,-1.79 4.26,-3.1l5.07 5.12c-0.93,1 -1.9,1.89 -2.9,2.69 -1,0.79 -2.09,1.47 -3.28,2.04 -1.19,0.57 -2.49,1 -3.9,1.29 -1.41,0.29 -3,0.44 -4.76,0.44zm38.87 -7.34c1.58,0 3.05,-0.29 4.39,-0.88 1.34,-0.58 2.49,-1.39 3.44,-2.43 0.94,-1.03 1.68,-2.23 2.22,-3.59 0.53,-1.36 0.8,-2.81 0.8,-4.37l0 -0.1c0,-1.55 -0.27,-3.01 -0.8,-4.39 -0.54,-1.38 -1.29,-2.58 -2.28,-3.62 -0.98,-1.03 -2.14,-1.85 -3.48,-2.45 -1.35,-0.61 -2.81,-0.91 -4.4,-0.91 -1.62,0 -3.09,0.3 -4.42,0.88 -1.32,0.59 -2.46,1.4 -3.41,2.43 -0.94,1.03 -1.68,2.23 -2.22,3.59 -0.53,1.36 -0.8,2.82 -0.8,4.37l0 0.1c0,1.55 0.27,3.02 0.8,4.39 0.54,1.38 1.29,2.59 2.28,3.62 0.98,1.04 2.13,1.85 3.46,2.46 1.32,0.6 2.8,0.9 4.42,0.9zm-0.11 7.34c-2.79,0 -5.35,-0.49 -7.7,-1.47 -2.34,-0.98 -4.36,-2.31 -6.07,-3.98 -1.71,-1.67 -3.03,-3.64 -3.98,-5.89 -0.95,-2.26 -1.42,-4.68 -1.42,-7.27l0 -0.1c0,-2.58 0.48,-5 1.45,-7.26 0.96,-2.26 2.3,-4.24 4,-5.94 1.71,-1.71 3.74,-3.05 6.1,-4.03 2.36,-0.99 4.94,-1.48 7.73,-1.48 2.79,0 5.35,0.49 7.7,1.48 2.34,0.98 4.36,2.31 6.07,3.98 1.7,1.67 3.03,3.63 3.98,5.89 0.95,2.25 1.42,4.67 1.42,7.26l0 0.1c0,2.59 -0.48,5.01 -1.45,7.26 -0.96,2.26 -2.3,4.24 -4,5.95 -1.71,1.7 -3.74,3.05 -6.1,4.03 -2.36,0.98 -4.94,1.47 -7.73,1.47zm26.36 -36.8l8.58 0 9.51 15.3 9.51 -15.3 8.58 0 0 36.18 -7.86 0 0 -23.62 -10.18 15.45 -0.21 0 -10.08 -15.29 0 23.46 -7.85 0 0 -36.18zm59.12 18.25c2,0 3.55,-0.53 4.65,-1.58 1.1,-1.05 1.66,-2.35 1.66,-3.9l0 -0.11c0,-1.79 -0.58,-3.15 -1.74,-4.08 -1.15,-0.93 -2.73,-1.39 -4.72,-1.39l-6.15 0 0 11.06 6.3 0zm-14.26 -18.25l14.78 0c2.17,0 4.11,0.31 5.81,0.91 1.71,0.6 3.15,1.45 4.34,2.56 1.19,1.1 2.1,2.42 2.74,3.95 0.64,1.53 0.96,3.23 0.96,5.09l0 0.1c0,2.11 -0.38,3.95 -1.14,5.53 -0.76,1.59 -1.8,2.91 -3.13,3.98 -1.32,1.07 -2.87,1.87 -4.65,2.41 -1.77,0.53 -3.68,0.8 -5.71,0.8l-6.04 0 0 10.85 -7.96 0 0 -36.18zm34.52 0l7.96 0 0 29 18.03 0 0 7.18 -25.99 0 0 -36.18zm31.99 0l27.23 0 0 7.08 -19.38 0 0 7.34 17.06 0 0 7.08 -17.06 0 0 7.6 19.64 0 0 7.08 -27.49 0 0 -36.18zm43.05 7.34l-11.01 0 0 -7.34 29.97 0 0 7.34 -11.01 0 0 28.84 -7.95 0 0 -28.84zm42.73 22.12c1.59,0 3.05,-0.29 4.4,-0.88 1.34,-0.58 2.49,-1.39 3.43,-2.43 0.95,-1.03 1.69,-2.23 2.23,-3.59 0.53,-1.36 0.8,-2.81 0.8,-4.37l0 -0.1c0,-1.55 -0.27,-3.01 -0.8,-4.39 -0.54,-1.38 -1.3,-2.58 -2.28,-3.62 -0.98,-1.03 -2.14,-1.85 -3.49,-2.45 -1.34,-0.61 -2.8,-0.91 -4.39,-0.91 -1.62,0 -3.09,0.3 -4.42,0.88 -1.32,0.59 -2.46,1.4 -3.41,2.43 -0.95,1.03 -1.69,2.23 -2.22,3.59 -0.53,1.36 -0.8,2.82 -0.8,4.37l0 0.1c0,1.55 0.27,3.02 0.8,4.39 0.53,1.38 1.29,2.59 2.27,3.62 0.98,1.04 2.14,1.85 3.47,2.46 1.32,0.6 2.8,0.9 4.41,0.9zm-0.1 7.34c-2.79,0 -5.36,-0.49 -7.7,-1.47 -2.34,-0.98 -4.37,-2.31 -6.07,-3.98 -1.71,-1.67 -3.03,-3.64 -3.98,-5.89 -0.95,-2.26 -1.42,-4.68 -1.42,-7.27l0 -0.1c0,-2.58 0.48,-5 1.44,-7.26 0.97,-2.26 2.3,-4.24 4.01,-5.94 1.71,-1.71 3.74,-3.05 6.1,-4.03 2.36,-0.99 4.93,-1.48 7.72,-1.48 2.79,0 5.36,0.49 7.7,1.48 2.35,0.98 4.37,2.31 6.08,3.98 1.7,1.67 3.03,3.63 3.98,5.89 0.94,2.25 1.42,4.67 1.42,7.26l0 0.1c0,2.59 -0.49,5.01 -1.45,7.26 -0.96,2.26 -2.3,4.24 -4,5.95 -1.71,1.7 -3.74,3.05 -6.1,4.03 -2.36,0.98 -4.94,1.47 -7.73,1.47z"/>
 </g>
</svg>
