<svg xmlns="http://www.w3.org/2000/svg" width="940" height="280" shape-rendering="geometricPrecision" image-rendering="optimizeQuality" fill-rule="evenodd" xmlns:v="https://vecta.io/nano"><path d="M0 0h940v280H0z" fill="#f1f9fd"/><path d="M394.86 97.4h2.53l14.52 21.39 14.53-21.39h2.53v36.17h-2.69v-31.42l-14.32 20.83h-.2l-14.32-20.83v31.42h-2.58V97.4zm69.35 23.62l-9.51-20.93-9.56 20.93h19.07zm-10.75-23.88h2.59l16.84 36.43h-2.94l-4.6-10.13h-21.34l-4.6 10.13h-2.8l16.85-36.43zm39.69 20.52c1.69 0 3.22-.21 4.6-.62 1.38-.43 2.56-1.02 3.54-1.8s1.75-1.73 2.3-2.84c.55-1.1.83-2.33.83-3.68v-.11c0-1.45-.27-2.73-.8-3.82-.54-1.09-1.29-2-2.25-2.73-.97-.73-2.12-1.28-3.46-1.67-1.35-.37-2.83-.56-4.45-.56h-10.23v17.83h9.92zM480.54 97.4h13.13c2 0 3.81.25 5.45.75s3.05 1.22 4.24 2.17a9.76 9.76 0 0 1 2.76 3.46c.66 1.36.99 2.92.99 4.68v.1c0 1.9-.38 3.57-1.14 5.01-.76 1.45-1.79 2.66-3.08 3.62-1.29.97-2.79 1.69-4.49 2.17-1.71.48-3.51.73-5.4.73h-9.77v13.48h-2.69V97.4zm59.02 23.62l-9.51-20.93-9.56 20.93h19.07zm-10.75-23.88h2.58l16.85 36.43h-2.94l-4.6-10.13h-21.35l-4.6 10.13h-2.79l16.85-36.43zm-190.26 85.72c-2.65 0-5.11-.48-7.39-1.45-2.27-.96-4.23-2.28-5.89-3.95-1.65-1.67-2.94-3.64-3.87-5.92-.93-2.27-1.4-4.7-1.4-7.29v-.1c0-2.58.47-5 1.4-7.26a18.6 18.6 0 0 1 3.87-5.94c1.66-1.71 3.64-3.05 5.95-4.03 2.3-.99 4.85-1.48 7.64-1.48 1.69 0 3.23.14 4.63.42 1.39.27 2.66.65 3.8 1.13a16.9 16.9 0 0 1 3.15 1.76c.96.69 1.86 1.45 2.69 2.28l-5.07 5.83c-1.41-1.27-2.85-2.27-4.31-2.99-1.47-.73-3.11-1.09-4.94-1.09-1.51 0-2.92.3-4.21.88-1.29.59-2.4 1.4-3.33 2.43s-1.66 2.23-2.17 3.59c-.52 1.36-.78 2.82-.78 4.37v.1c0 1.55.26 3.02.78 4.39.51 1.38 1.23 2.59 2.14 3.62.91 1.04 2.02 1.85 3.31 2.46 1.29.6 2.71.9 4.26.9 2.07 0 3.82-.38 5.25-1.14 1.43-.75 2.85-1.79 4.26-3.1l5.07 5.12a26.88 26.88 0 0 1-2.9 2.69 17.37 17.37 0 0 1-3.28 2.04c-1.19.57-2.49 1-3.9 1.29s-3 .44-4.76.44zm38.87-7.34c1.58 0 3.05-.29 4.39-.88 1.34-.58 2.49-1.39 3.44-2.43.94-1.03 1.68-2.23 2.22-3.59.53-1.36.8-2.81.8-4.37v-.1c0-1.55-.27-3.01-.8-4.39a10.96 10.96 0 0 0-2.28-3.62c-.98-1.03-2.14-1.85-3.48-2.45-1.35-.61-2.81-.91-4.4-.91-1.62 0-3.09.3-4.42.88-1.32.59-2.46 1.4-3.41 2.43-.94 1.03-1.68 2.23-2.22 3.59-.53 1.36-.8 2.82-.8 4.37v.1c0 1.55.27 3.02.8 4.39.54 1.38 1.29 2.59 2.28 3.62.98 1.04 2.13 1.85 3.46 2.46 1.32.6 2.8.9 4.42.9zm-.11 7.34c-2.79 0-5.35-.49-7.7-1.47-2.34-.98-4.36-2.31-6.07-3.98s-3.03-3.64-3.98-5.89c-.95-2.26-1.42-4.68-1.42-7.27v-.1c0-2.58.48-5 1.45-7.26a18.62 18.62 0 0 1 4-5.94c1.71-1.71 3.74-3.05 6.1-4.03 2.36-.99 4.94-1.48 7.73-1.48s5.35.49 7.7 1.48c2.34.98 4.36 2.31 6.07 3.98 1.7 1.67 3.03 3.63 3.98 5.89.95 2.25 1.42 4.67 1.42 7.26v.1c0 2.59-.48 5.01-1.45 7.26-.96 2.26-2.3 4.24-4 5.95-1.71 1.7-3.74 3.05-6.1 4.03s-4.94 1.47-7.73 1.47zm26.36-36.8h8.58l9.51 15.3 9.51-15.3h8.58v36.18h-7.86v-23.62l-10.18 15.45h-.21l-10.08-15.29v23.46h-7.85v-36.18zm59.12 18.25c2 0 3.55-.53 4.65-1.58a5.18 5.18 0 0 0 1.66-3.9v-.11c0-1.79-.58-3.15-1.74-4.08-1.15-.93-2.73-1.39-4.72-1.39h-6.15v11.06h6.3zm-14.26-18.25h14.78c2.17 0 4.11.31 5.81.91 1.71.6 3.15 1.45 4.34 2.56 1.19 1.1 2.1 2.42 2.74 3.95s.96 3.23.96 5.09v.1c0 2.11-.38 3.95-1.14 5.53-.76 1.59-1.8 2.91-3.13 3.98-1.32 1.07-2.87 1.87-4.65 2.41-1.77.53-3.68.8-5.71.8h-6.04v10.85h-7.96v-36.18zm34.52 0h7.96v29h18.03v7.18h-25.99v-36.18zm31.99 0h27.23v7.08h-19.38v7.34h17.06v7.08h-17.06v7.6h19.64v7.08h-27.49v-36.18zm43.05 7.34h-11.01v-7.34h29.97v7.34h-11.01v28.84h-7.95V153.4zm42.73 22.12c1.59 0 3.05-.29 4.4-.88 1.34-.58 2.49-1.39 3.43-2.43.95-1.03 1.69-2.23 2.23-3.59.53-1.36.8-2.81.8-4.37v-.1c0-1.55-.27-3.01-.8-4.39-.54-1.38-1.3-2.58-2.28-3.62a10.84 10.84 0 0 0-3.49-2.45c-1.34-.61-2.8-.91-4.39-.91-1.62 0-3.09.3-4.42.88-1.32.59-2.46 1.4-3.41 2.43s-1.69 2.23-2.22 3.59-.8 2.82-.8 4.37v.1c0 1.55.27 3.02.8 4.39.53 1.38 1.29 2.59 2.27 3.62.98 1.04 2.14 1.85 3.47 2.46 1.32.6 2.8.9 4.41.9zm-.1 7.34c-2.79 0-5.36-.49-7.7-1.47s-4.37-2.31-6.07-3.98c-1.71-1.67-3.03-3.64-3.98-5.89-.95-2.26-1.42-4.68-1.42-7.27v-.1c0-2.58.48-5 1.44-7.26.97-2.26 2.3-4.24 4.01-5.94 1.71-1.71 3.74-3.05 6.1-4.03 2.36-.99 4.93-1.48 7.72-1.48s5.36.49 7.7 1.48c2.35.98 4.37 2.31 6.08 3.98 1.7 1.67 3.03 3.63 3.98 5.89.94 2.25 1.42 4.67 1.42 7.26v.1c0 2.59-.49 5.01-1.45 7.26-.96 2.26-2.3 4.24-4 5.95-1.71 1.7-3.74 3.05-6.1 4.03s-4.94 1.47-7.73 1.47z" fill="#a7c4d2" fill-rule="nonzero"/></svg>