<?xml version="1.0" encoding="UTF-8"?>
<!DOCTYPE svg PUBLIC "-//W3C//DTD SVG 1.1//EN" "http://www.w3.org/Graphics/SVG/1.1/DTD/svg11.dtd">
<!-- Creator: CorelDRAW -->
<svg xmlns="http://www.w3.org/2000/svg" xml:space="preserve" width="940px" height="280px" version="1.1" style="shape-rendering:geometricPrecision; text-rendering:geometricPrecision; image-rendering:optimizeQuality; fill-rule:evenodd; clip-rule:evenodd"
viewBox="0 0 940 280"
 xmlns:xlink="http://www.w3.org/1999/xlink"
 xmlns:xodm="http://www.corel.com/coreldraw/odm/2003">
 <defs>
  <style type="text/css">
   <![CDATA[
    .fil0 {fill:#F1F9FD}
    .fil1 {fill:#A7C4D2;fill-rule:nonzero}
   ]]>
  </style>
 </defs>
 <g id="Fundo">
  <metadata id="CorelCorpID_0Corel-Layer"/>
  <polygon class="fil0" points="0,0 940,0 940,280 0,280 "/>
 </g>
 <g id="Arte">
  <metadata id="CorelCorpID_1Corel-Layer"/>
  <path class="fil1" d="M375.77 134.68c-2.67,0 -5.07,-0.45 -7.21,-1.34 -2.14,-0.89 -4.21,-2.22 -6.21,-4l1.61 -1.85c0.92,0.85 1.84,1.59 2.74,2.21 0.91,0.62 1.83,1.13 2.79,1.52 0.95,0.4 1.95,0.7 3,0.91 1.04,0.2 2.19,0.31 3.42,0.31 1.24,0 2.38,-0.17 3.43,-0.5 1.05,-0.34 1.94,-0.8 2.67,-1.38 0.73,-0.59 1.3,-1.29 1.71,-2.1 0.41,-0.81 0.62,-1.69 0.62,-2.64l0 -0.09c0,-0.89 -0.14,-1.69 -0.41,-2.38 -0.27,-0.7 -0.76,-1.34 -1.47,-1.91 -0.72,-0.57 -1.68,-1.09 -2.88,-1.55 -1.21,-0.46 -2.76,-0.88 -4.67,-1.26 -2,-0.41 -3.71,-0.89 -5.14,-1.45 -1.43,-0.55 -2.59,-1.21 -3.5,-1.95 -0.9,-0.75 -1.56,-1.61 -1.97,-2.6 -0.42,-0.98 -0.62,-2.11 -0.62,-3.37l0 -0.1c0,-1.24 0.27,-2.39 0.81,-3.45 0.54,-1.06 1.28,-1.99 2.24,-2.79 0.95,-0.79 2.07,-1.41 3.37,-1.85 1.31,-0.45 2.73,-0.67 4.29,-0.67 2.41,0 4.5,0.33 6.26,1 1.76,0.67 3.48,1.68 5.16,3.05l-1.57 1.95c-1.58,-1.37 -3.18,-2.33 -4.78,-2.9 -1.6,-0.58 -3.32,-0.86 -5.17,-0.86 -1.23,0 -2.35,0.17 -3.35,0.5 -1,0.33 -1.86,0.78 -2.57,1.35 -0.72,0.58 -1.26,1.24 -1.64,2 -0.39,0.77 -0.58,1.58 -0.58,2.43l0 0.1c0,0.89 0.14,1.69 0.41,2.4 0.27,0.72 0.76,1.37 1.47,1.95 0.72,0.59 1.71,1.12 2.98,1.6 1.27,0.47 2.89,0.92 4.85,1.33 3.88,0.79 6.67,1.91 8.38,3.36 1.72,1.44 2.57,3.38 2.57,5.83l0 0.09c0,1.34 -0.27,2.57 -0.83,3.69 -0.55,1.13 -1.32,2.09 -2.28,2.88 -0.97,0.8 -2.13,1.42 -3.48,1.86 -1.35,0.44 -2.83,0.67 -4.45,0.67zm41.75 -12.05l-8.76 -19.28 -8.81 19.28 17.57 0zm-9.9 -21.99l2.38 0 15.52 33.56 -2.72 0 -4.23 -9.33 -19.66 0 -4.24 9.33 -2.57 0 15.52 -33.56zm24.94 0.24l2.48 0 0 31.08 19.56 0 0 2.24 -22.04 0 0 -33.32zm52.03 21.75l-8.76 -19.28 -8.8 19.28 17.56 0zm-9.9 -21.99l2.38 0 15.52 33.56 -2.72 0 -4.23 -9.33 -19.66 0 -4.24 9.33 -2.57 0 15.52 -33.56zm50.31 31.32c2.32,0 4.42,-0.37 6.29,-1.12 1.87,-0.75 3.46,-1.77 4.76,-3.06 1.3,-1.29 2.31,-2.8 3.02,-4.54 0.72,-1.73 1.07,-3.6 1.07,-5.61l0 -0.09c0,-1.98 -0.35,-3.84 -1.07,-5.59 -0.71,-1.75 -1.72,-3.28 -3.02,-4.58 -1.3,-1.31 -2.89,-2.34 -4.76,-3.11 -1.87,-0.76 -3.97,-1.15 -6.29,-1.15l-8.61 0 0 28.85 8.61 0zm-11.09 -31.08l11.09 0c2.61,0 5,0.42 7.17,1.26 2.17,0.84 4.05,2.01 5.62,3.5 1.57,1.49 2.78,3.24 3.64,5.26 0.85,2.01 1.28,4.19 1.28,6.54l0 0.1c0,2.35 -0.43,4.54 -1.28,6.57 -0.86,2.03 -2.07,3.79 -3.64,5.28 -1.57,1.49 -3.45,2.67 -5.62,3.52 -2.17,0.86 -4.56,1.29 -7.17,1.29l-11.09 0 0 -33.32zm37.23 0l23.71 0 0 2.23 -21.24 0 0 13.19 19.09 0 0 2.24 -19.09 0 0 13.42 21.47 0 0 2.24 -23.94 0 0 -33.32zm-218 61.63c1.84,0 3.27,-0.49 4.29,-1.45 1.01,-0.97 1.52,-2.17 1.52,-3.6l0 -0.09c0,-1.65 -0.53,-2.91 -1.6,-3.76 -1.06,-0.86 -2.51,-1.29 -4.35,-1.29l-5.67 0 0 10.19 5.81 0zm-13.14 -16.81l13.62 0c2,0 3.78,0.28 5.35,0.84 1.57,0.55 2.91,1.34 4,2.35 1.1,1.02 1.94,2.23 2.52,3.65 0.59,1.41 0.89,2.97 0.89,4.68l0 0.1c0,1.94 -0.35,3.63 -1.05,5.09 -0.7,1.46 -1.66,2.68 -2.88,3.67 -1.22,0.98 -2.65,1.72 -4.29,2.21 -1.63,0.49 -3.38,0.74 -5.26,0.74l-5.57 0 0 10 -7.33 0 0 -33.33zm46.56 16.19c1.81,0 3.2,-0.43 4.16,-1.29 0.97,-0.85 1.46,-1.99 1.46,-3.42l0 -0.1c0,-1.59 -0.51,-2.77 -1.53,-3.57 -1.01,-0.79 -2.43,-1.19 -4.23,-1.19l-7.29 0 0 9.57 7.43 0zm-14.76 -16.19l15.23 0c4.23,0 7.46,1.13 9.72,3.38 1.9,1.91 2.85,4.45 2.85,7.62l0 0.1c0,2.69 -0.66,4.89 -1.97,6.59 -1.32,1.7 -3.04,2.94 -5.17,3.74l8.14 11.9 -8.57 0 -7.14 -10.67 -0.09 0 -5.67 0 0 10.67 -7.33 0 0 -33.33zm50.7 27.14c1.46,0 2.81,-0.27 4.05,-0.81 1.23,-0.54 2.29,-1.29 3.16,-2.24 0.87,-0.95 1.56,-2.05 2.05,-3.31 0.49,-1.25 0.74,-2.59 0.74,-4.02l0 -0.09c0,-1.43 -0.25,-2.78 -0.74,-4.05 -0.49,-1.27 -1.19,-2.38 -2.1,-3.33 -0.9,-0.96 -1.97,-1.71 -3.21,-2.26 -1.24,-0.56 -2.59,-0.84 -4.05,-0.84 -1.49,0 -2.84,0.27 -4.07,0.81 -1.22,0.54 -2.26,1.29 -3.14,2.24 -0.87,0.95 -1.55,2.05 -2.04,3.31 -0.5,1.25 -0.74,2.59 -0.74,4.02l0 0.1c0,1.42 0.24,2.77 0.74,4.04 0.49,1.27 1.18,2.38 2.09,3.33 0.9,0.96 1.97,1.71 3.19,2.27 1.22,0.55 2.58,0.83 4.07,0.83zm-0.1 6.76c-2.57,0 -4.93,-0.45 -7.09,-1.36 -2.16,-0.9 -4.02,-2.12 -5.59,-3.66 -1.57,-1.54 -2.8,-3.35 -3.67,-5.43 -0.87,-2.08 -1.31,-4.31 -1.31,-6.69l0 -0.09c0,-2.38 0.45,-4.61 1.34,-6.69 0.88,-2.08 2.11,-3.91 3.69,-5.48 1.57,-1.57 3.44,-2.81 5.61,-3.71 2.18,-0.9 4.55,-1.36 7.12,-1.36 2.57,0 4.93,0.46 7.09,1.36 2.16,0.9 4.02,2.13 5.6,3.67 1.57,1.54 2.79,3.34 3.66,5.42 0.87,2.08 1.31,4.31 1.31,6.69l0 0.1c0,2.38 -0.44,4.6 -1.33,6.68 -0.89,2.08 -2.12,3.91 -3.69,5.48 -1.57,1.57 -3.45,2.81 -5.62,3.71 -2.17,0.91 -4.55,1.36 -7.12,1.36zm24.28 -33.9l25.37 0 0 6.62 -18.04 0 0 7.19 15.9 0 0 6.62 -15.9 0 0 12.9 -7.33 0 0 -33.33zm31.23 0l25.09 0 0 6.53 -17.86 0 0 6.76 15.71 0 0 6.52 -15.71 0 0 6.99 18.09 0 0 6.53 -25.32 0 0 -33.33zm43.79 33.8c-2.54,0 -5.03,-0.43 -7.47,-1.31 -2.44,-0.87 -4.67,-2.21 -6.66,-4.02l4.33 -5.19c1.52,1.24 3.08,2.22 4.69,2.95 1.6,0.73 3.35,1.1 5.25,1.1 1.53,0 2.71,-0.28 3.55,-0.83 0.84,-0.56 1.26,-1.33 1.26,-2.31l0 -0.1c0,-0.47 -0.08,-0.89 -0.26,-1.26 -0.17,-0.36 -0.51,-0.71 -1,-1.02 -0.5,-0.32 -1.18,-0.64 -2.05,-0.96 -0.88,-0.31 -2.02,-0.65 -3.41,-0.99 -1.69,-0.42 -3.22,-0.88 -4.59,-1.39 -1.36,-0.5 -2.53,-1.13 -3.48,-1.88 -0.95,-0.74 -1.7,-1.67 -2.22,-2.78 -0.53,-1.11 -0.79,-2.49 -0.79,-4.14l0 -0.1c0,-1.52 0.29,-2.89 0.85,-4.11 0.57,-1.23 1.36,-2.28 2.39,-3.17 1.02,-0.89 2.25,-1.57 3.67,-2.05 1.42,-0.47 2.99,-0.71 4.71,-0.71 2.44,0 4.68,0.36 6.73,1.09 2.05,0.73 3.93,1.78 5.64,3.15l-3.81 5.52c-1.49,-1.02 -2.95,-1.82 -4.38,-2.41 -1.42,-0.58 -2.85,-0.88 -4.28,-0.88 -1.43,0 -2.5,0.28 -3.21,0.84 -0.72,0.55 -1.07,1.24 -1.07,2.07l0 0.09c0,0.54 0.1,1.01 0.31,1.41 0.2,0.39 0.58,0.75 1.11,1.07 0.55,0.31 1.29,0.62 2.23,0.9 0.94,0.29 2.12,0.62 3.55,1 1.69,0.45 3.2,0.95 4.51,1.5 1.32,0.56 2.44,1.22 3.34,2 0.91,0.78 1.6,1.69 2.06,2.74 0.46,1.04 0.69,2.3 0.69,3.76l0 0.09c0,1.65 -0.3,3.12 -0.9,4.41 -0.6,1.28 -1.43,2.36 -2.5,3.23 -1.08,0.88 -2.36,1.54 -3.85,2 -1.48,0.46 -3.13,0.69 -4.94,0.69zm30.47 0c-2.54,0 -5.03,-0.43 -7.47,-1.31 -2.45,-0.87 -4.67,-2.21 -6.67,-4.02l4.33 -5.19c1.53,1.24 3.09,2.22 4.69,2.95 1.6,0.73 3.36,1.1 5.26,1.1 1.53,0 2.71,-0.28 3.55,-0.83 0.84,-0.56 1.26,-1.33 1.26,-2.31l0 -0.1c0,-0.47 -0.09,-0.89 -0.26,-1.26 -0.18,-0.36 -0.51,-0.71 -1,-1.02 -0.5,-0.32 -1.18,-0.64 -2.06,-0.96 -0.87,-0.31 -2.01,-0.65 -3.41,-0.99 -1.69,-0.42 -3.21,-0.88 -4.58,-1.39 -1.37,-0.5 -2.54,-1.13 -3.49,-1.88 -0.95,-0.74 -1.69,-1.67 -2.22,-2.78 -0.52,-1.11 -0.78,-2.49 -0.78,-4.14l0 -0.1c0,-1.52 0.28,-2.89 0.85,-4.11 0.57,-1.23 1.36,-2.28 2.38,-3.17 1.03,-0.89 2.26,-1.57 3.68,-2.05 1.42,-0.47 2.99,-0.71 4.7,-0.71 2.45,0 4.69,0.36 6.74,1.09 2.04,0.73 3.92,1.78 5.64,3.15l-3.81 5.52c-1.49,-1.02 -2.95,-1.82 -4.38,-2.41 -1.43,-0.58 -2.86,-0.88 -4.28,-0.88 -1.43,0 -2.5,0.28 -3.22,0.84 -0.71,0.55 -1.07,1.24 -1.07,2.07l0 0.09c0,0.54 0.11,1.01 0.31,1.41 0.21,0.39 0.58,0.75 1.12,1.07 0.55,0.31 1.29,0.62 2.22,0.9 0.95,0.29 2.13,0.62 3.56,1 1.69,0.45 3.19,0.95 4.51,1.5 1.32,0.56 2.44,1.22 3.34,2 0.91,0.78 1.59,1.69 2.06,2.74 0.46,1.04 0.69,2.3 0.69,3.76l0 0.09c0,1.65 -0.31,3.12 -0.9,4.41 -0.6,1.28 -1.44,2.36 -2.51,3.23 -1.07,0.88 -2.35,1.54 -3.84,2 -1.48,0.46 -3.13,0.69 -4.94,0.69zm34.85 -6.66c1.45,0 2.8,-0.27 4.04,-0.81 1.24,-0.54 2.29,-1.29 3.17,-2.24 0.87,-0.95 1.55,-2.05 2.04,-3.31 0.5,-1.25 0.74,-2.59 0.74,-4.02l0 -0.09c0,-1.43 -0.24,-2.78 -0.74,-4.05 -0.49,-1.27 -1.19,-2.38 -2.09,-3.33 -0.91,-0.96 -1.98,-1.71 -3.21,-2.26 -1.24,-0.56 -2.59,-0.84 -4.05,-0.84 -1.49,0 -2.85,0.27 -4.07,0.81 -1.22,0.54 -2.27,1.29 -3.14,2.24 -0.87,0.95 -1.56,2.05 -2.05,3.31 -0.49,1.25 -0.74,2.59 -0.74,4.02l0 0.1c0,1.42 0.25,2.77 0.74,4.04 0.49,1.27 1.19,2.38 2.1,3.33 0.9,0.96 1.96,1.71 3.19,2.27 1.22,0.55 2.57,0.83 4.07,0.83zm-0.1 6.76c-2.57,0 -4.93,-0.45 -7.09,-1.36 -2.16,-0.9 -4.03,-2.12 -5.6,-3.66 -1.57,-1.54 -2.79,-3.35 -3.66,-5.43 -0.87,-2.08 -1.31,-4.31 -1.31,-6.69l0 -0.09c0,-2.38 0.44,-4.61 1.33,-6.69 0.89,-2.08 2.12,-3.91 3.69,-5.48 1.57,-1.57 3.45,-2.81 5.62,-3.71 2.17,-0.9 4.54,-1.36 7.12,-1.36 2.57,0 4.93,0.46 7.09,1.36 2.16,0.9 4.02,2.13 5.59,3.67 1.57,1.54 2.79,3.34 3.67,5.42 0.87,2.08 1.31,4.31 1.31,6.69l0 0.1c0,2.38 -0.45,4.6 -1.34,6.68 -0.89,2.08 -2.12,3.91 -3.69,5.48 -1.57,1.57 -3.44,2.81 -5.61,3.71 -2.18,0.91 -4.55,1.36 -7.12,1.36zm39.03 -17.71c1.81,0 3.2,-0.43 4.17,-1.29 0.97,-0.85 1.45,-1.99 1.45,-3.42l0 -0.1c0,-1.59 -0.51,-2.77 -1.52,-3.57 -1.02,-0.79 -2.43,-1.19 -4.24,-1.19l-7.28 0 0 9.57 7.42 0zm-14.75 -16.19l15.23 0c4.22,0 7.46,1.13 9.71,3.38 1.91,1.91 2.86,4.45 2.86,7.62l0 0.1c0,2.69 -0.66,4.89 -1.98,6.59 -1.32,1.7 -3.04,2.94 -5.16,3.74l8.14 11.9 -8.57 0 -7.14 -10.67 -0.1 0 -5.66 0 0 10.67 -7.33 0 0 -33.33z"/>
 </g>
</svg>
