<svg xmlns="http://www.w3.org/2000/svg" width="940" height="280" shape-rendering="geometricPrecision" image-rendering="optimizeQuality" fill-rule="evenodd" xmlns:v="https://vecta.io/nano"><path d="M0 0h940v280H0z" fill="#afcdfa"/><path d="M376.06 134.64c-2.7 0-5.13-.45-7.29-1.35-2.17-.89-4.26-2.24-6.28-4.04l1.63-1.87c.93.86 1.85 1.61 2.77 2.23a15.2 15.2 0 0 0 2.81 1.54 16.34 16.34 0 0 0 3.03.92c1.06.21 2.22.31 3.47.31s2.41-.17 3.46-.51c1.06-.33 1.96-.8 2.7-1.39a6.42 6.42 0 0 0 1.73-2.12c.42-.82.62-1.7.62-2.67v-.09c0-.9-.13-1.7-.4-2.41-.28-.7-.77-1.35-1.5-1.92-.72-.58-1.69-1.1-2.91-1.57-1.21-.46-2.79-.89-4.71-1.27-2.02-.42-3.75-.91-5.2-1.47-1.44-.56-2.62-1.22-3.53-1.97-.92-.76-1.58-1.63-2-2.62-.42-1-.63-2.14-.63-3.42v-.1c0-1.25.28-2.41.82-3.49a8.96 8.96 0 0 1 2.26-2.81c.97-.8 2.1-1.43 3.42-1.88 1.31-.45 2.76-.67 4.33-.67 2.44 0 4.55.34 6.33 1.01s3.52 1.7 5.22 3.08l-1.59 1.97c-1.6-1.38-3.22-2.36-4.84-2.93-1.62-.58-3.36-.87-5.22-.87-1.25 0-2.38.17-3.39.51-1.01.33-1.88.79-2.6 1.37-.72.57-1.27 1.25-1.66 2.02-.38.77-.57 1.59-.57 2.45v.1c0 .9.13 1.71.4 2.43.28.72.77 1.38 1.5 1.97.72.59 1.72 1.13 3 1.61 1.29.48 2.92.93 4.91 1.35 3.91.8 6.74 1.93 8.47 3.39s2.6 3.43 2.6 5.9v.09c0 1.35-.28 2.59-.84 3.73-.57 1.14-1.34 2.11-2.31 2.91-.98.8-2.15 1.43-3.52 1.88-1.36.45-2.86.67-4.49.67zm42.19-12.17l-8.85-19.49-8.9 19.49h17.75zm-10.01-22.23h2.41l15.68 33.92h-2.74l-4.28-9.43h-19.87l-4.28 9.43h-2.6l15.68-33.92zm25.22.24h2.5v31.42h19.77v2.26h-22.27v-33.68zm52.59 21.99l-8.86-19.49-8.9 19.49h17.76zm-10.01-22.23h2.4l15.69 33.92h-2.74l-4.29-9.43h-19.87l-4.28 9.43h-2.6l15.69-33.92zm50.86 31.66c2.34 0 4.45-.38 6.35-1.13 1.89-.76 3.49-1.79 4.81-3.1 1.31-1.3 2.33-2.83 3.05-4.58.73-1.75 1.09-3.64 1.09-5.67v-.1c0-2-.36-3.88-1.09-5.64a13.92 13.92 0 0 0-3.05-4.64c-1.32-1.32-2.92-2.36-4.81-3.14-1.9-.77-4.01-1.16-6.35-1.16h-8.71v29.16h8.71zm-11.22-31.42h11.22c2.63 0 5.04.43 7.24 1.28s4.09 2.02 5.68 3.53a15.92 15.92 0 0 1 3.68 5.32c.86 2.04 1.29 4.24 1.29 6.61v.1c0 2.38-.43 4.59-1.29 6.64a15.9 15.9 0 0 1-3.68 5.34c-1.59 1.51-3.48 2.7-5.68 3.56-2.2.87-4.61 1.3-7.24 1.3h-11.22v-33.68zm37.63 0h23.96v2.26h-21.46v13.33h19.3v2.26h-19.3v13.57h21.7v2.26h-24.2v-33.68zm-130.92 64.89l-4.48-10.92-4.47 10.92h8.95zm-7.79-19.82h6.83l14.43 33.92h-7.75l-3.07-7.55h-14.25l-3.08 7.55h-7.55l14.44-33.92zM455.11 180c-4.52 0-8.08-1.25-10.68-3.75s-3.9-6.24-3.9-11.21v-19.25h7.41v19.05c0 2.76.64 4.84 1.92 6.23 1.29 1.4 3.07 2.1 5.34 2.1 2.28 0 4.06-.68 5.34-2.02 1.29-1.35 1.93-3.37 1.93-6.07v-19.29h7.41v19c0 2.57-.35 4.8-1.04 6.69-.68 1.9-1.67 3.48-2.95 4.74-1.29 1.27-2.84 2.22-4.67 2.84-1.83.63-3.87.94-6.11.94zm22.32-34.21h7.41v26.99h16.79v6.69h-24.2v-33.68zm49.13 19.58l-4.48-10.92-4.47 10.92h8.95zm-7.8-19.82h6.84l14.43 33.92h-7.74l-3.08-7.55h-14.25l-3.08 7.55h-7.55l14.43-33.92z" fill="#4067a1" fill-rule="nonzero"/></svg>