<?xml version="1.0" encoding="UTF-8"?>
<!DOCTYPE svg PUBLIC "-//W3C//DTD SVG 1.1//EN" "http://www.w3.org/Graphics/SVG/1.1/DTD/svg11.dtd">
<!-- Creator: CorelDRAW -->
<svg xmlns="http://www.w3.org/2000/svg" xml:space="preserve" width="940px" height="280px" version="1.1" style="shape-rendering:geometricPrecision; text-rendering:geometricPrecision; image-rendering:optimizeQuality; fill-rule:evenodd; clip-rule:evenodd"
viewBox="0 0 940 280"
 xmlns:xlink="http://www.w3.org/1999/xlink"
 xmlns:xodm="http://www.corel.com/coreldraw/odm/2003">
 <defs>
  <style type="text/css">
   <![CDATA[
    .fil0 {fill:#AFCDFA}
    .fil1 {fill:#4067A1;fill-rule:nonzero}
   ]]>
  </style>
 </defs>
 <g id="Fundo">
  <metadata id="CorelCorpID_0Corel-Layer"/>
  <polygon class="fil0" points="0,0 940,0 940,280 0,280 "/>
 </g>
 <g id="Arte">
  <metadata id="CorelCorpID_1Corel-Layer"/>
  <path class="fil1" d="M376.06 134.64c-2.7,0 -5.13,-0.45 -7.29,-1.35 -2.17,-0.89 -4.26,-2.24 -6.28,-4.04l1.63 -1.87c0.93,0.86 1.85,1.61 2.77,2.23 0.91,0.63 1.85,1.14 2.81,1.54 0.97,0.4 1.98,0.71 3.03,0.92 1.06,0.21 2.22,0.31 3.47,0.31 1.25,0 2.41,-0.17 3.46,-0.51 1.06,-0.33 1.96,-0.8 2.7,-1.39 0.74,-0.59 1.31,-1.3 1.73,-2.12 0.42,-0.82 0.62,-1.7 0.62,-2.67l0 -0.09c0,-0.9 -0.13,-1.7 -0.4,-2.41 -0.28,-0.7 -0.77,-1.35 -1.5,-1.92 -0.72,-0.58 -1.69,-1.1 -2.91,-1.57 -1.21,-0.46 -2.79,-0.89 -4.71,-1.27 -2.02,-0.42 -3.75,-0.91 -5.2,-1.47 -1.44,-0.56 -2.62,-1.22 -3.53,-1.97 -0.92,-0.76 -1.58,-1.63 -2,-2.62 -0.42,-1 -0.63,-2.14 -0.63,-3.42l0 -0.1c0,-1.25 0.28,-2.41 0.82,-3.49 0.55,-1.07 1.3,-2.01 2.26,-2.81 0.97,-0.8 2.1,-1.43 3.42,-1.88 1.31,-0.45 2.76,-0.67 4.33,-0.67 2.44,0 4.55,0.34 6.33,1.01 1.78,0.67 3.52,1.7 5.22,3.08l-1.59 1.97c-1.6,-1.38 -3.22,-2.36 -4.84,-2.93 -1.62,-0.58 -3.36,-0.87 -5.22,-0.87 -1.25,0 -2.38,0.17 -3.39,0.51 -1.01,0.33 -1.88,0.79 -2.6,1.37 -0.72,0.57 -1.27,1.25 -1.66,2.02 -0.38,0.77 -0.57,1.59 -0.57,2.45l0 0.1c0,0.9 0.13,1.71 0.4,2.43 0.28,0.72 0.77,1.38 1.5,1.97 0.72,0.59 1.72,1.13 3,1.61 1.29,0.48 2.92,0.93 4.91,1.35 3.91,0.8 6.74,1.93 8.47,3.39 1.73,1.46 2.6,3.43 2.6,5.9l0 0.09c0,1.35 -0.28,2.59 -0.84,3.73 -0.57,1.14 -1.34,2.11 -2.31,2.91 -0.98,0.8 -2.15,1.43 -3.52,1.88 -1.36,0.45 -2.86,0.67 -4.49,0.67zm42.19 -12.17l-8.85 -19.49 -8.9 19.49 17.75 0zm-10.01 -22.23l2.41 0 15.68 33.92 -2.74 0 -4.28 -9.43 -19.87 0 -4.28 9.43 -2.6 0 15.68 -33.92zm25.22 0.24l2.5 0 0 31.42 19.77 0 0 2.26 -22.27 0 0 -33.68zm52.59 21.99l-8.86 -19.49 -8.9 19.49 17.76 0zm-10.01 -22.23l2.4 0 15.69 33.92 -2.74 0 -4.29 -9.43 -19.87 0 -4.28 9.43 -2.6 0 15.69 -33.92zm50.86 31.66c2.34,0 4.45,-0.38 6.35,-1.13 1.89,-0.76 3.49,-1.79 4.81,-3.1 1.31,-1.3 2.33,-2.83 3.05,-4.58 0.73,-1.75 1.09,-3.64 1.09,-5.67l0 -0.1c0,-2 -0.36,-3.88 -1.09,-5.64 -0.72,-1.78 -1.74,-3.32 -3.05,-4.64 -1.32,-1.32 -2.92,-2.36 -4.81,-3.14 -1.9,-0.77 -4.01,-1.16 -6.35,-1.16l-8.71 0 0 29.16 8.71 0zm-11.22 -31.42l11.22 0c2.63,0 5.04,0.43 7.24,1.28 2.2,0.85 4.09,2.02 5.68,3.53 1.58,1.51 2.81,3.28 3.68,5.32 0.86,2.04 1.29,4.24 1.29,6.61l0 0.1c0,2.38 -0.43,4.59 -1.29,6.64 -0.87,2.05 -2.1,3.83 -3.68,5.34 -1.59,1.51 -3.48,2.7 -5.68,3.56 -2.2,0.87 -4.61,1.3 -7.24,1.3l-11.22 0 0 -33.68zm37.63 0l23.96 0 0 2.26 -21.46 0 0 13.33 19.3 0 0 2.26 -19.3 0 0 13.57 21.7 0 0 2.26 -24.2 0 0 -33.68zm-130.92 64.89l-4.48 -10.92 -4.47 10.92 8.95 0zm-7.79 -19.82l6.83 0 14.43 33.92 -7.75 0 -3.07 -7.55 -14.25 0 -3.08 7.55 -7.55 0 14.44 -33.92zm40.51 34.45c-4.52,0 -8.08,-1.25 -10.68,-3.75 -2.6,-2.5 -3.9,-6.24 -3.9,-11.21l0 -19.25 7.41 0 0 19.05c0,2.76 0.64,4.84 1.92,6.23 1.29,1.4 3.07,2.1 5.34,2.1 2.28,0 4.06,-0.68 5.34,-2.02 1.29,-1.35 1.93,-3.37 1.93,-6.07l0 -19.29 7.41 0 0 19c0,2.57 -0.35,4.8 -1.04,6.69 -0.68,1.9 -1.67,3.48 -2.95,4.74 -1.29,1.27 -2.84,2.22 -4.67,2.84 -1.83,0.63 -3.87,0.94 -6.11,0.94zm22.32 -34.21l7.41 0 0 26.99 16.79 0 0 6.69 -24.2 0 0 -33.68zm49.13 19.58l-4.48 -10.92 -4.47 10.92 8.95 0zm-7.8 -19.82l6.84 0 14.43 33.92 -7.74 0 -3.08 -7.55 -14.25 0 -3.08 7.55 -7.55 0 14.43 -33.92z"/>
 </g>
</svg>
