<svg xmlns="http://www.w3.org/2000/svg" width="940" height="280" shape-rendering="geometricPrecision" image-rendering="optimizeQuality" fill-rule="evenodd" xmlns:v="https://vecta.io/nano"><path d="M0 0h940v280H0z" fill="#daf9fa"/><path d="M374.82 134.62c-2.7 0-5.13-.45-7.29-1.34-2.16-.9-4.25-2.25-6.27-4.04l1.63-1.88c.93.87 1.85 1.61 2.77 2.24.91.62 1.85 1.13 2.81 1.54a15.87 15.87 0 0 0 3.03.91c1.06.21 2.21.31 3.46.31s2.4-.17 3.46-.5c1.06-.34 1.96-.8 2.69-1.4.74-.59 1.32-1.3 1.74-2.11a5.89 5.89 0 0 0 .62-2.67v-.1c0-.9-.14-1.7-.41-2.4-.27-.71-.77-1.35-1.49-1.93-.72-.57-1.69-1.09-2.91-1.56-1.22-.46-2.79-.89-4.71-1.27-2.02-.42-3.75-.91-5.19-1.47-1.45-.56-2.62-1.22-3.54-1.97-.91-.76-1.58-1.63-1.99-2.62-.42-1-.63-2.13-.63-3.42v-.09c0-1.25.27-2.41.82-3.49.54-1.07 1.3-2.01 2.26-2.81s2.1-1.43 3.41-1.88c1.32-.45 2.76-.67 4.33-.67 2.44 0 4.55.34 6.32 1.01 1.78.67 3.52 1.7 5.22 3.08l-1.59 1.97c-1.6-1.38-3.21-2.36-4.83-2.93-1.62-.58-3.36-.87-5.22-.87-1.25 0-2.38.17-3.39.51-1.01.33-1.87.79-2.59 1.37-.72.57-1.28 1.25-1.66 2.02-.39.76-.58 1.58-.58 2.45v.09c0 .9.14 1.71.41 2.43s.77 1.38 1.49 1.97c.72.6 1.72 1.13 3.01 1.61 1.28.48 2.91.93 4.9 1.35 3.91.8 6.73 1.93 8.46 3.39 1.74 1.46 2.6 3.42 2.6 5.89v.1c0 1.34-.28 2.59-.84 3.72-.56 1.14-1.33 2.11-2.31 2.91-.98.81-2.15 1.43-3.51 1.88s-2.86.67-4.49.67zm42.17-12.16l-8.85-19.48-8.9 19.48h17.75zm-10.01-22.22h2.41l15.67 33.9h-2.74l-4.28-9.42h-19.85l-4.28 9.42h-2.6l15.67-33.9zm25.2.24h2.5v31.4h19.76v2.26h-22.26v-33.66zm52.56 21.98l-8.85-19.48-8.89 19.48h17.74zm-10-22.22h2.4l15.68 33.9h-2.74l-4.28-9.42h-19.86l-4.28 9.42h-2.6l15.68-33.9zm50.82 31.64c2.34 0 4.46-.38 6.35-1.13 1.89-.76 3.49-1.79 4.81-3.09a13.71 13.71 0 0 0 3.05-4.59c.72-1.74 1.08-3.64 1.08-5.66v-.1c0-2-.36-3.88-1.08-5.64-.72-1.77-1.74-3.32-3.05-4.63-1.32-1.33-2.92-2.37-4.81-3.14s-4.01-1.16-6.35-1.16h-8.7v29.14h8.7zm-11.2-31.4h11.2c2.63 0 5.04.43 7.24 1.27 2.19.85 4.09 2.03 5.67 3.54a15.69 15.69 0 0 1 3.68 5.31c.87 2.04 1.3 4.24 1.3 6.62v.09c0 2.37-.43 4.58-1.3 6.64-.86 2.05-2.09 3.83-3.68 5.33-1.58 1.51-3.48 2.7-5.67 3.56-2.2.87-4.61 1.3-7.24 1.3h-11.2v-33.66zm37.6 0h23.95v2.26h-21.45v13.32h19.28v2.26h-19.28v13.56h21.69v2.26h-24.19v-33.66zm-220.21 62.26c1.86 0 3.31-.49 4.33-1.47 1.03-.98 1.54-2.19 1.54-3.63v-.1c0-1.66-.54-2.93-1.61-3.79-1.07-.87-2.54-1.3-4.4-1.3h-5.72v10.29h5.86zm-13.27-16.98h13.75c2.02 0 3.83.28 5.42.84 1.58.57 2.93 1.36 4.03 2.38 1.11 1.03 1.96 2.26 2.55 3.68.6 1.43.89 3.01.89 4.74v.09c0 1.96-.35 3.68-1.06 5.15-.7 1.48-1.67 2.71-2.9 3.7-1.24 1-2.68 1.74-4.33 2.24s-3.42.74-5.32.74h-5.62v10.1h-7.41v-33.66zm47.03 16.35c1.83 0 3.23-.43 4.21-1.3.98-.86 1.47-2.02 1.47-3.46v-.1c0-1.6-.52-2.8-1.54-3.6-1.03-.8-2.46-1.2-4.28-1.2h-7.36v9.66h7.5zm-14.91-16.35h15.39c4.26 0 7.54 1.14 9.81 3.42 1.93 1.92 2.89 4.48 2.89 7.69v.1c0 2.72-.67 4.94-2 6.66-1.33 1.71-3.07 2.97-5.22 3.77l8.23 12.02h-8.66l-7.21-10.77h-.1-5.72v10.77h-7.41v-33.66zm51.22 27.41c1.47 0 2.83-.27 4.08-.82 1.25-.54 2.32-1.29 3.2-2.26.88-.96 1.57-2.07 2.07-3.34.5-1.26.74-2.62.74-4.06v-.1c0-1.44-.24-2.8-.74-4.08-.5-1.29-1.2-2.41-2.12-3.37a10.29 10.29 0 0 0-3.24-2.29c-1.25-.56-2.62-.84-4.09-.84-1.51 0-2.88.28-4.11.82-1.24.55-2.29 1.3-3.18 2.26-.88.96-1.57 2.08-2.06 3.34-.5 1.27-.75 2.62-.75 4.07v.09c0 1.45.25 2.81.75 4.09a10.22 10.22 0 0 0 2.11 3.37c.92.96 1.99 1.72 3.22 2.28 1.24.56 2.61.84 4.12.84zm-.1 6.83c-2.6 0-4.99-.46-7.17-1.37-2.18-.92-4.06-2.15-5.65-3.7-1.58-1.56-2.82-3.39-3.7-5.49s-1.32-4.35-1.32-6.75v-.1c0-2.4.45-4.65 1.35-6.75.89-2.1 2.14-3.95 3.72-5.53 1.59-1.59 3.48-2.84 5.68-3.75 2.19-.92 4.59-1.37 7.19-1.37 2.59 0 4.98.45 7.16 1.37 2.18.91 4.06 2.14 5.65 3.7 1.59 1.55 2.82 3.38 3.7 5.48s1.33 4.35 1.33 6.76v.09c0 2.41-.45 4.66-1.35 6.76a17.46 17.46 0 0 1-3.73 5.53c-1.58 1.58-3.48 2.83-5.67 3.75-2.2.91-4.59 1.37-7.19 1.37zm24.52-34.24h25.63v6.69h-18.22v7.26h16.06v6.68h-16.06v13.03h-7.41v-33.66zm31.55 0h25.34v6.59h-18.04v6.83h15.87v6.59h-15.87v7.06h18.28v6.59h-25.58v-33.66zm44.23 34.14c-2.56 0-5.08-.44-7.54-1.32-2.47-.88-4.72-2.24-6.74-4.06l4.38-5.24c1.54 1.25 3.12 2.24 4.74 2.98s3.39 1.1 5.31 1.1c1.54 0 2.73-.28 3.58-.84a2.64 2.64 0 0 0 1.27-2.33v-.1c0-.48-.08-.9-.26-1.27s-.51-.71-1.01-1.03-1.19-.65-2.08-.97c-.88-.32-2.03-.65-3.44-1.01a40.81 40.81 0 0 1-4.63-1.39c-1.38-.51-2.56-1.15-3.52-1.9s-1.72-1.69-2.25-2.81c-.52-1.12-.79-2.52-.79-4.19v-.09c0-1.54.29-2.93.86-4.16a9.59 9.59 0 0 1 2.41-3.2c1.04-.9 2.28-1.59 3.71-2.07 1.44-.48 3.02-.72 4.75-.72 2.47 0 4.74.37 6.81 1.11 2.07.73 3.97 1.79 5.7 3.17l-3.85 5.58c-1.51-1.03-2.98-1.84-4.43-2.43-1.44-.59-2.88-.89-4.32-.89s-2.53.28-3.25.84-1.08 1.26-1.08 2.09v.1c0 .55.11 1.02.31 1.42.21.4.59.76 1.13 1.08.56.32 1.3.63 2.25.91.95.29 2.14.63 3.59 1.02 1.7.44 3.23.95 4.56 1.51s2.46 1.23 3.37 2.02c.91.78 1.61 1.71 2.08 2.76.46 1.06.69 2.33.69 3.8v.1c0 1.66-.3 3.15-.9 4.45-.61 1.29-1.45 2.38-2.53 3.27-1.09.88-2.38 1.55-3.88 2.02-1.5.46-3.17.69-5 .69zm30.78 0c-2.57 0-5.08-.44-7.55-1.32s-4.71-2.24-6.73-4.06l4.37-5.24c1.54 1.25 3.12 2.24 4.74 2.98s3.39 1.1 5.31 1.1c1.54 0 2.74-.28 3.59-.84.84-.56 1.27-1.34 1.27-2.33v-.1c0-.48-.09-.9-.27-1.27-.17-.37-.51-.71-1-1.03-.51-.32-1.2-.65-2.08-.97s-2.04-.65-3.45-1.01c-1.7-.41-3.24-.88-4.63-1.39-1.38-.51-2.56-1.15-3.52-1.9a7.7 7.7 0 0 1-2.24-2.81c-.53-1.12-.79-2.52-.79-4.19v-.09c0-1.54.28-2.93.85-4.16.58-1.24 1.38-2.3 2.42-3.2 1.03-.9 2.27-1.59 3.71-2.07 1.43-.48 3.02-.72 4.75-.72 2.47 0 4.74.37 6.8 1.11 2.07.73 3.97 1.79 5.7 3.17l-3.85 5.58c-1.5-1.03-2.98-1.84-4.42-2.43s-2.89-.89-4.33-.89-2.52.28-3.24.84-1.08 1.26-1.08 2.09v.1c0 .55.1 1.02.31 1.42.2.4.58.76 1.13 1.08s1.3.63 2.24.91c.95.29 2.15.63 3.59 1.02 1.71.44 3.23.95 4.56 1.51s2.46 1.23 3.38 2.02c.91.78 1.61 1.71 2.07 2.76.47 1.06.7 2.33.7 3.8v.1c0 1.66-.31 3.15-.91 4.45-.61 1.29-1.45 2.38-2.53 3.27-1.08.88-2.38 1.55-3.88 2.02-1.5.46-3.16.69-4.99.69zm35.2-6.73c1.47 0 2.83-.27 4.09-.82 1.24-.54 2.31-1.29 3.19-2.26.88-.96 1.57-2.07 2.07-3.34.5-1.26.75-2.62.75-4.06v-.1c0-1.44-.25-2.8-.75-4.08-.5-1.29-1.2-2.41-2.11-3.37-.92-.96-2-1.72-3.25-2.29-1.25-.56-2.61-.84-4.09-.84-1.51 0-2.88.28-4.11.82-1.23.55-2.29 1.3-3.17 2.26s-1.57 2.08-2.07 3.34c-.5 1.27-.75 2.62-.75 4.07v.09c0 1.45.25 2.81.75 4.09s1.2 2.4 2.12 3.37a10.13 10.13 0 0 0 3.22 2.28c1.23.56 2.6.84 4.11.84zm-.1 6.83c-2.6 0-4.98-.46-7.16-1.37-2.18-.92-4.07-2.15-5.65-3.7-1.59-1.56-2.82-3.39-3.71-5.49-.88-2.1-1.32-4.35-1.32-6.75v-.1c0-2.4.45-4.65 1.35-6.75a17.35 17.35 0 0 1 3.73-5.53c1.58-1.59 3.47-2.84 5.67-3.75 2.2-.92 4.59-1.37 7.19-1.37 2.59 0 4.98.45 7.16 1.37 2.18.91 4.06 2.14 5.65 3.7 1.59 1.55 2.82 3.38 3.71 5.48.88 2.1 1.32 4.35 1.32 6.76v.09c0 2.41-.45 4.66-1.35 6.76a17.46 17.46 0 0 1-3.73 5.53c-1.58 1.58-3.47 2.83-5.67 3.75-2.19.91-4.59 1.37-7.19 1.37zm39.43-17.89c1.83 0 3.23-.43 4.21-1.3.98-.86 1.47-2.02 1.47-3.46v-.1c0-1.6-.52-2.8-1.54-3.6-1.03-.8-2.46-1.2-4.28-1.2h-7.36v9.66h7.5zm-14.91-16.35h15.39c4.26 0 7.54 1.14 9.81 3.42 1.93 1.92 2.89 4.48 2.89 7.69v.1c0 2.72-.67 4.94-2 6.66-1.33 1.71-3.07 2.97-5.22 3.77l8.23 12.02h-8.66l-7.21-10.77h-.1-5.72v10.77h-7.41v-33.66z" fill="#377375" fill-rule="nonzero"/></svg>