<?xml version="1.0" encoding="UTF-8"?>
<!DOCTYPE svg PUBLIC "-//W3C//DTD SVG 1.1//EN" "http://www.w3.org/Graphics/SVG/1.1/DTD/svg11.dtd">
<!-- Creator: CorelDRAW -->
<svg xmlns="http://www.w3.org/2000/svg" xml:space="preserve" width="940px" height="280px" version="1.1" style="shape-rendering:geometricPrecision; text-rendering:geometricPrecision; image-rendering:optimizeQuality; fill-rule:evenodd; clip-rule:evenodd"
viewBox="0 0 940 280"
 xmlns:xlink="http://www.w3.org/1999/xlink"
 xmlns:xodm="http://www.corel.com/coreldraw/odm/2003">
 <defs>
  <style type="text/css">
   <![CDATA[
    .fil0 {fill:#F1F9FD}
    .fil1 {fill:#A7C4D2;fill-rule:nonzero}
   ]]>
  </style>
 </defs>
 <g id="Fundo">
  <metadata id="CorelCorpID_0Corel-Layer"/>
  <polygon class="fil0" points="0,0 940,0 940,280 0,280 "/>
 </g>
 <g id="Arte">
  <metadata id="CorelCorpID_1Corel-Layer"/>
  <path class="fil1" d="M338.93 132.52c-3.76,0 -7.15,-0.62 -10.17,-1.87 -3.02,-1.26 -5.94,-3.14 -8.76,-5.64l2.28 -2.62c1.3,1.21 2.59,2.25 3.86,3.12 1.28,0.87 2.59,1.59 3.93,2.15 1.34,0.56 2.75,0.98 4.23,1.27 1.48,0.29 3.09,0.44 4.83,0.44 1.75,0 3.36,-0.24 4.84,-0.71 1.47,-0.47 2.73,-1.11 3.76,-1.94 1.03,-0.83 1.83,-1.81 2.41,-2.96 0.58,-1.14 0.87,-2.38 0.87,-3.72l0 -0.14c0,-1.25 -0.19,-2.37 -0.57,-3.35 -0.38,-0.99 -1.07,-1.88 -2.08,-2.69 -1,-0.8 -2.36,-1.53 -4.06,-2.18 -1.7,-0.65 -3.89,-1.24 -6.58,-1.78 -2.82,-0.58 -5.23,-1.26 -7.25,-2.05 -2.01,-0.78 -3.66,-1.69 -4.93,-2.75 -1.28,-1.05 -2.2,-2.27 -2.79,-3.66 -0.58,-1.38 -0.87,-2.97 -0.87,-4.76l0 -0.14c0,-1.74 0.38,-3.36 1.14,-4.86 0.76,-1.5 1.81,-2.81 3.16,-3.93 1.34,-1.12 2.93,-1.99 4.76,-2.62 1.84,-0.62 3.85,-0.94 6.05,-0.94 3.4,0 6.34,0.47 8.82,1.41 2.49,0.94 4.91,2.37 7.29,4.3l-2.22 2.75c-2.24,-1.92 -4.49,-3.29 -6.75,-4.09 -2.26,-0.81 -4.68,-1.21 -7.28,-1.21 -1.74,0 -3.32,0.23 -4.73,0.7 -1.41,0.47 -2.62,1.11 -3.63,1.92 -1,0.8 -1.78,1.74 -2.31,2.82 -0.54,1.07 -0.81,2.21 -0.81,3.42l0 0.13c0,1.26 0.19,2.39 0.57,3.39 0.38,1.01 1.08,1.93 2.08,2.76 1.01,0.82 2.41,1.57 4.2,2.24 1.79,0.68 4.07,1.3 6.85,1.88 5.46,1.12 9.39,2.7 11.81,4.74 2.42,2.03 3.62,4.77 3.62,8.22l0 0.13c0,1.88 -0.39,3.62 -1.17,5.21 -0.78,1.58 -1.86,2.94 -3.22,4.06 -1.37,1.12 -3,1.99 -4.9,2.62 -1.9,0.62 -4,0.93 -6.28,0.93zm58.87 -16.98l-12.35 -27.19 -12.42 27.19 24.77 0zm-13.96 -31.01l3.36 0 21.88 47.32 -3.83 0 -5.97 -13.15 -27.72 0 -5.98 13.15 -3.62 0 21.88 -47.32zm35.18 0.33l3.49 0 0 43.84 27.58 0 0 3.15 -31.07 0 0 -46.99zm73.37 30.68l-12.36 -27.19 -12.41 27.19 24.77 0zm-13.97 -31.01l3.36 0 21.88 47.32 -3.82 0 -5.98 -13.15 -27.72 0 -5.98 13.15 -3.62 0 21.88 -47.32zm70.96 44.17c3.27,0 6.22,-0.53 8.86,-1.58 2.64,-1.06 4.88,-2.49 6.71,-4.32 1.84,-1.81 3.26,-3.95 4.27,-6.4 1,-2.44 1.51,-5.08 1.51,-7.91l0 -0.13c0,-2.79 -0.51,-5.42 -1.51,-7.88 -1.01,-2.47 -2.43,-4.63 -4.27,-6.46 -1.83,-1.85 -4.07,-3.3 -6.71,-4.39 -2.64,-1.07 -5.59,-1.61 -8.86,-1.61l-12.15 0 0 40.68 12.15 0zm-15.64 -43.84l15.64 0c3.67,0 7.04,0.6 10.1,1.78 3.07,1.19 5.71,2.83 7.92,4.94 2.22,2.1 3.93,4.57 5.14,7.41 1.21,2.85 1.81,5.92 1.81,9.23l0 0.14c0,3.31 -0.6,6.4 -1.81,9.26 -1.21,2.87 -2.92,5.35 -5.14,7.45 -2.21,2.11 -4.85,3.76 -7.92,4.97 -3.06,1.21 -6.43,1.81 -10.1,1.81l-15.64 0 0 -46.99zm52.49 0l33.43 0 0 3.16 -29.94 0 0 18.59 26.92 0 0 3.16 -26.92 0 0 18.93 30.28 0 0 3.15 -33.77 0 0 -46.99zm-182.65 90.54l-6.25 -15.24 -6.24 15.24 12.49 0zm-10.88 -27.66l9.53 0 20.14 47.33 -10.81 0 -4.29 -10.54 -19.87 0 -4.3 10.54 -10.54 0 20.14 -47.33zm56.52 48.07c-6.31,0 -11.27,-1.75 -14.9,-5.24 -3.62,-3.49 -5.44,-8.7 -5.44,-15.64l0 -26.85 10.34 0 0 26.58c0,3.85 0.9,6.75 2.69,8.69 1.79,1.95 4.27,2.92 7.45,2.92 3.18,0 5.66,-0.94 7.45,-2.82 1.79,-1.88 2.68,-4.69 2.68,-8.45l0 -26.92 10.34 0 0 26.51c0,3.58 -0.48,6.69 -1.44,9.33 -0.96,2.64 -2.34,4.85 -4.13,6.62 -1.79,1.76 -3.96,3.08 -6.51,3.96 -2.55,0.87 -5.39,1.31 -8.53,1.31zm31.15 -47.73l10.34 0 0 37.66 23.43 0 0 9.33 -33.77 0 0 -46.99zm68.54 27.32l-6.24 -15.24 -6.25 15.24 12.49 0zm-10.88 -27.66l9.54 0 20.14 47.33 -10.81 0 -4.3 -10.54 -19.87 0 -4.3 10.54 -10.54 0 20.14 -47.33z"/>
 </g>
</svg>
