<?xml version="1.0" encoding="UTF-8"?>
<!DOCTYPE svg PUBLIC "-//W3C//DTD SVG 1.1//EN" "http://www.w3.org/Graphics/SVG/1.1/DTD/svg11.dtd">
<!-- Creator: CorelDRAW -->
<svg xmlns="http://www.w3.org/2000/svg" xml:space="preserve" width="940px" height="280px" version="1.1" style="shape-rendering:geometricPrecision; text-rendering:geometricPrecision; image-rendering:optimizeQuality; fill-rule:evenodd; clip-rule:evenodd"
viewBox="0 0 940 280"
 xmlns:xlink="http://www.w3.org/1999/xlink"
 xmlns:xodm="http://www.corel.com/coreldraw/odm/2003">
 <defs>
  <style type="text/css">
   <![CDATA[
    .fil0 {fill:#F1F9FD}
    .fil1 {fill:#A7C4D2;fill-rule:nonzero}
   ]]>
  </style>
 </defs>
 <g id="Fundo">
  <metadata id="CorelCorpID_0Corel-Layer"/>
  <polygon class="fil0" points="0,0 940,0 940,280 0,280 "/>
 </g>
 <g id="Arte">
  <metadata id="CorelCorpID_1Corel-Layer"/>
  <path class="fil1" d="M374.82 134.62c-2.7,0 -5.13,-0.45 -7.29,-1.34 -2.16,-0.9 -4.25,-2.25 -6.27,-4.04l1.63 -1.88c0.93,0.87 1.85,1.61 2.77,2.24 0.91,0.62 1.85,1.13 2.81,1.54 0.96,0.4 1.97,0.7 3.03,0.91 1.06,0.21 2.21,0.31 3.46,0.31 1.25,0 2.4,-0.17 3.46,-0.5 1.06,-0.34 1.96,-0.8 2.69,-1.4 0.74,-0.59 1.32,-1.3 1.74,-2.11 0.41,-0.82 0.62,-1.71 0.62,-2.67l0 -0.1c0,-0.9 -0.14,-1.7 -0.41,-2.4 -0.27,-0.71 -0.77,-1.35 -1.49,-1.93 -0.72,-0.57 -1.69,-1.09 -2.91,-1.56 -1.22,-0.46 -2.79,-0.89 -4.71,-1.27 -2.02,-0.42 -3.75,-0.91 -5.19,-1.47 -1.45,-0.56 -2.62,-1.22 -3.54,-1.97 -0.91,-0.76 -1.58,-1.63 -1.99,-2.62 -0.42,-1 -0.63,-2.13 -0.63,-3.42l0 -0.09c0,-1.25 0.27,-2.41 0.82,-3.49 0.54,-1.07 1.3,-2.01 2.26,-2.81 0.96,-0.8 2.1,-1.43 3.41,-1.88 1.32,-0.45 2.76,-0.67 4.33,-0.67 2.44,0 4.55,0.34 6.32,1.01 1.78,0.67 3.52,1.7 5.22,3.08l-1.59 1.97c-1.6,-1.38 -3.21,-2.36 -4.83,-2.93 -1.62,-0.58 -3.36,-0.87 -5.22,-0.87 -1.25,0 -2.38,0.17 -3.39,0.51 -1.01,0.33 -1.87,0.79 -2.59,1.37 -0.72,0.57 -1.28,1.25 -1.66,2.02 -0.39,0.76 -0.58,1.58 -0.58,2.45l0 0.09c0,0.9 0.14,1.71 0.41,2.43 0.27,0.72 0.77,1.38 1.49,1.97 0.72,0.6 1.72,1.13 3.01,1.61 1.28,0.48 2.91,0.93 4.9,1.35 3.91,0.8 6.73,1.93 8.46,3.39 1.74,1.46 2.6,3.42 2.6,5.89l0 0.1c0,1.34 -0.28,2.59 -0.84,3.72 -0.56,1.14 -1.33,2.11 -2.31,2.91 -0.98,0.81 -2.15,1.43 -3.51,1.88 -1.36,0.45 -2.86,0.67 -4.49,0.67zm42.17 -12.16l-8.85 -19.48 -8.9 19.48 17.75 0zm-10.01 -22.22l2.41 0 15.67 33.9 -2.74 0 -4.28 -9.42 -19.85 0 -4.28 9.42 -2.6 0 15.67 -33.9zm25.2 0.24l2.5 0 0 31.4 19.76 0 0 2.26 -22.26 0 0 -33.66zm52.56 21.98l-8.85 -19.48 -8.89 19.48 17.74 0zm-10 -22.22l2.4 0 15.68 33.9 -2.74 0 -4.28 -9.42 -19.86 0 -4.28 9.42 -2.6 0 15.68 -33.9zm50.82 31.64c2.34,0 4.46,-0.38 6.35,-1.13 1.89,-0.76 3.49,-1.79 4.81,-3.09 1.31,-1.3 2.33,-2.83 3.05,-4.59 0.72,-1.74 1.08,-3.64 1.08,-5.66l0 -0.1c0,-2 -0.36,-3.88 -1.08,-5.64 -0.72,-1.77 -1.74,-3.32 -3.05,-4.63 -1.32,-1.33 -2.92,-2.37 -4.81,-3.14 -1.89,-0.77 -4.01,-1.16 -6.35,-1.16l-8.7 0 0 29.14 8.7 0zm-11.2 -31.4l11.2 0c2.63,0 5.04,0.43 7.24,1.27 2.19,0.85 4.09,2.03 5.67,3.54 1.59,1.51 2.82,3.28 3.68,5.31 0.87,2.04 1.3,4.24 1.3,6.62l0 0.09c0,2.37 -0.43,4.58 -1.3,6.64 -0.86,2.05 -2.09,3.83 -3.68,5.33 -1.58,1.51 -3.48,2.7 -5.67,3.56 -2.2,0.87 -4.61,1.3 -7.24,1.3l-11.2 0 0 -33.66zm37.6 0l23.95 0 0 2.26 -21.45 0 0 13.32 19.28 0 0 2.26 -19.28 0 0 13.56 21.69 0 0 2.26 -24.19 0 0 -33.66zm-220.21 62.26c1.86,0 3.31,-0.49 4.33,-1.47 1.03,-0.98 1.54,-2.19 1.54,-3.63l0 -0.1c0,-1.66 -0.54,-2.93 -1.61,-3.79 -1.07,-0.87 -2.54,-1.3 -4.4,-1.3l-5.72 0 0 10.29 5.86 0zm-13.27 -16.98l13.75 0c2.02,0 3.83,0.28 5.42,0.84 1.58,0.57 2.93,1.36 4.03,2.38 1.11,1.03 1.96,2.26 2.55,3.68 0.6,1.43 0.89,3.01 0.89,4.74l0 0.09c0,1.96 -0.35,3.68 -1.06,5.15 -0.7,1.48 -1.67,2.71 -2.9,3.7 -1.24,1 -2.68,1.74 -4.33,2.24 -1.65,0.5 -3.42,0.74 -5.32,0.74l-5.62 0 0 10.1 -7.41 0 0 -33.66zm47.03 16.35c1.83,0 3.23,-0.43 4.21,-1.3 0.98,-0.86 1.47,-2.02 1.47,-3.46l0 -0.1c0,-1.6 -0.52,-2.8 -1.54,-3.6 -1.03,-0.8 -2.46,-1.2 -4.28,-1.2l-7.36 0 0 9.66 7.5 0zm-14.91 -16.35l15.39 0c4.26,0 7.54,1.14 9.81,3.42 1.93,1.92 2.89,4.48 2.89,7.69l0 0.1c0,2.72 -0.67,4.94 -2,6.66 -1.33,1.71 -3.07,2.97 -5.22,3.77l8.23 12.02 -8.66 0 -7.21 -10.77 -0.1 0 -5.72 0 0 10.77 -7.41 0 0 -33.66zm51.22 27.41c1.47,0 2.83,-0.27 4.08,-0.82 1.25,-0.54 2.32,-1.29 3.2,-2.26 0.88,-0.96 1.57,-2.07 2.07,-3.34 0.5,-1.26 0.74,-2.62 0.74,-4.06l0 -0.1c0,-1.44 -0.24,-2.8 -0.74,-4.08 -0.5,-1.29 -1.2,-2.41 -2.12,-3.37 -0.91,-0.96 -1.99,-1.72 -3.24,-2.29 -1.25,-0.56 -2.62,-0.84 -4.09,-0.84 -1.51,0 -2.88,0.28 -4.11,0.82 -1.24,0.55 -2.29,1.3 -3.18,2.26 -0.88,0.96 -1.57,2.08 -2.06,3.34 -0.5,1.27 -0.75,2.62 -0.75,4.07l0 0.09c0,1.45 0.25,2.81 0.75,4.09 0.49,1.28 1.2,2.4 2.11,3.37 0.92,0.96 1.99,1.72 3.22,2.28 1.24,0.56 2.61,0.84 4.12,0.84zm-0.1 6.83c-2.6,0 -4.99,-0.46 -7.17,-1.37 -2.18,-0.92 -4.06,-2.15 -5.65,-3.7 -1.58,-1.56 -2.82,-3.39 -3.7,-5.49 -0.88,-2.1 -1.32,-4.35 -1.32,-6.75l0 -0.1c0,-2.4 0.45,-4.65 1.35,-6.75 0.89,-2.1 2.14,-3.95 3.72,-5.53 1.59,-1.59 3.48,-2.84 5.68,-3.75 2.19,-0.92 4.59,-1.37 7.19,-1.37 2.59,0 4.98,0.45 7.16,1.37 2.18,0.91 4.06,2.14 5.65,3.7 1.59,1.55 2.82,3.38 3.7,5.48 0.88,2.1 1.33,4.35 1.33,6.76l0 0.09c0,2.41 -0.45,4.66 -1.35,6.76 -0.9,2.1 -2.14,3.94 -3.73,5.53 -1.58,1.58 -3.48,2.83 -5.67,3.75 -2.2,0.91 -4.59,1.37 -7.19,1.37zm24.52 -34.24l25.63 0 0 6.69 -18.22 0 0 7.26 16.06 0 0 6.68 -16.06 0 0 13.03 -7.41 0 0 -33.66zm31.55 0l25.34 0 0 6.59 -18.04 0 0 6.83 15.87 0 0 6.59 -15.87 0 0 7.06 18.28 0 0 6.59 -25.58 0 0 -33.66zm44.23 34.14c-2.56,0 -5.08,-0.44 -7.54,-1.32 -2.47,-0.88 -4.72,-2.24 -6.74,-4.06l4.38 -5.24c1.54,1.25 3.12,2.24 4.74,2.98 1.62,0.74 3.39,1.1 5.31,1.1 1.54,0 2.73,-0.28 3.58,-0.84 0.85,-0.56 1.27,-1.34 1.27,-2.33l0 -0.1c0,-0.48 -0.08,-0.9 -0.26,-1.27 -0.18,-0.37 -0.51,-0.71 -1.01,-1.03 -0.5,-0.32 -1.19,-0.65 -2.08,-0.97 -0.88,-0.32 -2.03,-0.65 -3.44,-1.01 -1.71,-0.41 -3.25,-0.88 -4.63,-1.39 -1.38,-0.51 -2.56,-1.15 -3.52,-1.9 -0.96,-0.75 -1.72,-1.69 -2.25,-2.81 -0.52,-1.12 -0.79,-2.52 -0.79,-4.19l0 -0.09c0,-1.54 0.29,-2.93 0.86,-4.16 0.58,-1.24 1.38,-2.3 2.41,-3.2 1.04,-0.9 2.28,-1.59 3.71,-2.07 1.44,-0.48 3.02,-0.72 4.75,-0.72 2.47,0 4.74,0.37 6.81,1.11 2.07,0.73 3.97,1.79 5.7,3.17l-3.85 5.58c-1.51,-1.03 -2.98,-1.84 -4.43,-2.43 -1.44,-0.59 -2.88,-0.89 -4.32,-0.89 -1.44,0 -2.53,0.28 -3.25,0.84 -0.72,0.56 -1.08,1.26 -1.08,2.09l0 0.1c0,0.55 0.11,1.02 0.31,1.42 0.21,0.4 0.59,0.76 1.13,1.08 0.56,0.32 1.3,0.63 2.25,0.91 0.95,0.29 2.14,0.63 3.59,1.02 1.7,0.44 3.23,0.95 4.56,1.51 1.33,0.56 2.46,1.23 3.37,2.02 0.91,0.78 1.61,1.71 2.08,2.76 0.46,1.06 0.69,2.33 0.69,3.8l0 0.1c0,1.66 -0.3,3.15 -0.9,4.45 -0.61,1.29 -1.45,2.38 -2.53,3.27 -1.09,0.88 -2.38,1.55 -3.88,2.02 -1.5,0.46 -3.17,0.69 -5,0.69zm30.78 0c-2.57,0 -5.08,-0.44 -7.55,-1.32 -2.47,-0.88 -4.71,-2.24 -6.73,-4.06l4.37 -5.24c1.54,1.25 3.12,2.24 4.74,2.98 1.62,0.74 3.39,1.1 5.31,1.1 1.54,0 2.74,-0.28 3.59,-0.84 0.84,-0.56 1.27,-1.34 1.27,-2.33l0 -0.1c0,-0.48 -0.09,-0.9 -0.27,-1.27 -0.17,-0.37 -0.51,-0.71 -1,-1.03 -0.51,-0.32 -1.2,-0.65 -2.08,-0.97 -0.88,-0.32 -2.04,-0.65 -3.45,-1.01 -1.7,-0.41 -3.24,-0.88 -4.63,-1.39 -1.38,-0.51 -2.56,-1.15 -3.52,-1.9 -0.96,-0.75 -1.71,-1.69 -2.24,-2.81 -0.53,-1.12 -0.79,-2.52 -0.79,-4.19l0 -0.09c0,-1.54 0.28,-2.93 0.85,-4.16 0.58,-1.24 1.38,-2.3 2.42,-3.2 1.03,-0.9 2.27,-1.59 3.71,-2.07 1.43,-0.48 3.02,-0.72 4.75,-0.72 2.47,0 4.74,0.37 6.8,1.11 2.07,0.73 3.97,1.79 5.7,3.17l-3.85 5.58c-1.5,-1.03 -2.98,-1.84 -4.42,-2.43 -1.44,-0.59 -2.89,-0.89 -4.33,-0.89 -1.44,0 -2.52,0.28 -3.24,0.84 -0.72,0.56 -1.08,1.26 -1.08,2.09l0 0.1c0,0.55 0.1,1.02 0.31,1.42 0.2,0.4 0.58,0.76 1.13,1.08 0.55,0.32 1.3,0.63 2.24,0.91 0.95,0.29 2.15,0.63 3.59,1.02 1.71,0.44 3.23,0.95 4.56,1.51 1.33,0.56 2.46,1.23 3.38,2.02 0.91,0.78 1.61,1.71 2.07,2.76 0.47,1.06 0.7,2.33 0.7,3.8l0 0.1c0,1.66 -0.31,3.15 -0.91,4.45 -0.61,1.29 -1.45,2.38 -2.53,3.27 -1.08,0.88 -2.38,1.55 -3.88,2.02 -1.5,0.46 -3.16,0.69 -4.99,0.69zm35.2 -6.73c1.47,0 2.83,-0.27 4.09,-0.82 1.24,-0.54 2.31,-1.29 3.19,-2.26 0.88,-0.96 1.57,-2.07 2.07,-3.34 0.5,-1.26 0.75,-2.62 0.75,-4.06l0 -0.1c0,-1.44 -0.25,-2.8 -0.75,-4.08 -0.5,-1.29 -1.2,-2.41 -2.11,-3.37 -0.92,-0.96 -2,-1.72 -3.25,-2.29 -1.25,-0.56 -2.61,-0.84 -4.09,-0.84 -1.51,0 -2.88,0.28 -4.11,0.82 -1.23,0.55 -2.29,1.3 -3.17,2.26 -0.88,0.96 -1.57,2.08 -2.07,3.34 -0.5,1.27 -0.75,2.62 -0.75,4.07l0 0.09c0,1.45 0.25,2.81 0.75,4.09 0.5,1.28 1.2,2.4 2.12,3.37 0.91,0.96 1.98,1.72 3.22,2.28 1.23,0.56 2.6,0.84 4.11,0.84zm-0.1 6.83c-2.6,0 -4.98,-0.46 -7.16,-1.37 -2.18,-0.92 -4.07,-2.15 -5.65,-3.7 -1.59,-1.56 -2.82,-3.39 -3.71,-5.49 -0.88,-2.1 -1.32,-4.35 -1.32,-6.75l0 -0.1c0,-2.4 0.45,-4.65 1.35,-6.75 0.9,-2.1 2.14,-3.95 3.73,-5.53 1.58,-1.59 3.47,-2.84 5.67,-3.75 2.2,-0.92 4.59,-1.37 7.19,-1.37 2.59,0 4.98,0.45 7.16,1.37 2.18,0.91 4.06,2.14 5.65,3.7 1.59,1.55 2.82,3.38 3.71,5.48 0.88,2.1 1.32,4.35 1.32,6.76l0 0.09c0,2.41 -0.45,4.66 -1.35,6.76 -0.9,2.1 -2.14,3.94 -3.73,5.53 -1.58,1.58 -3.47,2.83 -5.67,3.75 -2.19,0.91 -4.59,1.37 -7.19,1.37zm39.43 -17.89c1.83,0 3.23,-0.43 4.21,-1.3 0.98,-0.86 1.47,-2.02 1.47,-3.46l0 -0.1c0,-1.6 -0.52,-2.8 -1.54,-3.6 -1.03,-0.8 -2.46,-1.2 -4.28,-1.2l-7.36 0 0 9.66 7.5 0zm-14.91 -16.35l15.39 0c4.26,0 7.54,1.14 9.81,3.42 1.93,1.92 2.89,4.48 2.89,7.69l0 0.1c0,2.72 -0.67,4.94 -2,6.66 -1.33,1.71 -3.07,2.97 -5.22,3.77l8.23 12.02 -8.66 0 -7.21 -10.77 -0.1 0 -5.72 0 0 10.77 -7.41 0 0 -33.66z"/>
 </g>
</svg>
