<?xml version="1.0" encoding="UTF-8"?>
<!DOCTYPE svg PUBLIC "-//W3C//DTD SVG 1.1//EN" "http://www.w3.org/Graphics/SVG/1.1/DTD/svg11.dtd">
<!-- Creator: CorelDRAW -->
<svg xmlns="http://www.w3.org/2000/svg" xml:space="preserve" width="940px" height="280px" version="1.1" style="shape-rendering:geometricPrecision; text-rendering:geometricPrecision; image-rendering:optimizeQuality; fill-rule:evenodd; clip-rule:evenodd"
viewBox="0 0 940 280"
 xmlns:xlink="http://www.w3.org/1999/xlink"
 xmlns:xodm="http://www.corel.com/coreldraw/odm/2003">
 <defs>
  <style type="text/css">
   <![CDATA[
    .fil0 {fill:#F1F9FD}
    .fil1 {fill:#A7C4D2;fill-rule:nonzero}
   ]]>
  </style>
 </defs>
 <g id="Fundo">
  <metadata id="CorelCorpID_0Corel-Layer"/>
  <polygon class="fil0" points="0,0 940,0 940,280 0,280 "/>
 </g>
 <g id="Arte">
  <metadata id="CorelCorpID_1Corel-Layer"/>
  <path class="fil1" d="M336.4 156.98c-3.26,0 -6.2,-0.54 -8.81,-1.63 -2.62,-1.08 -5.15,-2.71 -7.59,-4.88l1.98 -2.27c1.12,1.05 2.24,1.95 3.34,2.7 1.11,0.76 2.24,1.38 3.4,1.86 1.17,0.49 2.39,0.86 3.67,1.11 1.28,0.25 2.67,0.38 4.18,0.38 1.51,0 2.91,-0.21 4.19,-0.61 1.28,-0.41 2.36,-0.97 3.26,-1.69 0.89,-0.72 1.59,-1.57 2.09,-2.56 0.5,-0.99 0.76,-2.06 0.76,-3.23l0 -0.11c0,-1.09 -0.17,-2.06 -0.5,-2.91 -0.33,-0.85 -0.93,-1.63 -1.8,-2.33 -0.87,-0.69 -2.05,-1.32 -3.52,-1.89 -1.47,-0.56 -3.37,-1.07 -5.7,-1.54 -2.44,-0.5 -4.53,-1.09 -6.28,-1.77 -1.74,-0.68 -3.17,-1.47 -4.27,-2.39 -1.11,-0.91 -1.91,-1.96 -2.42,-3.16 -0.5,-1.21 -0.75,-2.58 -0.75,-4.13l0 -0.12c0,-1.51 0.33,-2.92 0.99,-4.22 0.66,-1.29 1.57,-2.43 2.73,-3.4 1.16,-0.97 2.54,-1.72 4.13,-2.26 1.59,-0.55 3.33,-0.82 5.23,-0.82 2.95,0 5.5,0.41 7.65,1.22 2.15,0.82 4.25,2.06 6.31,3.72l-1.92 2.39c-1.94,-1.67 -3.89,-2.85 -5.85,-3.55 -1.95,-0.7 -4.06,-1.05 -6.3,-1.05 -1.52,0 -2.88,0.21 -4.1,0.62 -1.22,0.4 -2.27,0.95 -3.14,1.65 -0.88,0.7 -1.55,1.51 -2.01,2.44 -0.47,0.94 -0.7,1.92 -0.7,2.97l0 0.12c0,1.08 0.17,2.06 0.5,2.93 0.33,0.88 0.93,1.67 1.8,2.39 0.87,0.71 2.08,1.36 3.63,1.94 1.55,0.59 3.53,1.13 5.93,1.63 4.73,0.97 8.15,2.34 10.24,4.1 2.09,1.77 3.14,4.14 3.14,7.13l0 0.11c0,1.63 -0.34,3.13 -1.02,4.51 -0.68,1.38 -1.61,2.55 -2.79,3.52 -1.18,0.97 -2.6,1.72 -4.25,2.27 -1.64,0.54 -3.45,0.81 -5.43,0.81zm23.43 -41.29l28.96 0 0 2.74 -25.93 0 0 16.1 23.31 0 0 2.74 -23.31 0 0 16.4 26.22 0 0 2.73 -29.25 0 0 -40.71zm55.71 21.11c1.71,0 3.29,-0.21 4.74,-0.64 1.45,-0.42 2.7,-1.05 3.75,-1.84 1.05,-0.79 1.87,-1.76 2.47,-2.92 0.6,-1.14 0.9,-2.46 0.9,-3.93l0 -0.12c0,-2.76 -1.01,-4.94 -3.05,-6.53 -2.03,-1.6 -4.91,-2.39 -8.63,-2.39l-13.9 0 0 18.37 13.72 0zm-16.75 -21.11l17.1 0c2.52,0 4.75,0.36 6.69,1.08 1.94,0.72 3.53,1.69 4.77,2.93 0.97,0.97 1.72,2.11 2.26,3.41 0.55,1.3 0.82,2.68 0.82,4.16l0 0.11c0,1.71 -0.3,3.23 -0.9,4.57 -0.6,1.33 -1.44,2.49 -2.5,3.46 -1.07,0.96 -2.33,1.75 -3.78,2.35 -1.46,0.6 -3.04,1.02 -4.74,1.25l13.43 17.39 -3.84 0 -12.97 -16.87 -0.11 0 -13.2 0 0 16.87 -3.03 0 0 -40.71zm38.56 0l3.37 0 15.93 37.45 15.99 -37.45 3.2 0 -17.91 41 -2.67 0 -17.91 -41zm47.51 0l3.02 0 0 40.71 -3.02 0 0 -40.71zm27.62 47.8l4.42 -6.45c-2.68,-0.23 -5.13,-0.94 -7.36,-2.12 -2.23,-1.19 -4.16,-2.71 -5.78,-4.57 -1.63,-1.86 -2.9,-4 -3.81,-6.43 -0.91,-2.42 -1.37,-5.01 -1.37,-7.76l0 -0.11c0,-2.87 0.51,-5.59 1.54,-8.15 1.03,-2.55 2.44,-4.79 4.25,-6.71 1.8,-1.92 3.94,-3.43 6.42,-4.54 2.48,-1.1 5.2,-1.66 8.14,-1.66 1.83,0 3.47,0.16 4.95,0.47 1.47,0.31 2.84,0.76 4.1,1.34 1.26,0.58 2.44,1.27 3.54,2.06 1.11,0.8 2.18,1.68 3.23,2.65l-2.15 2.21c-0.89,-0.86 -1.82,-1.65 -2.79,-2.39 -0.97,-0.73 -2.01,-1.36 -3.11,-1.89 -1.11,-0.52 -2.31,-0.94 -3.61,-1.25 -1.3,-0.31 -2.7,-0.46 -4.21,-0.46 -2.45,0 -4.72,0.46 -6.81,1.39 -2.09,0.93 -3.91,2.22 -5.44,3.87 -1.53,1.65 -2.73,3.58 -3.6,5.79 -0.87,2.21 -1.31,4.59 -1.31,7.15l0 0.12c0,2.55 0.45,4.95 1.34,7.18 0.89,2.23 2.1,4.16 3.63,5.81 1.53,1.65 3.35,2.95 5.44,3.9 2.09,0.95 4.36,1.42 6.8,1.42 2.95,0 5.51,-0.54 7.68,-1.63 2.17,-1.08 4.28,-2.65 6.34,-4.71l2.03 1.98c-1.04,1.01 -2.11,1.94 -3.2,2.79 -1.08,0.86 -2.24,1.59 -3.48,2.21 -1.25,0.62 -2.58,1.12 -4.02,1.49 -1.43,0.36 -3,0.57 -4.71,0.61l-3.89 7.9 -3.2 -1.51zm49.54 -9.13c2.52,0 4.84,-0.47 6.95,-1.42 2.11,-0.95 3.94,-2.25 5.47,-3.9 1.53,-1.65 2.72,-3.57 3.57,-5.78 0.86,-2.21 1.28,-4.58 1.28,-7.1l0 -0.11c0,-2.52 -0.43,-4.9 -1.31,-7.13 -0.87,-2.23 -2.07,-4.17 -3.6,-5.81 -1.53,-1.65 -3.36,-2.96 -5.5,-3.93 -2.13,-0.97 -4.45,-1.45 -6.97,-1.45 -2.52,0 -4.84,0.47 -6.95,1.42 -2.12,0.95 -3.94,2.25 -5.47,3.9 -1.53,1.65 -2.72,3.57 -3.57,5.78 -0.86,2.21 -1.28,4.58 -1.28,7.1l0 0.12c0,2.52 0.43,4.89 1.3,7.12 0.88,2.23 2.08,4.17 3.61,5.81 1.53,1.65 3.36,2.96 5.5,3.93 2.13,0.97 4.45,1.45 6.97,1.45zm-0.11 2.74c-3.11,0 -5.91,-0.58 -8.41,-1.72 -2.5,-1.14 -4.64,-2.67 -6.42,-4.59 -1.78,-1.92 -3.16,-4.14 -4.13,-6.66 -0.97,-2.52 -1.45,-5.18 -1.45,-7.97l0 -0.11c0,-2.8 0.49,-5.46 1.48,-8 0.99,-2.54 2.37,-4.78 4.16,-6.72 1.78,-1.93 3.93,-3.48 6.45,-4.62 2.52,-1.14 5.33,-1.72 8.43,-1.72 3.07,0 5.86,0.58 8.38,1.72 2.52,1.14 4.67,2.68 6.45,4.59 1.78,1.92 3.16,4.14 4.13,6.66 0.97,2.52 1.45,5.18 1.45,7.97 0.04,0.04 0.04,0.08 0,0.12 0,2.79 -0.49,5.45 -1.48,7.99 -0.99,2.54 -2.37,4.78 -4.16,6.72 -1.78,1.94 -3.94,3.48 -6.48,4.62 -2.54,1.14 -5.34,1.72 -8.4,1.72zm44.6 -0.12c-3.26,0 -6.2,-0.54 -8.81,-1.63 -2.62,-1.08 -5.15,-2.71 -7.59,-4.88l1.98 -2.27c1.12,1.05 2.24,1.95 3.34,2.7 1.11,0.76 2.24,1.38 3.4,1.86 1.17,0.49 2.39,0.86 3.67,1.11 1.28,0.25 2.67,0.38 4.18,0.38 1.51,0 2.91,-0.21 4.19,-0.61 1.28,-0.41 2.36,-0.97 3.26,-1.69 0.89,-0.72 1.59,-1.57 2.09,-2.56 0.5,-0.99 0.76,-2.06 0.76,-3.23l0 -0.11c0,-1.09 -0.17,-2.06 -0.5,-2.91 -0.33,-0.85 -0.93,-1.63 -1.8,-2.33 -0.87,-0.69 -2.05,-1.32 -3.52,-1.89 -1.47,-0.56 -3.37,-1.07 -5.7,-1.54 -2.44,-0.5 -4.53,-1.09 -6.28,-1.77 -1.74,-0.68 -3.17,-1.47 -4.27,-2.39 -1.11,-0.91 -1.91,-1.96 -2.42,-3.16 -0.5,-1.21 -0.75,-2.58 -0.75,-4.13l0 -0.12c0,-1.51 0.33,-2.92 0.99,-4.22 0.66,-1.29 1.57,-2.43 2.73,-3.4 1.16,-0.97 2.54,-1.72 4.13,-2.26 1.59,-0.55 3.33,-0.82 5.23,-0.82 2.95,0 5.5,0.41 7.65,1.22 2.15,0.82 4.25,2.06 6.31,3.72l-1.92 2.39c-1.94,-1.67 -3.89,-2.85 -5.85,-3.55 -1.95,-0.7 -4.06,-1.05 -6.3,-1.05 -1.52,0 -2.88,0.21 -4.1,0.62 -1.22,0.4 -2.27,0.95 -3.14,1.65 -0.88,0.7 -1.55,1.51 -2.01,2.44 -0.47,0.94 -0.7,1.92 -0.7,2.97l0 0.12c0,1.08 0.17,2.06 0.5,2.93 0.33,0.88 0.93,1.67 1.8,2.39 0.87,0.71 2.08,1.36 3.63,1.94 1.55,0.59 3.53,1.13 5.93,1.63 4.73,0.97 8.15,2.34 10.24,4.1 2.09,1.77 3.14,4.14 3.14,7.13l0 0.11c0,1.63 -0.34,3.13 -1.02,4.51 -0.68,1.38 -1.61,2.55 -2.79,3.52 -1.18,0.97 -2.6,1.72 -4.24,2.27 -1.65,0.54 -3.46,0.81 -5.44,0.81z"/>
 </g>
</svg>
