<svg xmlns="http://www.w3.org/2000/svg" width="940" height="280" shape-rendering="geometricPrecision" image-rendering="optimizeQuality" fill-rule="evenodd" xmlns:v="https://vecta.io/nano"><path d="M0 0h940v280H0z" fill="#f5e9f2"/><path d="M336.4 156.98c-3.26 0-6.2-.54-8.81-1.63-2.62-1.08-5.15-2.71-7.59-4.88l1.98-2.27c1.12 1.05 2.24 1.95 3.34 2.7 1.11.76 2.24 1.38 3.4 1.86 1.17.49 2.39.86 3.67 1.11s2.67.38 4.18.38 2.91-.21 4.19-.61c1.28-.41 2.36-.97 3.26-1.69.89-.72 1.59-1.57 2.09-2.56a7.05 7.05 0 0 0 .76-3.23v-.11c0-1.09-.17-2.06-.5-2.91s-.93-1.63-1.8-2.33c-.87-.69-2.05-1.32-3.52-1.89-1.47-.56-3.37-1.07-5.7-1.54-2.44-.5-4.53-1.09-6.28-1.77-1.74-.68-3.17-1.47-4.27-2.39-1.11-.91-1.91-1.96-2.42-3.16-.5-1.21-.75-2.58-.75-4.13v-.12c0-1.51.33-2.92.99-4.22.66-1.29 1.57-2.43 2.73-3.4s2.54-1.72 4.13-2.26c1.59-.55 3.33-.82 5.23-.82 2.95 0 5.5.41 7.65 1.22 2.15.82 4.25 2.06 6.31 3.72l-1.92 2.39c-1.94-1.67-3.89-2.85-5.85-3.55-1.95-.7-4.06-1.05-6.3-1.05-1.52 0-2.88.21-4.1.62-1.22.4-2.27.95-3.14 1.65-.88.7-1.55 1.51-2.01 2.44a6.52 6.52 0 0 0-.7 2.97v.12c0 1.08.17 2.06.5 2.93.33.88.93 1.67 1.8 2.39.87.71 2.08 1.36 3.63 1.94 1.55.59 3.53 1.13 5.93 1.63 4.73.97 8.15 2.34 10.24 4.1 2.09 1.77 3.14 4.14 3.14 7.13v.11c0 1.63-.34 3.13-1.02 4.51a10.52 10.52 0 0 1-2.79 3.52c-1.18.97-2.6 1.72-4.25 2.27-1.64.54-3.45.81-5.43.81zm23.43-41.29h28.96v2.74h-25.93v16.1h23.31v2.74h-23.31v16.4h26.22v2.73h-29.25v-40.71zm55.71 21.11c1.71 0 3.29-.21 4.74-.64 1.45-.42 2.7-1.05 3.75-1.84a8.48 8.48 0 0 0 2.47-2.92c.6-1.14.9-2.46.9-3.93v-.12c0-2.76-1.01-4.94-3.05-6.53-2.03-1.6-4.91-2.39-8.63-2.39h-13.9v18.37h13.72zm-16.75-21.11h17.1c2.52 0 4.75.36 6.69 1.08s3.53 1.69 4.77 2.93c.97.97 1.72 2.11 2.26 3.41.55 1.3.82 2.68.82 4.16v.11c0 1.71-.3 3.23-.9 4.57-.6 1.33-1.44 2.49-2.5 3.46-1.07.96-2.33 1.75-3.78 2.35-1.46.6-3.04 1.02-4.74 1.25l13.43 17.39h-3.84l-12.97-16.87h-.11-13.2v16.87h-3.03v-40.71zm38.56 0h3.37l15.93 37.45 15.99-37.45h3.2l-17.91 41h-2.67l-17.91-41zm47.51 0h3.02v40.71h-3.02v-40.71zm27.62 47.8l4.42-6.45c-2.68-.23-5.13-.94-7.36-2.12a20.19 20.19 0 0 1-5.78-4.57c-1.63-1.86-2.9-4-3.81-6.43-.91-2.42-1.37-5.01-1.37-7.76v-.11c0-2.87.51-5.59 1.54-8.15 1.03-2.55 2.44-4.79 4.25-6.71 1.8-1.92 3.94-3.43 6.42-4.54 2.48-1.1 5.2-1.66 8.14-1.66 1.83 0 3.47.16 4.95.47a19.32 19.32 0 0 1 4.1 1.34c1.26.58 2.44 1.27 3.54 2.06 1.11.8 2.18 1.68 3.23 2.65l-2.15 2.21c-.89-.86-1.82-1.65-2.79-2.39a18.56 18.56 0 0 0-3.11-1.89c-1.11-.52-2.31-.94-3.61-1.25s-2.7-.46-4.21-.46c-2.45 0-4.72.46-6.81 1.39s-3.91 2.22-5.44 3.87-2.73 3.58-3.6 5.79-1.31 4.59-1.31 7.15v.12c0 2.55.45 4.95 1.34 7.18s2.1 4.16 3.63 5.81a16.85 16.85 0 0 0 5.44 3.9c2.09.95 4.36 1.42 6.8 1.42 2.95 0 5.51-.54 7.68-1.63 2.17-1.08 4.28-2.65 6.34-4.71l2.03 1.98c-1.04 1.01-2.11 1.94-3.2 2.79-1.08.86-2.24 1.59-3.48 2.21-1.25.62-2.58 1.12-4.02 1.49-1.43.36-3 .57-4.71.61l-3.89 7.9-3.2-1.51zm49.54-9.13c2.52 0 4.84-.47 6.95-1.42s3.94-2.25 5.47-3.9 2.72-3.57 3.57-5.78c.86-2.21 1.28-4.58 1.28-7.1v-.11c0-2.52-.43-4.9-1.31-7.13-.87-2.23-2.07-4.17-3.6-5.81-1.53-1.65-3.36-2.96-5.5-3.93-2.13-.97-4.45-1.45-6.97-1.45s-4.84.47-6.95 1.42c-2.12.95-3.94 2.25-5.47 3.9s-2.72 3.57-3.57 5.78c-.86 2.21-1.28 4.58-1.28 7.1v.12c0 2.52.43 4.89 1.3 7.12.88 2.23 2.08 4.17 3.61 5.81 1.53 1.65 3.36 2.96 5.5 3.93 2.13.97 4.45 1.45 6.97 1.45zm-.11 2.74c-3.11 0-5.91-.58-8.41-1.72s-4.64-2.67-6.42-4.59-3.16-4.14-4.13-6.66-1.45-5.18-1.45-7.97v-.11c0-2.8.49-5.46 1.48-8s2.37-4.78 4.16-6.72c1.78-1.93 3.93-3.48 6.45-4.62s5.33-1.72 8.43-1.72c3.07 0 5.86.58 8.38 1.72s4.67 2.68 6.45 4.59c1.78 1.92 3.16 4.14 4.13 6.66s1.45 5.18 1.45 7.97c.04.04.04.08 0 .12a21.79 21.79 0 0 1-1.48 7.99c-.99 2.54-2.37 4.78-4.16 6.72-1.78 1.94-3.94 3.48-6.48 4.62s-5.34 1.72-8.4 1.72zm44.6-.12c-3.26 0-6.2-.54-8.81-1.63-2.62-1.08-5.15-2.71-7.59-4.88l1.98-2.27c1.12 1.05 2.24 1.95 3.34 2.7 1.11.76 2.24 1.38 3.4 1.86 1.17.49 2.39.86 3.67 1.11s2.67.38 4.18.38 2.91-.21 4.19-.61c1.28-.41 2.36-.97 3.26-1.69.89-.72 1.59-1.57 2.09-2.56a7.05 7.05 0 0 0 .76-3.23v-.11c0-1.09-.17-2.06-.5-2.91s-.93-1.63-1.8-2.33c-.87-.69-2.05-1.32-3.52-1.89-1.47-.56-3.37-1.07-5.7-1.54-2.44-.5-4.53-1.09-6.28-1.77-1.74-.68-3.17-1.47-4.27-2.39-1.11-.91-1.91-1.96-2.42-3.16-.5-1.21-.75-2.58-.75-4.13v-.12c0-1.51.33-2.92.99-4.22.66-1.29 1.57-2.43 2.73-3.4s2.54-1.72 4.13-2.26c1.59-.55 3.33-.82 5.23-.82 2.95 0 5.5.41 7.65 1.22 2.15.82 4.25 2.06 6.31 3.72l-1.92 2.39c-1.94-1.67-3.89-2.85-5.85-3.55-1.95-.7-4.06-1.05-6.3-1.05-1.52 0-2.88.21-4.1.62-1.22.4-2.27.95-3.14 1.65-.88.7-1.55 1.51-2.01 2.44a6.52 6.52 0 0 0-.7 2.97v.12c0 1.08.17 2.06.5 2.93.33.88.93 1.67 1.8 2.39.87.71 2.08 1.36 3.63 1.94 1.55.59 3.53 1.13 5.93 1.63 4.73.97 8.15 2.34 10.24 4.1 2.09 1.77 3.14 4.14 3.14 7.13v.11c0 1.63-.34 3.13-1.02 4.51a10.52 10.52 0 0 1-2.79 3.52c-1.18.97-2.6 1.72-4.24 2.27-1.65.54-3.46.81-5.44.81z" fill="#965f8a" fill-rule="nonzero"/></svg>